<svg width="12" height="12" viewBox="0 0 12 12" fill="none" xmlns="http://www.w3.org/2000/svg">
<path d="M1.15639 2.59622C1.61894 2.12236 2.0815 1.69522 2.28634 1.78198C2.61674 1.91546 2.28634 2.46941 2.08811 2.79644C1.92291 3.07675 0.198238 5.39266 0.198238 7.00779C0.198238 7.86207 0.515419 8.56952 1.0837 8.99666C1.5793 9.37041 2.23348 9.48387 2.82819 9.30367C3.53524 9.09677 4.11674 8.3693 4.85022 7.45495C5.64978 6.46051 6.72026 5.15907 7.54626 5.15907C8.62335 5.15907 8.63656 5.83315 8.70925 6.35373C6.21145 6.78087 5.15419 8.80311 5.15419 9.93771C5.15419 11.0723 6.10573 12 7.27533 12C8.35242 12 10.1101 11.1123 10.3744 7.92881H12V6.26029H10.3678C10.2687 5.15907 9.64758 3.45717 7.70485 3.45717C6.21806 3.45717 4.94273 4.73192 4.44053 5.35261C4.05727 5.83982 3.0793 7.00779 2.92731 7.16796C2.76211 7.36819 2.47797 7.72859 2.19383 7.72859C1.89648 7.72859 1.71806 7.17464 1.95595 6.44716C2.18722 5.71969 2.88106 4.53838 3.17841 4.09789C3.69383 3.33704 4.03744 2.81646 4.03744 1.90879C4.03744 0.460512 2.95374 0 2.37885 0C1.50661 0 0.746696 0.667408 0.581498 0.83426C0.343612 1.07453 0.145374 1.27475 0 1.45495L1.15639 2.59622ZM7.29515 10.3782C7.09031 10.3782 6.80617 10.2047 6.80617 9.89766C6.80617 9.49722 7.28855 8.42937 8.70264 8.05562C8.50441 9.85095 7.75771 10.3782 7.29515 10.3782Z" fill="url(#paint0_linear_272_3445)"/>
<defs>
<linearGradient id="paint0_linear_272_3445" x1="0" y1="0" x2="12.7294" y2="0.831341" gradientUnits="userSpaceOnUse">
<stop stop-color="#02FF85"/>
<stop offset="1" stop-color="#19FF0A"/>
</linearGradient>
</defs>
</svg>
