<svg width="24" height="24" viewBox="0 0 24 24" fill="none" xmlns="http://www.w3.org/2000/svg">
<path id="Vector" d="M2.31278 5.19244C3.23789 4.24472 4.163 3.39043 4.57269 3.56396C5.23348 3.83092 4.57269 4.93882 4.17621 5.59288C3.84582 6.1535 0.396476 10.7853 0.396476 14.0156C0.396476 15.7241 1.03084 17.139 2.1674 17.9933C3.15859 18.7408 4.46696 18.9677 5.65639 18.6073C7.07048 18.1935 8.23348 16.7386 9.70044 14.9099C11.2996 12.921 13.4405 10.3181 15.0925 10.3181C17.2467 10.3181 17.2731 11.6663 17.4185 12.7075C12.4229 13.5617 10.3084 17.6062 10.3084 19.8754C10.3084 22.1446 12.2115 24 14.5507 24C16.7048 24 20.2203 22.2247 20.7489 15.8576H24V12.5206H20.7357C20.5374 10.3181 19.2952 6.91435 15.4097 6.91435C12.4361 6.91435 9.88546 9.46385 8.88106 10.7052C8.11454 11.6796 6.15859 14.0156 5.85463 14.3359C5.52423 14.7364 4.95595 15.4572 4.38767 15.4572C3.79295 15.4572 3.43612 14.3493 3.91189 12.8943C4.37445 11.4394 5.76212 9.07675 6.35683 8.19577C7.38767 6.67408 8.07489 5.63293 8.07489 3.81758C8.07489 0.921023 5.90749 0 4.75771 0C3.01322 0 1.49339 1.33482 1.163 1.66852C0.687225 2.14905 0.290749 2.5495 0 2.9099L2.31278 5.19244ZM14.5903 20.7564C14.1806 20.7564 13.6123 20.4093 13.6123 19.7953C13.6123 18.9944 14.5771 16.8587 17.4053 16.1112C17.0088 19.7019 15.5154 20.7564 14.5903 20.7564Z" fill="url(#paint0_linear_272_3527)"/>
<defs>
<linearGradient id="paint0_linear_272_3527" x1="0" y1="0" x2="25.4588" y2="1.66268" gradientUnits="userSpaceOnUse">
<stop stop-color="#02FF85"/>
<stop offset="1" stop-color="#19FF0A"/>
</linearGradient>
</defs>
</svg>
