<svg width="502" height="189" viewBox="0 0 502 189" fill="none" xmlns="http://www.w3.org/2000/svg">
<g filter="url(#filter0_b_272_4019)">
<rect x="-157" width="659" height="189" rx="25" fill="url(#paint0_linear_272_4019)"/>
<rect x="-156.5" y="0.5" width="658" height="188" rx="24.5" stroke="url(#paint1_linear_272_4019)"/>
</g>
<path d="M132.984 76.312C128.64 76.288 126.984 74.272 126.624 71.608L129.24 71.056C129.6 73.096 130.896 74.08 133.08 74.08C135.072 74.08 135.984 73.36 135.984 72.184C135.984 70.96 135.192 70.336 132.36 69.856C128.424 69.208 127.176 67.696 127.176 65.44C127.176 62.872 129 61.288 132.696 61.288C136.392 61.288 137.904 63.016 138.384 65.536L135.672 66.064C135.288 64.36 134.568 63.472 132.552 63.472C130.728 63.472 129.864 64.144 129.864 65.296C129.864 66.328 130.416 67.048 133.44 67.6C137.736 68.392 138.72 69.952 138.72 72.016C138.72 74.656 137.04 76.312 132.984 76.312ZM145.547 74.032C147.275 74.032 148.427 72.736 148.427 70.864L148.427 70C148.427 68.008 147.299 66.76 145.547 66.76C143.651 66.76 142.763 67.936 142.763 70.408C142.763 72.832 143.651 74.032 145.547 74.032ZM140.219 70.432C140.219 66.544 141.707 64.432 144.419 64.432C146.459 64.432 147.707 65.752 148.283 67.744L148.427 67.72L148.427 64.72L150.995 64.72L150.995 79.816L148.427 79.816L148.427 73.024L148.259 73.024C147.707 74.968 146.363 76.312 144.299 76.312C141.779 76.312 140.219 74.248 140.219 70.432ZM161.272 76L161.272 73.024L161.032 73.024C160.408 75.112 158.968 76.312 157.096 76.312C154.72 76.312 153.592 74.704 153.592 72.256L153.592 64.72L156.184 64.72L156.184 71.584C156.184 72.952 156.784 73.96 158.32 73.96C160.072 73.96 161.2 72.808 161.2 71.104L161.2 64.72L163.792 64.72L163.792 76L161.272 76ZM170.253 74.224C172.053 74.224 173.253 73.168 173.253 71.752L173.253 71.296L170.325 71.296C169.029 71.296 168.285 71.776 168.285 72.712C168.285 73.528 168.789 74.224 170.253 74.224ZM173.373 76L173.373 73.312L173.109 73.312C172.533 75.136 171.237 76.24 169.245 76.24C167.229 76.24 165.813 75.28 165.813 73.072C165.813 71.056 167.037 69.592 169.893 69.592L173.253 69.592L173.253 68.824C173.253 67.36 172.653 66.52 171.069 66.52C169.749 66.52 168.981 67.192 168.693 68.512L166.245 67.96C166.677 65.824 168.285 64.456 171.165 64.456C174.429 64.456 175.821 65.992 175.821 68.8L175.821 76L173.373 76ZM183.118 74.008C184.846 74.008 185.998 72.784 185.998 70.864L185.998 70C185.998 68.056 184.87 66.76 183.118 66.76C181.246 66.76 180.334 67.936 180.334 70.408C180.334 72.832 181.198 74.008 183.118 74.008ZM185.998 76L185.998 73.024L185.83 73.024C185.254 74.968 183.91 76.312 181.894 76.312C179.302 76.312 177.79 74.224 177.79 70.408C177.79 66.544 179.326 64.408 181.966 64.432C184.006 64.408 185.254 65.704 185.83 67.672L185.998 67.672L185.998 60.592L188.566 60.592L188.566 76L185.998 76ZM201.445 63.928L198.637 63.928L198.637 68.992L201.469 68.992C203.485 68.992 204.325 68.2 204.325 66.472C204.325 64.72 203.581 63.928 201.445 63.928ZM201.781 71.248L198.637 71.248L198.637 76L195.901 76L195.901 61.6L201.685 61.6C205.261 61.6 207.013 63.232 207.013 66.448C207.013 69.184 205.165 71.248 201.781 71.248ZM211.31 76L208.742 76L208.742 64.72L211.19 64.72L211.19 68.104L211.406 68.128C212.054 65.392 213.11 64.6 214.742 64.6L215.15 64.6L215.15 67.504L214.526 67.504C212.15 67.504 211.31 68.344 211.31 70.648L211.31 76ZM221.867 66.424C220.115 66.424 219.083 67.36 218.843 69.376L224.627 69.376C224.531 67.432 223.667 66.424 221.867 66.424ZM221.939 76.288C218.483 76.288 216.251 74.272 216.251 70.504C216.251 66.688 218.411 64.432 221.939 64.432C225.347 64.432 227.003 66.496 227.003 69.592C227.003 70.024 227.003 70.528 226.955 71.104L218.819 71.104C219.011 73.144 220.043 74.176 221.963 74.176C223.763 74.176 224.387 73.312 224.699 72.232L226.907 72.856C226.379 74.896 224.963 76.288 221.939 76.288ZM231.654 69.616L231.654 76L229.086 76L229.086 64.72L231.606 64.72L231.606 67.696L231.822 67.696C232.446 65.584 233.862 64.432 235.782 64.432C237.894 64.432 238.95 65.728 239.118 67.816L239.382 67.816C239.934 65.656 241.254 64.432 243.342 64.432C245.718 64.432 246.87 66.016 246.87 68.464L246.87 76L244.278 76L244.278 69.136C244.278 67.768 243.654 66.76 242.142 66.76C240.366 66.76 239.262 67.912 239.262 69.616L239.262 76L236.694 76L236.694 69.136C236.694 67.768 236.046 66.76 234.534 66.76C232.806 66.76 231.654 67.912 231.654 69.616ZM252.309 62.8L249.501 62.8L249.501 60.712L252.309 60.712L252.309 62.8ZM252.189 76L249.597 76L249.597 64.72L252.189 64.72L252.189 76ZM262.639 76L262.639 73.024L262.399 73.024C261.775 75.112 260.335 76.312 258.463 76.312C256.087 76.312 254.959 74.704 254.959 72.256L254.959 64.72L257.551 64.72L257.551 71.584C257.551 72.952 258.151 73.96 259.687 73.96C261.439 73.96 262.567 72.808 262.567 71.104L262.567 64.72L265.159 64.72L265.159 76L262.639 76ZM270.42 69.616L270.42 76L267.852 76L267.852 64.72L270.372 64.72L270.372 67.696L270.588 67.696C271.212 65.584 272.628 64.432 274.548 64.432C276.66 64.432 277.716 65.728 277.884 67.816L278.148 67.816C278.7 65.656 280.02 64.432 282.108 64.432C284.484 64.432 285.636 66.016 285.636 68.464L285.636 76L283.044 76L283.044 69.136C283.044 67.768 282.42 66.76 280.908 66.76C279.132 66.76 278.028 67.912 278.028 69.616L278.028 76L275.46 76L275.46 69.136C275.46 67.768 274.812 66.76 273.3 66.76C271.572 66.76 270.42 67.912 270.42 69.616ZM291.902 68.944L299.342 68.944L299.342 71.368L291.902 71.368L291.902 68.944ZM315.711 76L314.463 72.328L308.319 72.328L307.071 76L304.239 76L309.591 61.6L313.287 61.6L318.639 76L315.711 76ZM309.639 68.512L309.039 70.288L313.743 70.288L313.143 68.512C312.639 67.048 312.135 65.416 311.703 63.976L311.103 63.976C310.671 65.416 310.143 67.048 309.639 68.512ZM322.524 60.592L322.524 76L319.932 76L319.932 60.592L322.524 60.592ZM329.042 74.224C330.842 74.224 332.042 73.168 332.042 71.752L332.042 71.296L329.114 71.296C327.818 71.296 327.074 71.776 327.074 72.712C327.074 73.528 327.578 74.224 329.042 74.224ZM332.162 76L332.162 73.312L331.898 73.312C331.322 75.136 330.026 76.24 328.034 76.24C326.018 76.24 324.602 75.28 324.602 73.072C324.602 71.056 325.826 69.592 328.682 69.592L332.042 69.592L332.042 68.824C332.042 67.36 331.442 66.52 329.858 66.52C328.538 66.52 327.77 67.192 327.482 68.512L325.034 67.96C325.466 65.824 327.074 64.456 329.954 64.456C333.218 64.456 334.61 65.992 334.61 68.8L334.61 76L332.162 76ZM339.795 69.616L339.795 76L337.227 76L337.227 64.72L339.747 64.72L339.747 67.696L339.963 67.696C340.587 65.584 342.003 64.432 343.923 64.432C346.035 64.432 347.091 65.728 347.259 67.816L347.523 67.816C348.075 65.656 349.395 64.432 351.483 64.432C353.859 64.432 355.011 66.016 355.011 68.464L355.011 76L352.419 76L352.419 69.136C352.419 67.768 351.795 66.76 350.283 66.76C348.507 66.76 347.403 67.912 347.403 69.616L347.403 76L344.835 76L344.835 69.136C344.835 67.768 344.187 66.76 342.675 66.76C340.947 66.76 339.795 67.912 339.795 69.616ZM362.562 66.424C360.81 66.424 359.778 67.36 359.538 69.376L365.322 69.376C365.226 67.432 364.362 66.424 362.562 66.424ZM362.634 76.288C359.178 76.288 356.946 74.272 356.946 70.504C356.946 66.688 359.106 64.432 362.634 64.432C366.042 64.432 367.698 66.496 367.698 69.592C367.698 70.024 367.698 70.528 367.65 71.104L359.514 71.104C359.706 73.144 360.738 74.176 362.658 74.176C364.458 74.176 365.082 73.312 365.394 72.232L367.602 72.856C367.074 74.896 365.658 76.288 362.634 76.288ZM374.462 74.008C376.19 74.008 377.342 72.784 377.342 70.864L377.342 70C377.342 68.056 376.214 66.76 374.462 66.76C372.59 66.76 371.678 67.936 371.678 70.408C371.678 72.832 372.542 74.008 374.462 74.008ZM377.342 76L377.342 73.024L377.174 73.024C376.598 74.968 375.254 76.312 373.238 76.312C370.646 76.312 369.134 74.224 369.134 70.408C369.134 66.544 370.67 64.408 373.31 64.432C375.35 64.408 376.598 65.704 377.174 67.672L377.342 67.672L377.342 60.592L379.91 60.592L379.91 76L377.342 76ZM386.37 74.224C388.17 74.224 389.37 73.168 389.37 71.752L389.37 71.296L386.442 71.296C385.146 71.296 384.402 71.776 384.402 72.712C384.402 73.528 384.906 74.224 386.37 74.224ZM389.49 76L389.49 73.312L389.226 73.312C388.65 75.136 387.354 76.24 385.362 76.24C383.346 76.24 381.93 75.28 381.93 73.072C381.93 71.056 383.154 69.592 386.01 69.592L389.37 69.592L389.37 68.824C389.37 67.36 388.77 66.52 387.186 66.52C385.866 66.52 385.098 67.192 384.81 68.512L382.362 67.96C382.794 65.824 384.402 64.456 387.282 64.456C390.546 64.456 391.938 65.992 391.938 68.8L391.938 76L389.49 76ZM129.984 99.328L129.984 106L127.44 106L127.44 91.6L131.928 91.6L134.16 97.816C134.52 98.752 135.144 100.696 135.6 102.352L135.984 102.352C136.464 100.696 137.04 98.8 137.424 97.72L139.704 91.6L143.904 91.6L143.904 106L141.168 106L141.168 99.328C141.168 97.648 141.24 95.512 141.288 93.832L140.88 93.832C140.376 95.656 139.704 97.84 138.96 99.832L136.872 105.184L134.208 105.184L132.192 99.736C131.448 97.624 130.848 95.608 130.368 93.832L129.96 93.832C130.008 95.512 129.984 97.6 129.984 99.328ZM149.536 92.8L146.728 92.8L146.728 90.712L149.536 90.712L149.536 92.8ZM149.416 106L146.824 106L146.824 94.72L149.416 94.72L149.416 106ZM154.85 99.616L154.85 106L152.282 106L152.282 94.72L154.802 94.72L154.802 97.696L155.018 97.696C155.642 95.608 157.082 94.432 158.978 94.432C161.33 94.432 162.458 96.016 162.458 98.464L162.458 106L159.89 106L159.89 99.136C159.89 97.768 159.29 96.76 157.73 96.76C156.002 96.76 154.85 97.912 154.85 99.616ZM167.888 92.8L165.08 92.8L165.08 90.712L167.888 90.712L167.888 92.8ZM167.768 106L165.176 106L165.176 94.72L167.768 94.72L167.768 106ZM175.097 106.312C171.449 106.312 170.249 104.824 169.841 102.664L172.169 102.184C172.529 103.552 173.321 104.416 175.145 104.416C176.513 104.416 177.233 103.936 177.233 102.976C177.233 102.088 176.609 101.656 174.377 101.248C171.377 100.648 170.321 99.64 170.321 97.768C170.321 95.728 171.809 94.432 174.809 94.432C177.905 94.432 178.961 95.704 179.417 97.696L177.089 98.2C176.777 96.808 176.105 96.28 174.761 96.28C173.441 96.28 172.769 96.784 172.769 97.624C172.769 98.416 173.249 98.968 175.385 99.352C178.721 99.976 179.729 101.104 179.729 102.88C179.729 104.968 178.337 106.312 175.097 106.312ZM182.367 102.568L182.367 96.808L180.783 96.808L180.783 94.72L182.367 94.72L182.367 91.672L184.959 91.672L184.959 94.72L188.271 94.72L188.271 96.808L184.959 96.808L184.959 102.208C184.959 103.312 185.367 103.888 186.495 103.888C187.071 103.888 187.575 103.768 188.127 103.6L188.439 105.904C187.599 106.168 187.023 106.312 185.895 106.312C183.423 106.312 182.367 104.68 182.367 102.568ZM192.842 106L190.274 106L190.274 94.72L192.722 94.72L192.722 98.104L192.938 98.128C193.586 95.392 194.642 94.6 196.274 94.6L196.682 94.6L196.682 97.504L196.058 97.504C193.682 97.504 192.842 98.344 192.842 100.648L192.842 106ZM203.518 106.312C199.894 106.312 197.782 104.032 197.782 100.336C197.782 96.616 200.014 94.432 203.518 94.432C206.974 94.432 209.206 96.616 209.206 100.336C209.206 104.032 207.094 106.312 203.518 106.312ZM203.494 96.616C201.406 96.616 200.374 97.984 200.374 100.312C200.374 102.64 201.334 104.08 203.494 104.08C205.63 104.08 206.638 102.64 206.638 100.312C206.638 97.984 205.582 96.616 203.494 96.616ZM221.749 93.904L218.629 93.904L218.629 98.296L221.701 98.296C223.573 98.296 224.557 97.576 224.557 96.04C224.557 94.576 223.813 93.904 221.749 93.904ZM224.893 106L221.317 100.6L218.629 100.6L218.629 106L215.893 106L215.893 91.6L221.941 91.6C225.541 91.6 227.245 93.112 227.245 95.968C227.245 98.224 226.093 99.712 224.077 100.312L228.085 105.736L228.085 106L224.893 106ZM234.01 106.312C230.386 106.312 228.274 104.032 228.274 100.336C228.274 96.616 230.506 94.432 234.01 94.432C237.466 94.432 239.698 96.616 239.698 100.336C239.698 104.032 237.586 106.312 234.01 106.312ZM233.986 96.616C231.898 96.616 230.866 97.984 230.866 100.312C230.866 102.64 231.826 104.08 233.986 104.08C236.122 104.08 237.13 102.64 237.13 100.312C237.13 97.984 236.074 96.616 233.986 96.616ZM249.518 99.112C249.182 97.672 248.51 96.712 246.734 96.712C244.886 96.712 243.734 97.888 243.734 100.36C243.734 102.64 244.79 104.032 246.806 104.032C248.63 104.032 249.254 102.904 249.59 101.536L251.966 102.112C251.51 104.728 249.926 106.312 246.83 106.312C243.278 106.312 241.094 104.248 241.094 100.456C241.094 96.664 243.326 94.432 246.782 94.432C250.022 94.432 251.486 95.968 251.942 98.656L249.518 99.112ZM256.615 99.616L256.615 106L254.047 106L254.047 90.592L256.615 90.592L256.615 97.696L256.807 97.696C257.455 95.632 258.823 94.432 260.791 94.432C263.119 94.432 264.223 96.016 264.223 98.464L264.223 106L261.655 106L261.655 99.136C261.655 97.768 261.031 96.76 259.519 96.76C257.767 96.76 256.615 97.912 256.615 99.616ZM270.565 104.224C272.365 104.224 273.565 103.168 273.565 101.752L273.565 101.296L270.637 101.296C269.341 101.296 268.597 101.776 268.597 102.712C268.597 103.528 269.101 104.224 270.565 104.224ZM273.685 106L273.685 103.312L273.421 103.312C272.845 105.136 271.549 106.24 269.557 106.24C267.541 106.24 266.125 105.28 266.125 103.072C266.125 101.056 267.349 99.592 270.205 99.592L273.565 99.592L273.565 98.824C273.565 97.36 272.965 96.52 271.381 96.52C270.061 96.52 269.293 97.192 269.005 98.512L266.557 97.96C266.989 95.824 268.597 94.456 271.477 94.456C274.741 94.456 276.133 95.992 276.133 98.8L276.133 106L273.685 106ZM293.305 106L292.057 102.328L285.913 102.328L284.665 106L281.833 106L287.185 91.6L290.881 91.6L296.233 106L293.305 106ZM287.233 98.512L286.633 100.288L291.337 100.288L290.737 98.512C290.233 97.048 289.729 95.416 289.297 93.976L288.697 93.976C288.265 95.416 287.737 97.048 287.233 98.512ZM303.861 103.768L306.933 103.768L306.933 106L296.997 106L296.997 103.744L304.005 96.904L303.885 96.64C302.517 96.808 300.909 96.976 299.589 96.976L297.189 96.976L297.189 94.72L306.861 94.72L306.861 96.976L299.829 103.84L299.949 104.104C301.245 103.936 302.661 103.768 303.861 103.768ZM314.257 96.424C312.505 96.424 311.473 97.36 311.233 99.376L317.017 99.376C316.921 97.432 316.057 96.424 314.257 96.424ZM314.329 106.288C310.873 106.288 308.641 104.272 308.641 100.504C308.641 96.688 310.801 94.432 314.329 94.432C317.737 94.432 319.393 96.496 319.393 99.592C319.393 100.024 319.393 100.528 319.345 101.104L311.209 101.104C311.401 103.144 312.433 104.176 314.353 104.176C316.153 104.176 316.777 103.312 317.089 102.232L319.297 102.856C318.769 104.896 317.353 106.288 314.329 106.288ZM327.597 106L324.189 106L320.013 94.72L322.821 94.72L324.213 99.088C324.717 100.696 325.245 102.256 325.677 103.792L326.157 103.792C326.589 102.256 327.117 100.648 327.621 99.088L329.013 94.72L331.749 94.72L327.597 106ZM337.929 96.424C336.177 96.424 335.145 97.36 334.905 99.376L340.689 99.376C340.593 97.432 339.729 96.424 337.929 96.424ZM338.001 106.288C334.545 106.288 332.313 104.272 332.313 100.504C332.313 96.688 334.473 94.432 338.001 94.432C341.409 94.432 343.065 96.496 343.065 99.592C343.065 100.024 343.065 100.528 343.017 101.104L334.881 101.104C335.073 103.144 336.105 104.176 338.025 104.176C339.825 104.176 340.449 103.312 340.761 102.232L342.969 102.856C342.441 104.896 341.025 106.288 338.001 106.288ZM349.829 104.008C351.557 104.008 352.709 102.784 352.709 100.864L352.709 100C352.709 98.056 351.581 96.76 349.829 96.76C347.957 96.76 347.045 97.936 347.045 100.408C347.045 102.832 347.909 104.008 349.829 104.008ZM352.709 106L352.709 103.024L352.541 103.024C351.965 104.968 350.621 106.312 348.605 106.312C346.013 106.312 344.501 104.224 344.501 100.408C344.501 96.544 346.037 94.408 348.677 94.432C350.717 94.408 351.965 95.704 352.541 97.672L352.709 97.672L352.709 90.592L355.277 90.592L355.277 106L352.709 106ZM363.057 106.312C359.433 106.312 357.321 104.032 357.321 100.336C357.321 96.616 359.553 94.432 363.057 94.432C366.513 94.432 368.745 96.616 368.745 100.336C368.745 104.032 366.633 106.312 363.057 106.312ZM363.033 96.616C360.945 96.616 359.913 97.984 359.913 100.312C359.913 102.64 360.873 104.08 363.033 104.08C365.169 104.08 366.177 102.64 366.177 100.312C366.177 97.984 365.121 96.616 363.033 96.616ZM374.472 98.944L381.912 98.944L381.912 101.368L374.472 101.368L374.472 98.944ZM394.754 99.808L391.106 99.808L391.106 103.936L394.898 103.936C396.602 103.936 397.394 103.096 397.394 101.872C397.394 100.552 396.722 99.808 394.754 99.808ZM394.466 93.736L391.106 93.736L391.106 97.888L394.346 97.888C395.858 97.888 396.818 97.312 396.818 95.752C396.818 94.384 396.146 93.736 394.466 93.736ZM388.37 106L388.37 91.6L394.418 91.6C397.874 91.6 399.434 92.824 399.434 95.272C399.434 97.144 398.354 98.2 396.53 98.632L396.53 98.872C399.026 99.136 400.082 100.048 400.082 102.088C400.082 104.416 398.618 106 394.97 106L388.37 106ZM407 96.424C405.248 96.424 404.216 97.36 403.976 99.376L409.76 99.376C409.664 97.432 408.8 96.424 407 96.424ZM407.072 106.288C403.616 106.288 401.384 104.272 401.384 100.504C401.384 96.688 403.544 94.432 407.072 94.432C410.48 94.432 412.136 96.496 412.136 99.592C412.136 100.024 412.136 100.528 412.088 101.104L403.952 101.104C404.144 103.144 405.176 104.176 407.096 104.176C408.896 104.176 409.52 103.312 409.832 102.232L412.04 102.856C411.512 104.896 410.096 106.288 407.072 106.288ZM416.883 90.592L416.883 106L414.291 106L414.291 90.592L416.883 90.592ZM423.401 104.224C425.201 104.224 426.401 103.168 426.401 101.752L426.401 101.296L423.473 101.296C422.177 101.296 421.433 101.776 421.433 102.712C421.433 103.528 421.937 104.224 423.401 104.224ZM426.521 106L426.521 103.312L426.257 103.312C425.681 105.136 424.385 106.24 422.393 106.24C420.377 106.24 418.961 105.28 418.961 103.072C418.961 101.056 420.185 99.592 423.041 99.592L426.401 99.592L426.401 98.824C426.401 97.36 425.801 96.52 424.217 96.52C422.897 96.52 422.129 97.192 421.841 98.512L419.393 97.96C419.825 95.824 421.433 94.456 424.313 94.456C427.577 94.456 428.969 95.992 428.969 98.8L428.969 106L426.521 106ZM134.856 136L131.232 136L125.88 121.6L128.808 121.6L131.352 129.088C131.856 130.552 132.384 132.184 132.792 133.624L133.368 133.624C133.8 132.184 134.328 130.552 134.832 129.088L137.4 121.6L140.208 121.6L134.856 136ZM144.286 122.8L141.478 122.8L141.478 120.712L144.286 120.712L144.286 122.8ZM144.166 136L141.574 136L141.574 124.72L144.166 124.72L144.166 136ZM151.496 136.312C147.848 136.312 146.648 134.824 146.24 132.664L148.568 132.184C148.928 133.552 149.72 134.416 151.544 134.416C152.912 134.416 153.632 133.936 153.632 132.976C153.632 132.088 153.008 131.656 150.776 131.248C147.776 130.648 146.72 129.64 146.72 127.768C146.72 125.728 148.208 124.432 151.208 124.432C154.304 124.432 155.36 125.704 155.816 127.696L153.488 128.2C153.176 126.808 152.504 126.28 151.16 126.28C149.84 126.28 149.168 126.784 149.168 127.624C149.168 128.416 149.648 128.968 151.784 129.352C155.12 129.976 156.128 131.104 156.128 132.88C156.128 134.968 154.736 136.312 151.496 136.312ZM158.765 132.568L158.765 126.808L157.181 126.808L157.181 124.72L158.765 124.72L158.765 121.672L161.357 121.672L161.357 124.72L164.669 124.72L164.669 126.808L161.357 126.808L161.357 132.208C161.357 133.312 161.765 133.888 162.893 133.888C163.469 133.888 163.973 133.768 164.525 133.6L164.837 135.904C163.997 136.168 163.421 136.312 162.293 136.312C159.821 136.312 158.765 134.68 158.765 132.568ZM170.44 134.224C172.24 134.224 173.44 133.168 173.44 131.752L173.44 131.296L170.512 131.296C169.216 131.296 168.472 131.776 168.472 132.712C168.472 133.528 168.976 134.224 170.44 134.224ZM173.56 136L173.56 133.312L173.296 133.312C172.72 135.136 171.424 136.24 169.432 136.24C167.416 136.24 166 135.28 166 133.072C166 131.056 167.224 129.592 170.08 129.592L173.44 129.592L173.44 128.824C173.44 127.36 172.84 126.52 171.256 126.52C169.936 126.52 169.168 127.192 168.88 128.512L166.432 127.96C166.864 125.824 168.472 124.456 171.352 124.456C174.616 124.456 176.008 125.992 176.008 128.8L176.008 136L173.56 136ZM178.457 132.688L181.097 132.688L178.625 139.384L176.729 139.384L176.729 139.24L178.457 132.688ZM193.218 136.312C188.874 136.288 187.218 134.272 186.858 131.608L189.474 131.056C189.834 133.096 191.13 134.08 193.314 134.08C195.306 134.08 196.218 133.36 196.218 132.184C196.218 130.96 195.426 130.336 192.594 129.856C188.658 129.208 187.41 127.696 187.41 125.44C187.41 122.872 189.234 121.288 192.93 121.288C196.626 121.288 198.138 123.016 198.618 125.536L195.906 126.064C195.522 124.36 194.802 123.472 192.786 123.472C190.962 123.472 190.098 124.144 190.098 125.296C190.098 126.328 190.65 127.048 193.674 127.6C197.97 128.392 198.954 129.952 198.954 132.016C198.954 134.656 197.274 136.312 193.218 136.312ZM204.87 134.224C206.67 134.224 207.87 133.168 207.87 131.752L207.87 131.296L204.942 131.296C203.646 131.296 202.902 131.776 202.902 132.712C202.902 133.528 203.406 134.224 204.87 134.224ZM207.99 136L207.99 133.312L207.726 133.312C207.15 135.136 205.854 136.24 203.862 136.24C201.846 136.24 200.43 135.28 200.43 133.072C200.43 131.056 201.654 129.592 204.51 129.592L207.87 129.592L207.87 128.824C207.87 127.36 207.27 126.52 205.686 126.52C204.366 126.52 203.598 127.192 203.31 128.512L200.862 127.96C201.294 125.824 202.902 124.456 205.782 124.456C209.046 124.456 210.438 125.992 210.438 128.8L210.438 136L207.99 136ZM203.982 119.176C205.854 119.176 206.19 121.408 207.222 121.408C207.942 121.408 208.11 120.712 208.086 119.296L209.286 119.296C209.334 119.68 209.358 120.04 209.358 120.376C209.358 122.296 208.59 123.208 207.39 123.208C205.686 123.208 205.326 121 204.174 121C203.454 121 203.262 121.576 203.286 123.064L202.086 123.064C202.038 122.656 202.014 122.32 202.014 121.984C202.014 120.088 202.806 119.176 203.982 119.176ZM218.12 136.312C214.496 136.312 212.384 134.032 212.384 130.336C212.384 126.616 214.616 124.432 218.12 124.432C221.576 124.432 223.807 126.616 223.807 130.336C223.807 134.032 221.696 136.312 218.12 136.312ZM218.096 126.616C216.008 126.616 214.976 127.984 214.976 130.312C214.976 132.64 215.936 134.08 218.096 134.08C220.232 134.08 221.24 132.64 221.24 130.312C221.24 127.984 220.184 126.616 218.096 126.616ZM236.039 123.928L233.231 123.928L233.231 128.992L236.063 128.992C238.079 128.992 238.919 128.2 238.919 126.472C238.919 124.72 238.175 123.928 236.039 123.928ZM236.375 131.248L233.231 131.248L233.231 136L230.495 136L230.495 121.6L236.279 121.6C239.855 121.6 241.607 123.232 241.607 126.448C241.607 129.184 239.759 131.248 236.375 131.248ZM247.104 134.224C248.904 134.224 250.104 133.168 250.104 131.752L250.104 131.296L247.176 131.296C245.88 131.296 245.136 131.776 245.136 132.712C245.136 133.528 245.64 134.224 247.104 134.224ZM250.224 136L250.224 133.312L249.96 133.312C249.384 135.136 248.088 136.24 246.096 136.24C244.08 136.24 242.664 135.28 242.664 133.072C242.664 131.056 243.888 129.592 246.744 129.592L250.104 129.592L250.104 128.824C250.104 127.36 249.504 126.52 247.92 126.52C246.6 126.52 245.832 127.192 245.544 128.512L243.096 127.96C243.528 125.824 245.136 124.456 248.016 124.456C251.28 124.456 252.672 125.992 252.672 128.8L252.672 136L250.224 136ZM262.873 136L262.873 133.024L262.633 133.024C262.009 135.112 260.569 136.312 258.697 136.312C256.321 136.312 255.193 134.704 255.193 132.256L255.193 124.72L257.785 124.72L257.785 131.584C257.785 132.952 258.385 133.96 259.921 133.96C261.673 133.96 262.801 132.808 262.801 131.104L262.801 124.72L265.393 124.72L265.393 136L262.873 136ZM270.75 120.592L270.75 136L268.158 136L268.158 120.592L270.75 120.592ZM278.588 136.312C274.964 136.312 272.852 134.032 272.852 130.336C272.852 126.616 275.084 124.432 278.588 124.432C282.044 124.432 284.276 126.616 284.276 130.336C284.276 134.032 282.164 136.312 278.588 136.312ZM278.564 126.616C276.476 126.616 275.444 127.984 275.444 130.312C275.444 132.64 276.404 134.08 278.564 134.08C280.7 134.08 281.708 132.64 281.708 130.312C281.708 127.984 280.652 126.616 278.564 126.616ZM290.003 128.944L297.443 128.944L297.443 131.368L290.003 131.368L290.003 128.944ZM309.445 136.312C305.101 136.288 303.445 134.272 303.085 131.608L305.701 131.056C306.061 133.096 307.357 134.08 309.541 134.08C311.533 134.08 312.445 133.36 312.445 132.184C312.445 130.96 311.653 130.336 308.821 129.856C304.885 129.208 303.637 127.696 303.637 125.44C303.637 122.872 305.461 121.288 309.157 121.288C312.853 121.288 314.365 123.016 314.845 125.536L312.133 126.064C311.749 124.36 311.029 123.472 309.013 123.472C307.189 123.472 306.325 124.144 306.325 125.296C306.325 126.328 306.877 127.048 309.901 127.6C314.197 128.392 315.181 129.952 315.181 132.016C315.181 134.656 313.501 136.312 309.445 136.312ZM322.968 123.928L320.16 123.928L320.16 128.992L322.992 128.992C325.008 128.992 325.848 128.2 325.848 126.472C325.848 124.72 325.104 123.928 322.968 123.928ZM323.304 131.248L320.16 131.248L320.16 136L317.424 136L317.424 121.6L323.208 121.6C326.784 121.6 328.536 123.232 328.536 126.448C328.536 129.184 326.688 131.248 323.304 131.248ZM329.62 133.072L332.62 133.072L332.62 136L329.62 136L329.62 133.072Z" fill="white"/>
<defs>
<filter id="filter0_b_272_4019" x="-187" y="-30" width="719" height="249" filterUnits="userSpaceOnUse" color-interpolation-filters="sRGB">
<feFlood flood-opacity="0" result="BackgroundImageFix"/>
<feGaussianBlur in="BackgroundImageFix" stdDeviation="15"/>
<feComposite in2="SourceAlpha" operator="in" result="effect1_backgroundBlur_272_4019"/>
<feBlend mode="normal" in="SourceGraphic" in2="effect1_backgroundBlur_272_4019" result="shape"/>
</filter>
<linearGradient id="paint0_linear_272_4019" x1="7.50003" y1="-5.36429e-05" x2="502" y2="189" gradientUnits="userSpaceOnUse">
<stop stop-color="#323232"/>
<stop offset="1"/>
</linearGradient>
<linearGradient id="paint1_linear_272_4019" x1="-157" y1="0" x2="510.429" y2="151.985" gradientUnits="userSpaceOnUse">
<stop stop-color="#02FF85"/>
<stop offset="1" stop-color="#19FF0A"/>
</linearGradient>
</defs>
</svg>
