<svg width="36" height="37" viewBox="0 0 36 37" fill="none" xmlns="http://www.w3.org/2000/svg">
<g id="Facebook - Negative">
<path id="Vector" d="M36 18.9341C36 8.99295 27.9411 0.934082 18 0.934082C8.05887 0.934082 0 8.99295 0 18.9341C0 27.9183 6.5823 35.3651 15.1875 36.7154V24.1372H10.6172V18.9341H15.1875V14.9685C15.1875 10.4572 17.8748 7.96533 21.9864 7.96533C23.9551 7.96533 26.0156 8.31689 26.0156 8.31689V12.7466H23.7459C21.51 12.7466 20.8125 14.1342 20.8125 15.5591V18.9341H25.8047L25.0066 24.1372H20.8125V36.7154C29.4177 35.3651 36 27.9183 36 18.9341Z" fill="url(#paint0_linear_272_1810)"/>
</g>
<defs>
<linearGradient id="paint0_linear_272_1810" x1="0" y1="0.934082" x2="38.1862" y2="3.44321" gradientUnits="userSpaceOnUse">
<stop stop-color="#02FF85"/>
<stop offset="1" stop-color="#19FF0A"/>
</linearGradient>
</defs>
</svg>
