<svg width="12" height="12" viewBox="0 0 12 12" fill="none" xmlns="http://www.w3.org/2000/svg">
<path d="M0 1.33333H1.33333V0C0.6 0 0 0.6 0 1.33333ZM0 6.66667H1.33333V5.33333H0V6.66667ZM2.66667 12H4V10.6667H2.66667V12ZM0 4H1.33333V2.66667H0V4ZM6.66667 0H5.33333V1.33333H6.66667V0ZM10.6667 0V1.33333H12C12 0.6 11.4 0 10.6667 0ZM1.33333 12V10.6667H0C0 11.4 0.6 12 1.33333 12ZM0 9.33333H1.33333V8H0V9.33333ZM4 0H2.66667V1.33333H4V0ZM5.33333 12H6.66667V10.6667H5.33333V12ZM10.6667 6.66667H12V5.33333H10.6667V6.66667ZM10.6667 12C11.4 12 12 11.4 12 10.6667H10.6667V12ZM10.6667 4H12V2.66667H10.6667V4ZM10.6667 9.33333H12V8H10.6667V9.33333ZM8 12H9.33333V10.6667H8V12ZM8 1.33333H9.33333V0H8V1.33333ZM2.66667 9.33333H9.33333V2.66667H2.66667V9.33333ZM4 4H8V8H4V4Z" fill="url(#paint0_linear_272_3453)"/>
<defs>
<linearGradient id="paint0_linear_272_3453" x1="0" y1="0" x2="12.7294" y2="0.831341" gradientUnits="userSpaceOnUse">
<stop stop-color="#02FF85"/>
<stop offset="1" stop-color="#19FF0A"/>
</linearGradient>
</defs>
</svg>
