<svg width="28" height="29" viewBox="0 0 28 29" fill="none" xmlns="http://www.w3.org/2000/svg">
<g id="Github - Negative">
<path id="Vector" fill-rule="evenodd" clip-rule="evenodd" d="M14.0009 1.20483C10.6773 1.20654 7.46274 2.3716 4.93194 4.49169C2.40113 6.61178 0.719144 9.54865 0.186725 12.7772C-0.345693 16.0057 0.306171 19.3153 2.02577 22.1142C3.74537 24.9131 6.42057 27.0189 9.57301 28.0549C10.2685 28.1826 10.5305 27.756 10.5305 27.3932C10.5305 27.0305 10.5165 25.9788 10.5119 24.8289C6.61722 25.6616 5.79424 23.2023 5.79424 23.2023C5.15904 21.6053 4.241 21.1855 4.241 21.1855C2.97059 20.3323 4.33606 20.3482 4.33606 20.3482C5.74324 20.4463 6.48277 21.7696 6.48277 21.7696C7.73 23.8753 9.75847 23.2662 10.5559 22.9103C10.6811 22.0182 11.0451 21.4114 11.4462 21.0669C8.33506 20.7201 5.0663 19.5383 5.0663 14.2591C5.04702 12.89 5.56328 11.5659 6.50827 10.5609C6.36454 10.2142 5.88465 8.81337 6.64504 6.91067C6.64504 6.91067 7.82041 6.54108 10.4957 8.32286C12.7904 7.70532 15.2114 7.70532 17.5061 8.32286C20.1791 6.54108 21.3521 6.91067 21.3521 6.91067C22.1148 8.80881 21.6349 10.2096 21.4912 10.5609C22.4392 11.5661 22.9565 12.8925 22.9355 14.2637C22.9355 19.5543 19.6598 20.7201 16.544 21.06C17.0448 21.4889 17.4922 22.3262 17.4922 23.6129C17.4922 25.4563 17.476 26.9392 17.476 27.3932C17.476 27.7606 17.7287 28.1895 18.438 28.0549C21.5909 27.0187 24.2663 24.9126 25.9859 22.1132C27.7055 19.3138 28.357 16.0037 27.824 12.7749C27.2909 9.5461 25.6081 6.6092 23.0765 4.48948C20.5448 2.36975 17.3295 1.20546 14.0055 1.20483H14.0009Z" fill="#03FF7F"/>
<path id="Vector_2" d="M9.36605 23.6928C9.36605 23.8046 9.23623 23.9004 9.06932 23.9027C8.9024 23.905 8.76562 23.8137 8.76562 23.7019C8.76562 23.5901 8.89544 23.4943 9.06236 23.492C9.22927 23.4898 9.36605 23.5787 9.36605 23.6928Z" fill="white"/>
<path id="Vector_3" d="M10.4321 23.5171C10.453 23.6289 10.3371 23.7453 10.1702 23.7726C10.0033 23.8 9.8572 23.7338 9.83633 23.6243C9.81547 23.5148 9.93602 23.3962 10.0983 23.3665C10.2606 23.3369 10.4113 23.4053 10.4321 23.5171Z" fill="white"/>
<path id="Vector_4" d="M8.21989 23.6152C8.18511 23.7224 8.02747 23.7704 7.86983 23.7247C7.71218 23.6791 7.60786 23.5513 7.638 23.4418C7.66814 23.3323 7.8281 23.2821 7.98806 23.3323C8.14802 23.3825 8.25002 23.5034 8.21989 23.6152Z" fill="white"/>
<path id="Vector_5" d="M7.16957 23.168C7.09307 23.2525 6.93775 23.2296 6.81025 23.1156C6.68274 23.0015 6.65259 22.8464 6.7291 22.7642C6.8056 22.6821 6.96093 22.7049 7.09307 22.8167C7.22521 22.9285 7.25071 23.0859 7.16957 23.168Z" fill="white"/>
<path id="Vector_6" d="M6.42103 22.4015C6.33525 22.4608 6.18919 22.4015 6.10806 22.2829C6.08562 22.2616 6.06778 22.2361 6.05559 22.2078C6.0434 22.1796 6.03711 22.1493 6.03711 22.1186C6.03711 22.0879 6.0434 22.0576 6.05559 22.0294C6.06778 22.0011 6.08562 21.9756 6.10806 21.9543C6.19383 21.8973 6.33989 21.9543 6.42103 22.0707C6.50217 22.187 6.50449 22.3422 6.42103 22.4015Z" fill="white"/>
<path id="Vector_7" d="M5.86912 21.6098C5.82111 21.6336 5.76618 21.6403 5.71374 21.6286C5.6613 21.617 5.61461 21.5878 5.58165 21.546C5.49124 21.4501 5.47268 21.3178 5.54223 21.2585C5.61178 21.1992 5.73698 21.2266 5.82739 21.3224C5.9178 21.4182 5.93866 21.5505 5.86912 21.6098Z" fill="white"/>
<path id="Vector_8" d="M5.3028 20.9871C5.27266 21.0555 5.16138 21.076 5.07097 21.0281C4.98056 20.9802 4.91334 20.8912 4.94579 20.8205C4.97825 20.7498 5.08721 20.7315 5.17762 20.7795C5.26803 20.8274 5.33757 20.9186 5.3028 20.9871Z" fill="white"/>
</g>
</svg>
