<svg width="92" height="31" viewBox="0 0 92 31" fill="none" xmlns="http://www.w3.org/2000/svg">
<g id="Logo 4">
<path id="Vector" d="M38.9935 15.7888C38.9935 20.0623 35.6281 23.2113 31.498 23.2113C27.3678 23.2113 24.0024 20.0623 24.0024 15.7888C24.0024 11.4852 27.3678 8.36621 31.498 8.36621C35.6281 8.36621 38.9935 11.4852 38.9935 15.7888ZM35.7123 15.7888C35.7123 13.1183 33.7618 11.2911 31.498 11.2911C29.2341 11.2911 27.2836 13.1183 27.2836 15.7888C27.2836 18.4325 29.2341 20.2865 31.498 20.2865C33.7618 20.2865 35.7123 18.4292 35.7123 15.7888Z" fill="white"/>
<path id="Vector_2" d="M55.1639 15.7888C55.1639 20.0623 51.7985 23.2113 47.6684 23.2113C43.5383 23.2113 40.1729 20.0623 40.1729 15.7888C40.1729 11.4885 43.5383 8.36621 47.6684 8.36621C51.7985 8.36621 55.1639 11.4852 55.1639 15.7888ZM51.8827 15.7888C51.8827 13.1183 49.9322 11.2911 47.6684 11.2911C45.4046 11.2911 43.454 13.1183 43.454 15.7888C43.454 18.4325 45.4046 20.2865 47.6684 20.2865C49.9322 20.2865 51.8827 18.4292 51.8827 15.7888Z" fill="white"/>
<path id="Vector_3" d="M70.66 8.81464V22.1405C70.66 27.622 67.4057 29.8609 63.5586 29.8609C59.9372 29.8609 57.7576 27.4547 56.9356 25.487L59.7923 24.3056C60.301 25.5137 61.5474 26.9394 63.5552 26.9394C66.0178 26.9394 67.5439 25.4301 67.5439 22.5889V21.5213H67.4293C66.6949 22.4216 65.28 23.208 63.4946 23.208C59.7586 23.208 56.3359 19.9753 56.3359 15.8155C56.3359 11.6257 59.7586 8.36621 63.4946 8.36621C65.2767 8.36621 66.6916 9.15264 67.4293 10.0261H67.5439V8.81799H70.66V8.81464ZM67.7763 15.8155C67.7763 13.2019 66.0212 11.2911 63.7877 11.2911C61.5239 11.2911 59.6272 13.2019 59.6272 15.8155C59.6272 18.4024 61.5239 20.2865 63.7877 20.2865C66.0212 20.2865 67.7763 18.4024 67.7763 15.8155Z" fill="white"/>
<path id="Vector_4" d="M75.7975 1.00391V22.7562H72.5972V1.00391H75.7975Z" fill="white"/>
<path id="Vector_5" d="M88.2687 18.2319L90.8155 19.9185C89.9935 21.1266 88.0126 23.2082 84.59 23.2082C80.3453 23.2082 77.1753 19.9487 77.1753 15.7856C77.1753 11.3716 80.3723 8.36304 84.2228 8.36304C88.1002 8.36304 89.9969 11.4284 90.6167 13.085L90.957 13.9283L80.9685 18.0378C81.7332 19.527 82.9224 20.2867 84.59 20.2867C86.2609 20.2867 87.4197 19.4701 88.2687 18.2319ZM80.4295 15.5614L87.1064 12.8072C86.7393 11.8802 85.6343 11.2343 84.3339 11.2343C82.6664 11.2343 80.3453 12.6968 80.4295 15.5614Z" fill="white"/>
<path id="Vector_6" d="M11.8882 13.8578V10.7088H22.5706C22.675 11.2576 22.7289 11.9068 22.7289 12.6096C22.7289 14.9722 22.0788 17.8937 19.9834 19.9753C17.9453 22.0836 15.3412 23.208 11.8916 23.208C5.49766 23.208 0.121094 18.0343 0.121094 11.6826C0.121094 5.33093 5.49766 0.157227 11.8916 0.157227C15.4288 0.157227 17.9487 1.53599 19.8419 3.33307L17.605 5.55515C16.2474 4.29017 14.4081 3.30629 11.8882 3.30629C7.2191 3.30629 3.56735 7.04435 3.56735 11.6826C3.56735 16.3209 7.2191 20.0589 11.8882 20.0589C14.9168 20.0589 16.6416 18.8508 17.7465 17.7532C18.6426 16.863 19.2322 15.5913 19.4646 13.8545L11.8882 13.8578Z" fill="white"/>
</g>
</svg>
