<svg width="12" height="11" viewBox="0 0 12 11" fill="none" xmlns="http://www.w3.org/2000/svg">
<path d="M2.52632 4.27778C1.13053 4.27778 0 5.37167 0 6.72222C0 8.07278 1.13053 9.16667 2.52632 9.16667C3.92211 9.16667 5.05263 8.07278 5.05263 6.72222C5.05263 5.37167 3.92211 4.27778 2.52632 4.27778ZM2.52632 7.94444C1.83158 7.94444 1.26316 7.39444 1.26316 6.72222C1.26316 6.05 1.83158 5.5 2.52632 5.5C3.22105 5.5 3.78947 6.05 3.78947 6.72222C3.78947 7.39444 3.22105 7.94444 2.52632 7.94444ZM7.58526 7.33333C6.54316 7.33333 5.69053 8.15833 5.69053 9.16667C5.69053 10.175 6.54316 11 7.58526 11C8.62737 11 9.48 10.175 9.48 9.16667C9.48 8.15833 8.62737 7.33333 7.58526 7.33333ZM7.58526 9.77778C7.23789 9.77778 6.95368 9.50278 6.95368 9.16667C6.95368 8.83056 7.23789 8.55556 7.58526 8.55556C7.93263 8.55556 8.21684 8.83056 8.21684 9.16667C8.21684 9.50278 7.93263 9.77778 7.58526 9.77778ZM8.52632 0C6.61263 0 5.05263 1.50944 5.05263 3.36111C5.05263 5.21278 6.61263 6.72222 8.52632 6.72222C10.44 6.72222 12 5.21278 12 3.36111C12 1.50944 10.44 0 8.52632 0ZM8.52632 5.5C7.30737 5.5 6.31579 4.54056 6.31579 3.36111C6.31579 2.18167 7.30737 1.22222 8.52632 1.22222C9.74526 1.22222 10.7368 2.18167 10.7368 3.36111C10.7368 4.54056 9.74526 5.5 8.52632 5.5Z" fill="url(#paint0_linear_272_3442)"/>
<defs>
<linearGradient id="paint0_linear_272_3442" x1="0" y1="0" x2="12.7191" y2="0.906185" gradientUnits="userSpaceOnUse">
<stop stop-color="#02FF85"/>
<stop offset="1" stop-color="#19FF0A"/>
</linearGradient>
</defs>
</svg>
