<svg width="134" height="134" viewBox="0 0 134 134" fill="none" xmlns="http://www.w3.org/2000/svg">
<path d="M66.9851 99.1796L58.4611 90.6548C57.3128 89.5064 56.4244 88.1652 55.8125 86.6648C55.2258 85.223 54.9325 83.6975 54.9325 82.13C54.9325 81.0654 55.0749 80.0008 55.3431 78.9866C55.385 78.8189 55.4353 78.6513 55.494 78.4836C55.3264 78.5339 55.1588 78.5842 54.9911 78.6345C53.9686 78.9111 52.9125 79.0453 51.8481 79.0453C50.2891 79.0453 48.7636 78.7519 47.3136 78.1651C45.8133 77.5616 44.4723 76.6647 43.324 75.5163C42.1758 74.3679 41.2789 73.0267 40.6755 71.5263C40.0888 70.0845 39.7954 68.5506 39.7954 66.9915C39.7954 65.4323 40.0888 63.8984 40.6755 62.4566C41.237 61.0819 42.0333 59.833 43.0558 58.7432L43.0893 58.7097L67.0018 34.7949L75.8276 43.6215C76.8334 44.6945 77.6212 45.935 78.1744 47.3014C78.7611 48.7431 79.0545 50.2771 79.0545 51.8362C79.0545 52.9008 78.912 53.9653 78.6438 54.9796C78.6019 55.1472 78.5516 55.3149 78.5013 55.4825C78.6773 55.4322 78.8449 55.3819 79.0126 55.3316C80.0184 55.055 81.0744 54.9209 82.1473 54.9209C83.7146 54.9209 85.2401 55.2143 86.6817 55.8011C88.0395 56.3543 89.2799 57.1422 90.3612 58.1481L90.3947 58.1816L90.9562 58.7516C91.9704 59.8329 92.7667 61.0735 93.3198 62.4399C93.9066 63.8816 94.1999 65.4072 94.1999 66.9747C94.1999 68.5422 93.9066 70.0678 93.3198 71.5095C92.7164 73.01 91.8195 74.3512 90.6713 75.4995L75.6348 90.5374C75.6348 90.5374 75.5594 90.6129 75.5259 90.6464C75.4923 90.6799 75.4504 90.7218 75.4169 90.7554L67.0018 99.1712L66.9851 99.1796ZM60.1793 75.6923C59.3746 76.5389 58.746 77.5197 58.3102 78.601C58.1677 78.953 58.042 79.3135 57.9498 79.6907C57.7319 80.4786 57.6313 81.3001 57.6313 82.13C57.6313 83.3454 57.866 84.5357 58.3186 85.6505C58.7879 86.8157 59.4836 87.8551 60.3721 88.752L66.9935 95.374L73.5478 88.8191C73.5478 88.8191 73.5897 88.7771 73.6149 88.752C73.64 88.7268 73.6568 88.7101 73.6735 88.6849L73.7071 88.6514L88.7519 73.6051C89.6488 72.7082 90.336 71.6688 90.8138 70.512C91.2664 69.3888 91.5011 68.2069 91.5011 66.9915C91.5011 65.776 91.2664 64.5857 90.8138 63.4709C90.3863 62.4147 89.7745 61.4591 88.995 60.6209L88.4921 60.118C87.6623 59.3468 86.7068 58.7349 85.6591 58.3158C84.536 57.8631 83.3542 57.6284 82.1305 57.6284C81.3007 57.6284 80.4793 57.7374 79.6915 57.9469C79.3311 58.0391 78.9707 58.1649 78.6019 58.3074C77.5207 58.7432 76.5484 59.3719 75.7019 60.1766C75.6432 60.2437 75.5761 60.3107 75.5091 60.3694C75.442 60.4281 75.375 60.5035 75.3079 60.5622C75.3079 60.5622 75.2744 60.5957 75.2577 60.6125C75.2325 60.6377 75.2074 60.6544 75.1906 60.6796C75.1152 60.7299 75.0397 60.7802 74.9559 60.8221L74.562 60.0257L73.3131 58.7432L73.8496 58.1984C74.6207 57.3685 75.2325 56.413 75.66 55.3652C75.8108 55.0047 75.9282 54.6359 76.0204 54.2838C76.2383 53.4875 76.3472 52.6661 76.3472 51.8362C76.3472 50.6208 76.1126 49.4305 75.66 48.3072C75.2325 47.2595 74.629 46.3039 73.8579 45.474L66.9851 38.6005L45.0003 60.5874C44.2125 61.4256 43.6006 62.3896 43.1648 63.4541C42.7122 64.5773 42.4775 65.7593 42.4775 66.9747C42.4775 68.1901 42.7122 69.3804 43.1648 70.5037C43.6341 71.6604 44.3298 72.7082 45.2183 73.5967C46.1151 74.4937 47.1544 75.1894 48.311 75.6588C49.4342 76.1114 50.6243 76.3461 51.8397 76.3461C52.6694 76.3461 53.4908 76.2372 54.2787 76.0276C54.6475 75.927 55.0163 75.8013 55.3683 75.6588C56.4076 75.2397 57.3631 74.6278 58.1929 73.865L58.746 73.3117L60.6822 75.1894L60.6654 75.2145C60.6654 75.2145 60.5984 75.2816 60.5648 75.3151C60.5565 75.3235 60.5481 75.3319 60.5313 75.3486C60.481 75.4073 60.4223 75.466 60.3637 75.5163C60.305 75.575 60.2463 75.6337 60.1877 75.6923H60.1793ZM68.3345 73.6889H65.6357C65.6357 73.0603 65.5267 72.4484 65.3255 71.87C65.0573 71.124 64.6383 70.4618 64.0683 69.9001C63.4984 69.3301 62.8362 68.911 62.0903 68.6428C61.5119 68.4332 60.9001 68.3326 60.2715 68.3326V65.6335C60.9001 65.6335 61.5119 65.5246 62.0903 65.3234C62.8362 65.0551 63.4984 64.636 64.0683 64.066L64.0851 64.0493C64.6466 63.4793 65.0657 62.8171 65.3255 62.0878C65.5351 61.501 65.6357 60.8975 65.6357 60.2688H68.3345C68.3345 60.8891 68.4435 61.501 68.6446 62.0878C68.9128 62.8338 69.3319 63.496 69.9018 64.0576L70.0024 64.1582C70.5472 64.6779 71.1842 65.0719 71.8799 65.3234C72.4582 65.5329 73.0701 65.6335 73.6987 65.6335V68.3326C73.0701 68.3326 72.4582 68.4416 71.8799 68.6428C71.1423 68.911 70.4718 69.3301 69.9102 69.9001L69.818 69.9923C69.2984 70.5372 68.9044 71.1742 68.6446 71.8784C68.4351 72.4567 68.3345 73.0687 68.3345 73.6889ZM64.7472 66.9747C65.1831 67.2681 65.5937 67.6034 65.9709 67.9806C66.3565 68.3662 66.6917 68.7769 66.9851 69.2212C67.2784 68.7853 67.6137 68.3745 67.9993 67.989L68.3932 67.595H68.4267C68.6865 67.3687 68.9547 67.1675 69.2313 66.9747C68.7955 66.6813 68.3848 66.346 67.9993 65.9604L67.6053 65.5665V65.5413C67.379 65.2815 67.1779 65.0132 66.9851 64.7366C66.6917 65.1725 66.3565 65.5832 65.9793 65.9604L65.9625 65.9772C65.5854 66.3544 65.1747 66.6897 64.7472 66.9747Z" fill="#03FF7F"/>
<path d="M69.223 13.0765L69.1141 15.038L67.5132 14.9458L67.8904 8.27344L70.673 8.4327C72.4415 8.53329 73.2378 9.39667 73.154 10.9642C73.0785 12.2634 72.1063 13.2525 70.4635 13.152L69.2314 13.0849L69.223 13.0765ZM69.4158 9.7152L69.2985 11.7773L70.3545 11.8359C71.1759 11.8862 71.528 11.5677 71.5699 10.8636C71.6118 10.1595 71.3184 9.82417 70.4467 9.77388L69.4158 9.7152Z" fill="#03FF7F"/>
<path d="M74.4194 15.5072L75.3079 10.3018L76.7244 10.5448L76.4394 12.2381L76.5567 12.2548C77.135 10.8634 77.6212 10.6371 78.3084 10.7544L78.4593 10.7796L78.166 12.4895L77.8559 12.4393C76.8166 12.2632 76.4645 12.5147 76.3053 13.4368L75.9113 15.7503L74.4194 15.4988V15.5072Z" fill="#03FF7F"/>
<path d="M79.5828 13.8729C80.0857 12.1126 81.3345 11.3582 82.9857 11.836C84.5531 12.2802 85.0224 13.4202 84.6201 14.8201C84.5614 15.038 84.486 15.2308 84.3938 15.499L80.9574 14.5099C80.8065 15.3482 81.0831 15.8176 81.7788 16.0187C82.4661 16.2115 82.7678 15.9517 83.0109 15.608L84.134 16.287C83.6562 17.1001 82.8767 17.5946 81.4351 17.1839C79.9013 16.748 79.0967 15.5996 79.5912 13.8729H79.5828ZM81.1753 13.7723L83.2958 14.3758C83.5054 13.5795 83.279 13.0933 82.6253 12.9089C81.9631 12.7161 81.4854 12.9508 81.1753 13.7723Z" fill="#03FF7F"/>
<path d="M86.7237 18.8018L85.3491 18.1563L87.5954 13.3784L88.9364 14.0071L88.333 15.2896L88.4335 15.3399C89.1376 14.5436 89.9422 14.3256 90.6965 14.6777C91.5431 15.0716 91.7023 15.8009 91.3419 16.7314L91.4509 16.7816C92.1549 15.9686 92.926 15.7255 93.7139 16.0943C94.6526 16.5386 94.8286 17.3936 94.3425 18.433L92.8255 21.6685L91.4425 21.0231L92.7836 18.1731C93.0099 17.6869 92.9428 17.2511 92.4399 17.0163C91.8532 16.7397 91.3 16.9828 91.015 17.578L89.7662 20.2435L88.3916 19.5981L89.7327 16.7481C89.959 16.2619 89.8835 15.8261 89.389 15.5914C88.8023 15.3147 88.2408 15.5578 87.9558 16.153L86.707 18.8186L86.7237 18.8018Z" fill="#03FF7F"/>
<path d="M94.4014 22.7919L97.2511 18.3492L98.5251 19.1707L95.6754 23.6133L94.4014 22.7919ZM97.6283 17.7038L98.215 16.7817L99.5476 17.6367L98.9609 18.5588L97.6283 17.7038Z" fill="#03FF7F"/>
<path d="M100.863 25.7005L100.779 25.6334C99.9077 26.2537 99.0696 26.2705 98.4158 25.7508C97.6279 25.1305 97.6698 24.2503 98.3823 23.3534L100.603 20.5537L101.794 21.4925L99.8407 23.9653C99.5054 24.3928 99.4635 24.8371 99.8993 25.1808C100.402 25.5831 101.006 25.4741 101.416 24.9461L103.244 22.6409L104.442 23.5881L101.165 27.729L99.9999 26.8069L100.872 25.7088L100.863 25.7005Z" fill="#03FF7F"/>
<path d="M103.629 30.0172L102.606 28.9023L106.504 25.3398L107.501 26.4295L106.454 27.3851L106.529 27.469C107.493 26.9995 108.314 27.1085 108.876 27.7288C109.504 28.4162 109.379 29.1538 108.691 29.8747L108.775 29.9669C109.739 29.4807 110.544 29.5562 111.13 30.2016C111.826 30.9644 111.667 31.8278 110.82 32.5989L108.18 35.0131L107.149 33.8898L109.479 31.7607C109.873 31.4003 109.982 30.9728 109.605 30.562C109.169 30.0842 108.566 30.101 108.08 30.5369L105.909 32.5235L104.886 31.4087L107.216 29.2795C107.61 28.9191 107.711 28.4832 107.342 28.0809C106.906 27.6031 106.294 27.6115 105.808 28.0473L103.637 30.034L103.629 30.0172Z" fill="#03FF7F"/>
<path d="M116.746 35.7339L118.146 38.2234C119.294 40.2771 118.783 41.7524 116.956 42.775C115.112 43.8145 113.352 43.345 112.304 41.4758L110.921 39.0114L116.754 35.7423L116.746 35.7339ZM116.377 37.7792L112.849 39.7574L113.385 40.7214C114.064 41.9368 114.944 42.0625 116.168 41.3752C117.4 40.6795 117.584 39.9334 116.889 38.6928L116.377 37.7792Z" fill="#03FF7F"/>
<path d="M114.592 46.0356L119.454 43.9736L120.04 45.365L115.179 47.4271L114.592 46.0272V46.0356ZM120.132 43.655L121.138 43.2275L121.758 44.6861L120.753 45.1136L120.132 43.655Z" fill="#03FF7F"/>
<path d="M114.71 51.9034C114.106 49.9755 114.333 49.3133 114.961 49.1205C115.422 48.978 115.883 49.3803 116.235 50.0174L116.302 50.0006C116.21 49.439 116.403 49.1205 116.746 49.0115C117.031 48.9193 117.358 49.0618 117.668 49.4222L117.979 49.7324C117.987 48.9025 118.389 48.3241 119.177 48.0727C120.3 47.7206 121.197 48.3744 121.641 49.8078L122.438 52.356L121.356 52.6913L121.18 52.1381C121.105 51.895 121.013 51.5681 120.929 51.1574L120.812 51.1825C120.887 51.8447 120.82 52.4482 120.242 52.6327C119.403 52.8925 118.607 52.2638 118.171 50.8556C118.079 50.5455 118.02 50.2521 117.995 49.9922L117.828 49.9503C117.719 49.9252 117.61 49.9168 117.518 49.9419C117.333 50.0006 117.3 50.1515 117.4 50.47C117.576 51.0233 117.786 51.5849 117.945 52.1046C118.297 53.2194 117.962 53.8816 117.149 54.1415C116.093 54.4684 115.347 53.9487 114.71 51.9034ZM116.755 53.035C116.998 52.9596 117.115 52.7332 116.99 52.3309L116.453 50.6209C116.311 50.1766 116.017 49.9755 115.774 50.0509C115.431 50.1599 115.372 50.47 115.749 51.6855C116.135 52.9177 116.403 53.1524 116.755 53.0434V53.035ZM119.521 49.3719C119.118 49.4977 118.884 49.8413 119.11 50.5622C119.336 51.2999 119.73 51.4508 120.133 51.325C120.543 51.1993 120.753 50.8053 120.535 50.1096C120.309 49.3971 119.923 49.2378 119.521 49.3635V49.3719Z" fill="#03FF7F"/>
<path d="M117.735 55.5834L122.907 54.502L123.217 55.9857L118.045 57.067L117.735 55.5834ZM123.628 54.3176L124.692 54.0913L125.019 55.642L123.946 55.8684L123.619 54.3176H123.628Z" fill="#03FF7F"/>
<path d="M122.479 58.8359L122.404 58.1904L123.594 58.0396L123.669 58.6766L125.019 58.509L125.203 60.0094L123.854 60.177L124.021 61.5601L122.831 61.711L122.664 60.3279L120.51 60.5962C120.09 60.6465 119.898 60.8309 119.956 61.2835C119.981 61.5182 120.082 61.7613 120.174 61.9541L118.85 62.2894C118.682 61.9038 118.565 61.6523 118.498 61.074C118.347 59.8585 119.093 59.2466 120.082 59.1293L122.479 58.8275V58.8359Z" fill="#03FF7F"/>
<path d="M120.25 67.0253V66.8912C119.412 66.6397 118.867 66.0864 118.85 65.1895C118.833 64.301 119.286 63.6304 120.317 63.6137C121.264 63.5969 121.926 64.1417 121.951 65.5332L121.976 66.9163H122.345C122.89 66.8995 123.2 66.6648 123.192 66.0864C123.192 65.5835 122.932 65.2985 122.421 65.2063L122.722 63.7729C123.686 63.9322 124.374 64.6614 124.399 66.12C124.424 67.721 123.703 68.3916 122.379 68.4167L119.026 68.467L119.001 67.042L120.258 67.0253H120.25ZM121.021 66.9331H121.23L121.214 65.835C121.214 65.3488 120.979 65.0386 120.61 65.0386C120.275 65.0386 120.015 65.2398 120.023 65.8182C120.032 66.5056 120.451 66.9331 121.021 66.9247V66.9331Z" fill="#03FF7F"/>
<path d="M118.75 71.9458L118.867 70.437L126 71.007L125.882 72.5158L118.75 71.9458Z" fill="#03FF7F"/>
<path d="M121.448 77.4445C123.577 77.9809 124.507 79.5317 124.013 81.5015C123.585 83.2115 122.42 84.0078 120.761 83.7983L120.845 82.2476C121.842 82.3146 122.446 82.0212 122.664 81.1243C122.949 79.9759 122.194 79.2802 121.063 78.9952C119.78 78.6683 118.867 78.9617 118.582 80.0849C118.339 81.0321 118.749 81.5518 119.663 81.9877L119.043 83.3959C117.475 82.7924 116.805 81.4848 117.232 79.758C117.735 77.7462 119.303 76.9164 121.44 77.4529L121.448 77.4445Z" fill="#03FF7F"/>
<path d="M118.615 85.0977C120.241 85.7599 120.795 87.1179 120.166 88.677C119.546 90.2026 118.196 90.7977 116.562 90.1355C114.953 89.4817 114.358 88.1321 114.995 86.573C115.64 84.9888 117.006 84.4439 118.615 85.1061V85.0977ZM118.054 86.506C117.165 86.1455 116.52 86.2545 116.193 87.0508C115.875 87.8388 116.252 88.3752 117.14 88.7357C118.029 89.0961 118.674 88.962 118.984 88.1908C119.294 87.4196 118.934 86.8664 118.045 86.506H118.054Z" fill="#03FF7F"/>
<path d="M112.631 91.921L113.385 90.605L117.97 93.2203L117.232 94.5112L116 93.807L115.95 93.8909C116.688 94.6704 116.83 95.4919 116.419 96.2128C115.917 97.0929 115.053 97.1935 114.056 96.6235L110.946 94.8548L111.701 93.5388L114.441 95.0979C114.902 95.3661 115.347 95.3326 115.623 94.8464C115.942 94.2848 115.749 93.6981 115.179 93.3712L112.623 91.9126L112.631 91.921Z" fill="#03FF7F"/>
<path d="M111.315 97.0594L110.728 98.3167C110.184 98.0736 109.731 98.1826 109.337 98.7107C109.027 99.1214 109.01 99.4232 109.278 99.6411C109.538 99.8339 109.806 99.7752 110.536 99.1046C111.65 98.1323 112.329 98.0233 113.05 98.5682C113.863 99.1717 113.913 100.119 113.017 101.309C112.095 102.541 111.315 102.583 110.46 102.181L111.047 100.932C111.558 101.158 111.877 101.091 112.203 100.655C112.505 100.253 112.514 99.9596 112.271 99.7668C112.036 99.5908 111.784 99.5824 111.064 100.228C109.798 101.343 109.119 101.334 108.465 100.84C107.644 100.228 107.552 99.3058 108.507 98.0317C109.572 96.6067 110.469 96.5899 111.323 97.051L111.315 97.0594Z" fill="#03FF7F"/>
<path d="M104.87 104.62L104.945 104.536C104.417 103.606 104.476 102.776 105.054 102.172C105.75 101.451 106.622 101.569 107.443 102.365L110.024 104.838L108.977 105.928L106.705 103.748C106.311 103.371 105.876 103.296 105.49 103.698C105.046 104.167 105.096 104.771 105.574 105.232L107.694 107.269L106.638 108.367L102.825 104.712L103.847 103.639L104.861 104.612L104.87 104.62Z" fill="#03FF7F"/>
<path d="M100.193 107.001L101.341 106.012L105.993 111.452L104.845 112.441L100.193 107.001Z" fill="#03FF7F"/>
<path d="M100.805 111.728L101.324 111.351L102.029 112.324L101.509 112.701L102.305 113.799L101.081 114.687L100.285 113.589L99.1536 114.402L98.4496 113.43L99.5811 112.617L98.3071 110.857C98.0557 110.513 97.8126 110.429 97.4354 110.697C97.2427 110.832 97.075 111.041 96.9577 111.209L96.0273 110.203C96.2788 109.868 96.4548 109.65 96.9242 109.306C97.9132 108.585 98.81 108.945 99.3967 109.759L100.813 111.72L100.805 111.728Z" fill="#03FF7F"/>
<path d="M92.5486 113.715L92.666 113.648C92.4816 112.793 92.7079 112.047 93.4874 111.603C94.2585 111.158 95.0631 111.234 95.5743 112.131C96.0437 112.952 95.8845 113.799 94.6692 114.486L93.4706 115.165L93.655 115.484C93.9232 115.962 94.2836 116.112 94.7865 115.827C95.2223 115.576 95.3564 115.224 95.1888 114.729L96.5885 114.302C96.907 115.224 96.6053 116.179 95.3397 116.9C93.9483 117.697 93.0096 117.378 92.3558 116.23L90.6963 113.313L91.9368 112.609L92.557 113.707L92.5486 113.715ZM92.9928 114.344L93.0934 114.528L94.0405 113.992C94.468 113.749 94.6272 113.405 94.4428 113.078C94.2752 112.785 93.9819 112.65 93.479 112.935C92.8755 113.279 92.7079 113.849 92.9845 114.344H92.9928Z" fill="#03FF7F"/>
<path d="M87.5872 114.738L88.9869 114.159L90.9985 119.046L89.6239 119.608L89.0875 118.3L88.9953 118.342C89.0958 119.407 88.7019 120.153 87.9392 120.463C87.0005 120.848 86.2629 120.396 85.827 119.331L84.4692 116.02L85.869 115.442L87.0675 118.359C87.2687 118.853 87.6375 119.096 88.1487 118.887C88.7438 118.644 88.9533 118.065 88.7019 117.453L87.5872 114.729V114.738Z" fill="#03FF7F"/>
<path d="M81.418 121.2C82.0969 121.016 82.3986 120.48 82.1388 119.507C81.8957 118.602 81.3928 118.174 80.6385 118.376C79.9847 118.552 79.8506 119.055 79.8841 119.616L78.4509 119.65C78.3084 118.417 78.8281 117.487 80.2864 117.093C81.9041 116.666 83.1529 117.286 83.6139 119.029C84.0749 120.765 83.3624 122.047 81.7364 122.483C80.2194 122.885 79.3812 122.34 78.87 121.15L80.1607 120.53C80.4373 121.041 80.7809 121.368 81.4263 121.192L81.418 121.2Z" fill="#03FF7F"/>
<path d="M76.6155 116.33L76.5736 117.63C76.3473 117.613 76.1126 117.613 75.8863 117.646C75.3583 117.722 75.0984 117.856 74.9308 118.443L77.6129 123.33L75.9701 123.556L75.1822 121.712C74.9476 121.15 74.6626 120.505 74.4111 119.885L74.2267 119.91C74.1513 120.58 74.0675 121.259 74.0088 121.838L73.7909 123.858L72.1816 124.084L73.5143 118.543C73.8412 117.194 74.4279 116.548 75.7438 116.364C76.1042 116.314 76.3305 116.314 76.6155 116.322V116.33Z" fill="#03FF7F"/>
<path d="M65.4095 120.916L65.5017 118.954L67.1026 119.03L66.8009 125.71L64.0182 125.585C62.2497 125.501 61.4367 124.654 61.5121 123.087C61.5708 121.787 62.5263 120.79 64.1774 120.865L65.4095 120.924V120.916ZM65.2587 124.277L65.3509 122.215L64.2948 122.165C63.4734 122.131 63.1214 122.45 63.0878 123.145C63.0543 123.841 63.356 124.185 64.2193 124.227L65.2503 124.277H65.2587Z" fill="#03FF7F"/>
<path d="M60.1794 118.543L59.3496 123.757L57.9331 123.531L58.2014 121.838L58.084 121.821C57.5224 123.221 57.0363 123.447 56.3574 123.338L56.2065 123.313L56.4831 121.594L56.7933 121.645C57.841 121.812 58.1846 121.553 58.3271 120.631L58.6959 118.309L60.1878 118.543H60.1794Z" fill="#03FF7F"/>
<path d="M55.0498 120.245C54.5637 122.005 53.3316 122.776 51.6721 122.324C50.1047 121.896 49.6186 120.765 50.0041 119.356C50.0628 119.138 50.1299 118.937 50.2221 118.677L53.6753 119.625C53.8094 118.786 53.5411 118.317 52.8371 118.124C52.1498 117.94 51.8481 118.2 51.6134 118.552L50.4819 117.881C50.9513 117.06 51.7223 116.557 53.1724 116.951C54.7062 117.37 55.5276 118.51 55.0582 120.237L55.0498 120.245ZM53.4573 120.362L51.3284 119.775C51.1356 120.58 51.3619 121.058 52.0157 121.234C52.6778 121.418 53.1556 121.175 53.4573 120.354V120.362Z" fill="#03FF7F"/>
<path d="M47.8502 115.4L49.2331 116.028L47.0456 120.832L45.6961 120.22L46.2829 118.929L46.1823 118.878C45.4866 119.683 44.682 119.909 43.9276 119.566C43.0727 119.18 42.9051 118.451 43.2571 117.521L43.1482 117.47C42.4525 118.292 41.6814 118.543 40.8935 118.183C39.9548 117.755 39.762 116.9 40.2398 115.852L41.7233 112.6L43.1146 113.229L41.8071 116.096C41.5892 116.582 41.6562 117.018 42.1675 117.252C42.7542 117.521 43.3074 117.269 43.584 116.674L44.7993 114L46.1823 114.629L44.8748 117.495C44.6568 117.982 44.7323 118.426 45.2268 118.652C45.8135 118.92 46.3834 118.677 46.6516 118.074L47.867 115.4H47.8502Z" fill="#03FF7F"/>
<path d="M36.9706 116.632L36.3923 117.554L35.0513 116.716L35.6296 115.794L36.9706 116.632ZM40.1389 111.502L37.3394 115.978L36.057 115.173L38.8565 110.697L40.1389 111.502Z" fill="#03FF7F"/>
<path d="M33.6264 108.66L33.7186 108.727C34.5819 108.099 35.4201 108.074 36.0822 108.585C36.8785 109.197 36.8449 110.077 36.1409 110.982L33.9533 113.807L32.7547 112.877L34.6825 110.379C35.0178 109.943 35.0513 109.507 34.6071 109.163C34.0958 108.769 33.5007 108.887 33.09 109.415L31.288 111.745L30.0811 110.815L33.3079 106.64L34.4814 107.545L33.6264 108.652V108.66Z" fill="#03FF7F"/>
<path d="M30.8107 104.394L31.8416 105.5L27.9861 109.105L26.9719 108.023L28.0029 107.059L27.9275 106.975C26.972 107.453 26.1506 107.361 25.5806 106.749C24.9436 106.062 25.061 105.332 25.7399 104.603L25.6561 104.511C24.7006 105.006 23.8959 104.939 23.3008 104.31C22.5968 103.555 22.7477 102.692 23.5858 101.904L26.2009 99.4648L27.2402 100.58L24.9352 102.734C24.5413 103.103 24.4407 103.53 24.8263 103.933C25.2705 104.402 25.874 104.385 26.3517 103.933L28.4974 101.921L29.5283 103.027L27.2234 105.182C26.8295 105.55 26.7373 105.986 27.1144 106.38C27.5587 106.85 28.1705 106.841 28.6483 106.389L30.7939 104.377L30.8107 104.394Z" fill="#03FF7F"/>
<path d="M17.6345 98.8195L16.2096 96.3468C15.0362 94.3099 15.5307 92.8262 17.3411 91.7868C19.1767 90.7306 20.9368 91.1749 22.0096 93.0274L23.4261 95.475L17.6345 98.8112V98.8195ZM17.9781 96.7659L21.4816 94.7457L20.9284 93.7901C20.2327 92.5831 19.3611 92.4741 18.1457 93.1699C16.922 93.874 16.7544 94.6284 17.4584 95.8522L17.9781 96.7575V96.7659Z" fill="#03FF7F"/>
<path d="M14.1481 90.9319L13.1507 91.3678L12.5137 89.9176L13.5111 89.4817L14.1481 90.9319ZM19.6548 88.4842L14.8186 90.5966L14.2151 89.2051L19.0513 87.0928L19.6548 88.4842Z" fill="#03FF7F"/>
<path d="M19.4784 82.6249C20.0986 84.5445 19.8891 85.2067 19.2605 85.4163C18.8079 85.5671 18.3385 85.1648 17.9781 84.5361L17.9111 84.5529C18.0116 85.1145 17.8273 85.433 17.4752 85.5504C17.1903 85.6426 16.8634 85.5001 16.5449 85.148L16.2348 84.8379C16.2348 85.6677 15.8408 86.2545 15.053 86.506C13.9298 86.8748 13.033 86.2293 12.5636 84.796L11.7339 82.2561L12.8151 81.9041L12.9911 82.4573C13.0665 82.7004 13.1671 83.0189 13.2509 83.438L13.3683 83.4129C13.2845 82.7507 13.3432 82.1471 13.9215 81.9543C14.7596 81.6861 15.5559 82.298 16.0169 83.7063C16.1174 84.0164 16.1761 84.3098 16.2012 84.5696L16.3689 84.6116C16.4778 84.6367 16.5868 84.6451 16.679 84.6116C16.855 84.5529 16.8885 84.402 16.7879 84.0835C16.6119 83.5302 16.394 82.9686 16.218 82.4489C15.8576 81.3341 16.1761 80.6719 16.9975 80.4036C18.0452 80.0599 18.7995 80.5796 19.4617 82.6166L19.4784 82.6249ZM14.701 85.2151C15.1033 85.081 15.3296 84.7373 15.0949 84.0164C14.8602 83.2871 14.4663 83.1279 14.064 83.262C13.6533 83.3961 13.4521 83.7901 13.6784 84.4774C13.9131 85.1899 14.2986 85.3408 14.701 85.2067V85.2151ZM17.425 81.5185C17.1819 81.5939 17.0645 81.8202 17.1986 82.2226L17.7518 83.9242C17.8943 84.3685 18.196 84.5613 18.4391 84.4858C18.7744 84.3768 18.8414 84.0583 18.4391 82.8513C18.0368 81.6191 17.7686 81.3927 17.4166 81.5101L17.425 81.5185Z" fill="#03FF7F"/>
<path d="M10.5272 80.3111L9.46279 80.5458L9.11914 79.0035L10.1836 78.7687L10.5272 80.3111ZM16.4027 78.9783L11.2481 80.1183L10.9212 78.6346L16.0758 77.4946L16.4027 78.9783Z" fill="#03FF7F"/>
<path d="M11.625 75.793L11.7088 76.43L10.5187 76.5893L10.4349 75.9522L9.08543 76.1366L8.88428 74.6362L10.2337 74.4518L10.0493 73.0687L11.2395 72.9094L11.4239 74.2925L13.5779 73.9991C13.997 73.9405 14.1898 73.756 14.1227 73.3034C14.0892 73.0687 13.9886 72.8256 13.8964 72.6328L15.2207 72.2808C15.3967 72.658 15.5057 72.9178 15.5895 73.4878C15.7571 74.7033 15.0196 75.3235 14.0222 75.4577L11.625 75.7846V75.793Z" fill="#03FF7F"/>
<path d="M13.7623 67.5703V67.7045C14.6088 67.9475 15.1536 68.4924 15.1787 69.3977C15.2039 70.2862 14.7597 70.9568 13.7287 70.9819C12.7816 71.0071 12.1111 70.4706 12.0776 69.0792L12.044 67.6961H11.6752C11.1304 67.7212 10.8203 67.9643 10.8371 68.5427C10.8539 69.0456 11.1053 69.3306 11.6166 69.4145L11.3316 70.8478C10.3677 70.6969 9.67206 69.9761 9.63015 68.5175C9.58824 66.9165 10.3091 66.2376 11.6333 66.204L14.986 66.1118L15.0195 67.5368L13.7623 67.5703ZM12.9995 67.6709H12.79L12.8151 68.769C12.8319 69.2552 13.0582 69.5653 13.427 69.557C13.7622 69.5486 14.0221 69.3474 14.0053 68.769C13.9885 68.0817 13.5611 67.6542 12.9995 67.6709Z" fill="#03FF7F"/>
<path d="M15.1957 62.6327L15.0951 64.1415L7.9624 63.6553L8.06298 62.1465L15.1957 62.6327Z" fill="#03FF7F"/>
<path d="M12.4384 57.1678C10.3011 56.6564 9.35397 55.1141 9.83172 53.1442C10.2424 51.4342 11.399 50.6211 13.0586 50.8139L12.9999 52.3647C12.0025 52.306 11.4074 52.6161 11.1895 53.5131C10.9129 54.6614 11.6757 55.3488 12.8155 55.617C14.1063 55.9272 15.0115 55.6254 15.2797 54.5022C15.506 53.5466 15.0953 53.0353 14.1733 52.6078L14.7768 51.1911C16.3525 51.7779 17.0398 53.0772 16.6291 54.8039C16.143 56.8157 14.5924 57.6707 12.4468 57.1594L12.4384 57.1678Z" fill="#03FF7F"/>
<path d="M15.1788 49.4893C13.5444 48.8438 12.9745 47.4943 13.5863 45.9268C14.1898 44.3928 15.5309 43.7809 17.1653 44.4264C18.7829 45.0634 19.3864 46.4046 18.7745 47.9721C18.1459 49.5647 16.7881 50.1263 15.1705 49.4893H15.1788ZM15.7236 48.0727C16.6121 48.4247 17.2575 48.3074 17.5759 47.511C17.8861 46.7231 17.5005 46.1866 16.6121 45.8346C15.7236 45.4825 15.0783 45.625 14.7765 46.4046C14.4664 47.1841 14.8436 47.7206 15.732 48.0727H15.7236Z" fill="#03FF7F"/>
<path d="M21.0877 42.5909L20.3502 43.9153L15.7319 41.3503L16.4528 40.0511L17.6932 40.7384L17.7435 40.6546C16.9976 39.8834 16.8467 39.062 17.249 38.3411C17.7435 37.4526 18.6068 37.3436 19.6042 37.9052L22.7305 39.6403L21.9929 40.9648L19.2354 39.4308C18.7661 39.1709 18.3302 39.2045 18.0536 39.6906C17.7435 40.2523 17.9363 40.839 18.5146 41.1575L21.0877 42.5825V42.5909Z" fill="#03FF7F"/>
<path d="M22.3368 37.4441L22.9152 36.1784C23.46 36.4131 23.9126 36.3041 24.2981 35.7677C24.5998 35.3569 24.6166 35.0468 24.34 34.8372C24.0802 34.6444 23.812 34.7115 23.0828 35.3821C21.9764 36.3712 21.3059 36.4802 20.5767 35.9521C19.7553 35.3569 19.6966 34.4181 20.5767 33.211C21.4819 31.9705 22.2614 31.9202 23.1247 32.3058L22.5548 33.5631C22.0435 33.3368 21.725 33.4122 21.4065 33.8565C21.1131 34.2588 21.1048 34.5606 21.3562 34.745C21.5909 34.9127 21.8507 34.921 22.5548 34.2672C23.8036 33.1356 24.4825 33.1356 25.1447 33.6218C25.9744 34.2253 26.075 35.139 25.1447 36.4299C24.097 37.8716 23.2001 37.8884 22.3368 37.4441Z" fill="#03FF7F"/>
<path d="M28.6899 29.7996L28.6144 29.8834C29.1592 30.8054 29.109 31.6437 28.5306 32.2472C27.8433 32.9765 26.9717 32.8675 26.1335 32.0796L23.5269 29.6319L24.5662 28.5254L26.8627 30.6797C27.265 31.0569 27.7009 31.124 28.078 30.7216C28.5222 30.2522 28.4636 29.6487 27.9691 29.1876L25.8234 27.1759L26.8627 26.061L30.7182 29.6738L29.704 30.7551L28.6815 29.7996H28.6899Z" fill="#03FF7F"/>
<path d="M33.3415 27.3683L32.2017 28.3658L27.4912 22.9843L28.6311 21.9868L33.3415 27.3683Z" fill="#03FF7F"/>
<path d="M32.688 22.6406L32.1684 23.0262L31.456 22.0622L31.9756 21.6766L31.1626 20.5869L32.3779 19.6816L33.1909 20.7713L34.3057 19.9415L35.0181 20.9055L33.9034 21.7353L35.1941 23.4788C35.4456 23.8225 35.697 23.898 36.0658 23.6213C36.2502 23.4788 36.4178 23.2777 36.5436 23.1016L37.4907 24.0907C37.2392 24.426 37.0716 24.6524 36.6106 24.996C35.63 25.7253 34.7331 25.3816 34.1297 24.5685L32.688 22.6238V22.6406Z" fill="#03FF7F"/>
<path d="M40.9101 20.5619L40.7928 20.6289C40.9855 21.4839 40.776 22.23 39.9965 22.6826C39.2254 23.1353 38.4292 23.0682 37.9095 22.1713C37.4318 21.3582 37.5826 20.5032 38.7812 19.7991L39.9714 19.1034L39.787 18.7848C39.5104 18.3154 39.15 18.1645 38.6555 18.4579C38.2196 18.7094 38.0939 19.0698 38.2699 19.5644L36.8786 20.0087C36.5517 19.095 36.8367 18.131 38.1023 17.4017C39.4852 16.5887 40.424 16.8988 41.0945 18.0388L42.7876 20.9307L41.5555 21.6516L40.9185 20.5619H40.9101ZM40.4575 19.9416L40.3486 19.7572L39.4098 20.3104C38.9907 20.5619 38.8315 20.9056 39.0159 21.2241C39.1835 21.5091 39.4853 21.6516 39.9798 21.3582C40.5749 21.0061 40.7425 20.4362 40.4575 19.9416Z" fill="#03FF7F"/>
<path d="M45.8638 19.472L44.4725 20.0671L42.4106 15.2054L43.7768 14.627L44.33 15.9263L44.4222 15.8844C44.3049 14.8198 44.6904 14.0738 45.4531 13.7552C46.3835 13.3613 47.1294 13.8055 47.582 14.8617L48.9818 18.156L47.5904 18.7511L46.3583 15.8508C46.1488 15.3563 45.78 15.1132 45.2687 15.3311C44.6737 15.5826 44.4725 16.1694 44.7323 16.7729L45.8806 19.4804L45.8638 19.472Z" fill="#03FF7F"/>
<path d="M51.9569 12.9507C51.278 13.1435 50.9847 13.6883 51.2529 14.6523C51.5043 15.5576 52.0156 15.9767 52.77 15.7671C53.4237 15.5827 53.5494 15.0714 53.5075 14.5182L54.9408 14.4679C55.1 15.6917 54.5887 16.6389 53.1387 17.0413C51.5295 17.4939 50.2723 16.882 49.7861 15.1468C49.3 13.4201 50.0041 12.1208 51.6217 11.6682C53.1304 11.2491 53.9769 11.7855 54.5049 12.9674L53.2226 13.6045C52.9376 13.0932 52.5939 12.7746 51.9569 12.9507Z" fill="#03FF7F"/>
<path d="M56.8097 17.762L56.8349 16.4628C57.0612 16.4712 57.2959 16.4712 57.5222 16.4376C58.0502 16.3622 58.31 16.2197 58.4693 15.6329L55.7285 10.7712L57.3713 10.5197L58.1759 12.3554C58.419 12.9171 58.704 13.5625 58.9722 14.1744L59.1566 14.1493C59.2236 13.4703 59.2991 12.7997 59.3493 12.2129L59.5421 10.1928L61.1514 9.94971L59.8858 15.5072C59.5757 16.8651 58.9973 17.5106 57.6814 17.7117C57.321 17.7704 57.0947 17.7704 56.8097 17.762Z" fill="#03FF7F"/>
<path d="M66.9852 133.975C30.0478 133.975 0 103.924 0 66.9832C0 30.0423 30.0478 0 66.9852 0C103.923 0 133.97 30.0507 133.97 66.9916C133.97 103.933 103.923 133.983 66.9852 133.983V133.975ZM66.9852 1.995C31.1542 1.995 2.0032 31.1488 2.0032 66.9832C2.0032 102.818 31.1542 131.971 66.9852 131.971C102.816 131.971 131.967 102.818 131.967 66.9832C131.967 31.1488 102.816 2.00338 66.9852 2.00338V1.995Z" fill="#03FF7F"/>
</svg>
