<svg width="131" height="102" viewBox="0 0 131 102" fill="none" xmlns="http://www.w3.org/2000/svg">
<g clip-path="url(#clip0_512_1495)">
<path d="M65.0251 101.15C57.7599 101.15 52.4898 95.8108 46.9186 90.1523C42.5821 85.753 38.1025 81.2066 32.5614 79.334C22.4127 75.8996 11.3756 73.5365 0.699964 71.2551L0.00732422 71.1079L27.3741 0L27.5172 0.0735937C33.1486 3.00099 39.0059 5.56041 44.931 7.70281C46.7605 8.36515 48.2737 9.56718 49.3052 11.1781C53.2502 17.3272 57.6997 23.1575 62.5331 28.5053C63.1956 29.2412 64.084 29.6419 65.0251 29.6419C65.9662 29.6419 66.8545 29.2412 67.5171 28.5053C72.3505 23.1657 76.7999 17.3354 80.745 11.1781C81.7839 9.559 83.2972 8.35697 85.1191 7.70281C91.0367 5.56859 96.894 3.00099 102.533 0.0735937L102.676 0L102.736 0.155364L130.05 71.0997L129.87 71.1406C128.319 71.4758 126.73 71.8029 125.112 72.1382C114.383 74.3623 102.224 76.8809 92.7005 81.8035C88.7856 83.8232 85.4128 87.3148 82.1528 90.7001C77.1914 95.8353 72.0569 101.15 65.0251 101.15ZM0.421402 70.8626L0.752664 70.9361C11.4359 73.2176 22.4805 75.5725 32.6442 79.0233C38.2531 80.9204 42.7627 85.4995 47.1219 89.9151C52.6479 95.5246 57.8728 100.823 65.0251 100.823C72.1773 100.823 76.7999 95.7863 81.9496 90.463C85.2321 87.0695 88.62 83.5534 92.5801 81.5091C102.142 76.5702 114.315 74.0516 125.059 71.8193C126.61 71.5004 128.138 71.1815 129.636 70.8626L102.525 0.441562C96.9241 3.34442 91.1044 5.8875 85.2245 8.01354C83.4553 8.65135 81.9947 9.81249 81.0009 11.3661C77.0484 17.5317 72.5839 23.3783 67.7429 28.7342C67.0202 29.5274 66.064 29.969 65.0326 29.969C64.0012 29.969 63.045 29.5274 62.3223 28.7342C57.4813 23.3783 53.0168 17.5317 49.0643 11.3661C48.0629 9.81249 46.6024 8.65135 44.8407 8.01354C38.9608 5.8875 33.1336 3.34442 27.5397 0.441562L0.421402 70.8626Z" fill="url(#paint0_linear_512_1495)"/>
<path d="M65.0252 90.733C58.1063 90.733 53.2127 85.4015 48.0254 79.7511C43.99 75.3519 39.8116 70.8054 34.5641 68.9165C24.9198 65.4494 13.9054 62.9472 4.19336 60.7313L4.25359 60.4124C13.9807 62.6283 25.0027 65.1387 34.662 68.6058C39.9847 70.5192 44.1858 75.0984 48.2437 79.5222C53.3858 85.1235 58.2343 90.4059 65.0327 90.4059C71.8311 90.4059 76.1375 85.377 80.9182 80.0537C83.9749 76.652 87.1369 73.1277 90.8711 71.0998C99.8905 66.1854 111.515 63.6014 121.769 61.32C123.139 61.0175 124.494 60.7149 125.812 60.4124L125.872 60.7313C124.554 61.0338 123.199 61.3364 121.829 61.6389C111.598 63.9203 99.9959 66.4961 91.0067 71.386C87.3176 73.3976 84.1706 76.8973 81.1366 80.2827C76.5215 85.426 71.7483 90.733 65.0327 90.733H65.0252Z" fill="url(#paint1_linear_512_1495)"/>
<path d="M65.0252 82.7275C59.1227 82.7275 54.0935 76.5129 49.2225 70.4946C45.5861 65.9972 42.1455 61.7533 38.479 60.126C32.0119 57.2559 22.857 55.1135 14.7862 53.2246C12.2566 52.6358 9.87 52.0716 7.7168 51.5237L7.78456 51.2048C9.93776 51.7527 12.3244 52.3087 14.8465 52.8975C22.9323 54.7864 32.0947 56.937 38.5844 59.8153C42.3186 61.4671 45.7743 65.7437 49.4408 70.2738C54.2592 76.2349 59.2507 82.3922 65.0176 82.3922C71.0707 82.3922 75.8665 76.3085 80.5117 70.4291C84.1029 65.8827 87.4908 61.5897 91.4433 59.8153C98.2267 56.7734 106.508 54.8763 114.519 53.0365C117.237 52.415 119.804 51.8263 122.243 51.2048L122.311 51.5237C119.864 52.1452 117.297 52.7339 114.579 53.3554C106.584 55.1871 98.317 57.0842 91.5563 60.1178C87.6639 61.8596 84.2986 66.128 80.7375 70.6417C76.0547 76.5783 71.2062 82.7193 65.0176 82.7193L65.0252 82.7275Z" fill="url(#paint2_linear_512_1495)"/>
<path d="M64.0389 72.9559C57.8353 72.9559 54.2366 67.6572 50.7433 62.5302C48.2889 58.9241 45.7442 55.1953 42.3111 53.2328C36.3258 49.823 26.1847 47.2636 18.0386 45.2111C15.4262 44.5488 12.9568 43.9273 10.8713 43.3386L10.9466 43.0197C13.0245 43.6084 15.494 44.2299 18.1064 44.884C26.2675 46.9446 36.4312 49.5041 42.4467 52.9303C45.94 54.9173 48.5073 58.6788 50.9767 62.3176C54.7711 67.8943 58.3623 73.1522 65.0101 72.5634C71.274 72.0074 74.6318 67.4119 78.1853 62.5383C80.8129 58.9322 83.5382 55.2035 87.6037 52.9221C94.1537 49.2424 103.181 47.0182 111.146 45.0557C113.977 44.3607 116.649 43.6983 119.104 43.0115L119.179 43.3304C116.717 44.0254 114.044 44.6796 111.214 45.3828C103.271 47.3371 94.2591 49.5613 87.7468 53.2246C83.7415 55.4733 81.0387 59.1776 78.4263 62.7509C74.8275 67.6735 71.4321 72.3263 65.0403 72.8987C64.7015 72.9314 64.3627 72.9396 64.0389 72.9396V72.9559Z" fill="url(#paint3_linear_512_1495)"/>
<path d="M64.0841 65.621C58.1515 65.621 54.5377 60.1587 51.0293 54.8763C48.7632 51.4583 46.4218 47.9176 43.4781 45.8979C38.6145 42.5616 27.9539 39.7896 20.1693 37.7617C17.6246 37.0993 15.4262 36.5269 13.6946 36.0118L13.7774 35.6929C15.509 36.208 17.6998 36.7804 20.2445 37.4428C28.0518 39.4707 38.7425 42.2509 43.6437 45.6198C46.6401 47.6723 48.9966 51.2375 51.2778 54.68C55.0798 60.4204 58.6785 65.8581 65.0101 65.2448C71.0557 64.6724 74.5866 59.7907 78.3284 54.631C80.715 51.3356 83.1844 47.9258 86.3991 45.6198C91.737 41.7848 101.17 39.487 108.744 37.6472C111.507 36.9767 114.112 36.3389 116.265 35.701L116.348 36.02C114.188 36.6659 111.575 37.2956 108.812 37.9661C101.261 39.8059 91.8574 42.0873 86.5648 45.8979C83.3876 48.1793 80.9333 51.5646 78.5618 54.8436C74.7748 60.0606 71.2062 64.9913 65.0327 65.5801C64.709 65.6128 64.3928 65.6292 64.0766 65.6292L64.0841 65.621Z" fill="url(#paint4_linear_512_1495)"/>
<path d="M65.0254 60.6086C60.7792 60.6086 55.2155 53.8952 50.3143 47.975C47.3179 44.3607 44.4871 40.9427 42.3264 39.4954C36.4088 35.5295 29.1888 33.3625 22.2172 31.261C20.1393 30.6396 18.1743 30.0427 16.2319 29.4048L16.3223 29.0941C18.2647 29.7319 20.2221 30.3207 22.3001 30.9421C29.3017 33.0436 36.5368 35.2269 42.492 39.2173C44.6828 40.6892 47.5287 44.1236 50.5402 47.7542C55.4037 53.6253 60.9147 60.2733 65.0329 60.2733C69.6555 60.2733 73.6382 54.1732 77.1466 48.7845C79.1417 45.7181 81.0314 42.8316 82.8081 41.4497C89.0042 36.6252 99.4691 33.4607 107.886 30.9094C109.987 30.2716 111.982 29.6665 113.744 29.0859L113.834 29.3967C112.065 29.9772 110.077 30.5823 107.969 31.2202C99.582 33.7632 89.1473 36.9278 82.9888 41.7113C81.2572 43.0606 79.3826 45.9307 77.4025 48.9726C73.849 54.4185 69.8211 60.6004 65.0404 60.6004L65.0254 60.6086Z" fill="url(#paint5_linear_512_1495)"/>
<path d="M65.0253 54.6229C60.9824 54.6229 55.652 47.8768 50.9466 41.932C48.1008 38.3259 45.4055 34.9243 43.3878 33.5096C37.7639 29.5765 30.845 27.3768 24.1595 25.259C22.2021 24.6375 20.3575 24.0569 18.5281 23.4191L18.6184 23.1084C20.4404 23.738 22.2849 24.3186 24.2424 24.9401C30.9504 27.0661 37.8919 29.2657 43.5534 33.2316C45.6088 34.6708 48.3116 38.0888 51.18 41.7112C55.8403 47.6069 61.1254 54.2876 65.0253 54.2876C69.4672 54.2876 73.2767 48.1384 76.642 42.7089C78.5242 39.667 80.301 36.7968 81.9573 35.464C87.8522 30.6885 97.903 27.475 105.981 24.891C107.939 24.2614 109.791 23.6726 111.432 23.1084L111.522 23.4191C109.874 23.9915 108.022 24.5803 106.064 25.2099C98.0084 27.7857 87.9878 30.9993 82.138 35.7338C80.5268 37.034 78.7651 39.8878 76.898 42.8969C73.495 48.3919 69.6328 54.6147 65.0328 54.6147L65.0253 54.6229Z" fill="url(#paint6_linear_512_1495)"/>
<path d="M64.0541 46.8711C58.9798 46.8711 55.2606 41.7032 51.3457 36.2573C48.5074 32.3077 45.5636 28.2192 42.0176 26.1422C37.7338 23.6319 32.5842 21.9719 27.6077 20.3692C25.1534 19.576 22.8421 18.8319 20.6211 17.9897L20.719 17.679C22.9324 18.5212 25.2437 19.2653 27.6905 20.0585C32.6821 21.6694 37.8392 23.3375 42.1531 25.856C45.7594 27.9657 48.7182 32.0788 51.5791 36.061C55.6897 41.785 59.5745 47.1737 65.0027 46.4868C70.2276 45.8081 73.2542 41.7277 76.4614 37.4021C78.4339 34.7445 80.4666 32.0052 83.1318 29.8546C89.3957 24.8012 96.3973 22.3154 103.813 19.6823C105.612 19.0445 107.48 18.3822 109.317 17.679L109.414 17.9897C107.57 18.6929 105.703 19.3553 103.903 19.9931C96.5103 22.6179 89.5312 25.1037 83.305 30.1163C80.6699 32.2423 78.6447 34.9653 76.6872 37.6065C73.4424 41.9812 70.3707 46.1188 65.0253 46.8057C64.6865 46.8466 64.3628 46.8711 64.039 46.8711H64.0541Z" fill="url(#paint7_linear_512_1495)"/>
<path d="M64.069 41.8994C59.1829 41.8994 55.6519 36.7315 51.9177 31.2856C49.2073 27.3279 46.4067 23.2393 43.0037 21.1624C38.9232 18.6765 33.9919 17.0084 29.2187 15.3894C26.8697 14.5962 24.6563 13.8439 22.5332 13.0016L22.6386 12.6909C24.7542 13.525 26.9676 14.2773 29.309 15.0704C34.0973 16.6895 39.0511 18.3658 43.1543 20.868C46.6099 22.9777 49.4332 27.0907 52.1586 31.0812C56.081 36.8051 59.7851 42.2102 65.0025 41.4988C70.0543 40.8037 72.9302 36.7315 75.9794 32.414C77.854 29.7565 79.7889 27.0172 82.3486 24.8666C88.3415 19.8377 95.0646 17.3355 102.187 14.6779C103.896 14.0401 105.665 13.386 107.412 12.6909L107.517 13.0016C105.763 13.6967 103.994 14.359 102.285 14.9969C95.1926 17.638 88.492 20.1402 82.5368 25.1364C80.0072 27.2543 78.0874 29.9854 76.2203 32.6185C73.1335 36.985 70.2199 41.1144 65.0477 41.8258C64.7164 41.8749 64.3927 41.8913 64.0765 41.8913L64.069 41.8994Z" fill="url(#paint8_linear_512_1495)"/>
<path d="M64.0842 37.3447C59.3788 37.3447 56.006 32.1768 52.4374 26.7309C49.8475 22.7732 47.1748 18.6765 43.9074 16.6077C40.0226 14.1464 35.272 12.4619 30.687 10.8428C28.4359 10.0415 26.3128 9.2892 24.2876 8.45514L24.393 8.15259C26.4107 8.98665 28.5338 9.73894 30.7849 10.5321C35.3849 12.1594 40.1505 13.852 44.0655 16.3297C47.3856 18.4312 50.0809 22.5524 52.6858 26.5428C56.4351 32.275 59.9736 37.68 65.0103 36.9522C69.9039 36.2408 72.6444 32.1768 75.5429 27.8675C77.3272 25.21 79.1793 22.4706 81.6336 20.3283C87.378 15.3239 93.8452 12.7972 100.689 10.1314C102.315 9.50181 103.994 8.83946 105.658 8.15259L105.763 8.45514C104.092 9.15019 102.413 9.80436 100.787 10.434C93.9656 13.0915 87.521 15.6101 81.8218 20.5817C79.3976 22.6996 77.5606 25.4226 75.7838 28.0638C72.8476 32.4303 70.0696 36.5516 65.0479 37.2793C64.7242 37.3284 64.4005 37.3529 64.0842 37.3529V37.3447Z" fill="url(#paint9_linear_512_1495)"/>
<path d="M65.0252 33.5668C63.8357 33.5668 62.6462 33.0844 61.7427 32.1113C56.7136 26.7063 52.0759 20.7861 47.9502 14.5224C47.2274 13.4267 46.2261 12.6335 45.0441 12.2328C38.5393 10.025 32.0948 7.33477 25.8911 4.24384L26.0191 3.94946C32.2152 7.0404 38.6447 9.72248 45.142 11.9221C46.3842 12.3391 47.4382 13.1732 48.1986 14.3344C52.3093 20.5816 56.9394 26.4855 61.9535 31.8742C63.6475 33.6977 66.403 33.6895 68.0894 31.8742C73.1035 26.4855 77.7337 20.5816 81.8443 14.3344C82.6047 13.1814 83.6663 12.3473 84.9085 11.9221C91.3982 9.7143 97.8353 7.03222 104.031 3.94946L104.159 4.24384C97.9557 7.34295 91.5112 10.025 85.0064 12.2328C83.8244 12.6335 82.8231 13.4267 82.1003 14.5224C77.9746 20.7861 73.3369 26.7063 68.3077 32.1113C67.4043 33.0844 66.2148 33.5668 65.0252 33.5668Z" fill="url(#paint10_linear_512_1495)"/>
<path d="M117.914 73.5857C114.203 61.7943 110.521 49.913 106.967 38.4242C103.414 26.9354 99.7399 15.0541 96.0208 3.2628L96.3068 3.15649C100.018 14.9478 103.7 26.8291 107.254 38.3179C110.807 49.8067 114.481 61.688 118.2 73.4794L117.914 73.5857Z" fill="url(#paint11_linear_512_1495)"/>
<path d="M105.718 76.6193C102.827 64.828 99.9885 53.2738 97.1502 41.7196C94.3118 30.1654 91.4735 18.6193 88.5825 6.81981L88.8761 6.73804C91.7672 18.5294 94.6055 30.0836 97.4438 41.6378C100.282 53.192 103.12 64.738 106.011 76.5376L105.718 76.6193Z" fill="url(#paint12_linear_512_1495)"/>
<path d="M94.5827 80.6423C92.5198 68.8591 90.344 56.9287 88.236 45.3991C86.1204 33.8367 83.9371 21.8818 81.8743 10.0741L82.1679 10.0168C84.2307 21.8245 86.4141 33.7713 88.5296 45.3336C90.6377 56.8715 92.8134 68.8019 94.8763 80.585L94.5827 80.6423Z" fill="url(#paint13_linear_512_1495)"/>
<path d="M82.7251 89.7845C81.4904 77.9931 80.1879 66.0464 78.9231 54.5004C77.6658 42.9544 76.3633 31.0076 75.1211 19.2163L75.4222 19.1836C76.6569 30.9749 77.9594 42.9217 79.2242 54.4677C80.4815 66.0137 81.784 77.9604 83.0262 89.7518L82.7251 89.7845Z" fill="url(#paint14_linear_512_1495)"/>
<path d="M70.732 100.006C70.3255 88.2634 69.9114 75.9406 69.5199 64.0184C69.1209 51.9981 68.7068 39.5689 68.2927 27.7285L68.5939 27.7122C69.008 39.5526 69.422 51.9817 69.821 64.002C70.2201 75.916 70.6266 88.2389 71.0332 99.9812L70.732 99.9975V100.006Z" fill="url(#paint15_linear_512_1495)"/>
<path d="M59.6046 99.8503L59.3035 99.834C59.7175 88.0426 60.0488 75.7034 60.3725 63.7731C60.6963 51.8427 61.0275 39.5035 61.4416 27.7122L61.7428 27.7285C61.3287 39.5199 60.9974 51.8591 60.6737 63.7894C60.35 75.7198 60.0112 88.059 59.6046 99.8503Z" fill="url(#paint16_linear_512_1495)"/>
<path d="M47.4684 90.2503L47.1672 90.2094C48.4095 78.3935 49.6291 66.2669 50.8186 54.5492C52.0007 42.8723 53.2203 30.7948 54.455 19.0198L54.7562 19.0525C53.5215 30.8193 52.3018 42.8968 51.1198 54.5737C49.9378 66.2996 48.7106 78.4181 47.4684 90.2421V90.2503Z" fill="url(#paint17_linear_512_1495)"/>
<path d="M35.7611 80.6424L35.4675 80.5852C37.5304 68.7939 39.533 56.7736 41.4679 45.1458C43.4028 33.5179 45.4054 21.4976 47.4683 9.7063L47.7619 9.76354C45.699 21.5549 43.6964 33.5752 41.7615 45.203C39.8266 56.8308 37.824 68.8511 35.7611 80.6424Z" fill="url(#paint18_linear_512_1495)"/>
<path d="M24.6188 76.6191L24.3252 76.5374C27.2162 64.7379 29.9567 52.9056 32.6143 41.4659C35.2644 30.0343 38.0048 18.2185 40.8958 6.4353L41.1895 6.51707C38.306 18.3002 35.5655 30.1161 32.9154 41.5477C30.2653 52.9874 27.5174 64.8196 24.6263 76.6191H24.6188Z" fill="url(#paint19_linear_512_1495)"/>
<path d="M12.1362 73.5855L11.8501 73.4792C15.5617 61.6878 19.2207 50.0764 22.8721 38.4731C26.5235 26.8698 30.1825 15.2666 33.8941 3.46704L34.1802 3.57334C30.4685 15.3647 26.8096 26.9761 23.1582 38.5794C19.5068 50.1827 15.8478 61.786 12.1362 73.5855Z" fill="url(#paint20_linear_512_1495)"/>
</g>
<defs>
<linearGradient id="paint0_linear_512_1495" x1="0.00732422" y1="0" x2="137.573" y2="11.5505" gradientUnits="userSpaceOnUse">
<stop stop-color="#02FF85"/>
<stop offset="1" stop-color="#19FF0A"/>
</linearGradient>
<linearGradient id="paint1_linear_512_1495" x1="4.19336" y1="60.4124" x2="125.487" y2="92.202" gradientUnits="userSpaceOnUse">
<stop stop-color="#02FF85"/>
<stop offset="1" stop-color="#19FF0A"/>
</linearGradient>
<linearGradient id="paint2_linear_512_1495" x1="7.7168" y1="51.2048" x2="123.281" y2="78.6417" gradientUnits="userSpaceOnUse">
<stop stop-color="#02FF85"/>
<stop offset="1" stop-color="#19FF0A"/>
</linearGradient>
<linearGradient id="paint3_linear_512_1495" x1="10.8713" y1="43.0115" x2="120.155" y2="68.8262" gradientUnits="userSpaceOnUse">
<stop stop-color="#02FF85"/>
<stop offset="1" stop-color="#19FF0A"/>
</linearGradient>
<linearGradient id="paint4_linear_512_1495" x1="13.6946" y1="35.6929" x2="117.83" y2="59.0137" gradientUnits="userSpaceOnUse">
<stop stop-color="#02FF85"/>
<stop offset="1" stop-color="#19FF0A"/>
</linearGradient>
<linearGradient id="paint5_linear_512_1495" x1="16.2319" y1="29.0859" x2="116.124" y2="49.2852" gradientUnits="userSpaceOnUse">
<stop stop-color="#02FF85"/>
<stop offset="1" stop-color="#19FF0A"/>
</linearGradient>
<linearGradient id="paint6_linear_512_1495" x1="18.5281" y1="23.1084" x2="114.048" y2="41.5166" gradientUnits="userSpaceOnUse">
<stop stop-color="#02FF85"/>
<stop offset="1" stop-color="#19FF0A"/>
</linearGradient>
<linearGradient id="paint7_linear_512_1495" x1="20.6211" y1="17.679" x2="111.622" y2="35.7562" gradientUnits="userSpaceOnUse">
<stop stop-color="#02FF85"/>
<stop offset="1" stop-color="#19FF0A"/>
</linearGradient>
<linearGradient id="paint8_linear_512_1495" x1="22.5332" y1="12.6909" x2="109.912" y2="29.2946" gradientUnits="userSpaceOnUse">
<stop stop-color="#02FF85"/>
<stop offset="1" stop-color="#19FF0A"/>
</linearGradient>
<linearGradient id="paint9_linear_512_1495" x1="24.2876" y1="8.15259" x2="108.295" y2="23.4608" gradientUnits="userSpaceOnUse">
<stop stop-color="#02FF85"/>
<stop offset="1" stop-color="#19FF0A"/>
</linearGradient>
<linearGradient id="paint10_linear_512_1495" x1="25.8911" y1="3.94946" x2="106.859" y2="17.9236" gradientUnits="userSpaceOnUse">
<stop stop-color="#02FF85"/>
<stop offset="1" stop-color="#19FF0A"/>
</linearGradient>
<linearGradient id="paint11_linear_512_1495" x1="96.0208" y1="3.15649" x2="119.639" y2="3.64225" gradientUnits="userSpaceOnUse">
<stop stop-color="#02FF85"/>
<stop offset="1" stop-color="#19FF0A"/>
</linearGradient>
<linearGradient id="paint12_linear_512_1495" x1="88.5825" y1="6.73804" x2="107.145" y2="7.04039" gradientUnits="userSpaceOnUse">
<stop stop-color="#02FF85"/>
<stop offset="1" stop-color="#19FF0A"/>
</linearGradient>
<linearGradient id="paint13_linear_512_1495" x1="81.8743" y1="10.0168" x2="95.7235" y2="10.1834" gradientUnits="userSpaceOnUse">
<stop stop-color="#02FF85"/>
<stop offset="1" stop-color="#19FF0A"/>
</linearGradient>
<linearGradient id="paint14_linear_512_1495" x1="75.1211" y1="19.1836" x2="83.542" y2="19.2452" gradientUnits="userSpaceOnUse">
<stop stop-color="#02FF85"/>
<stop offset="1" stop-color="#19FF0A"/>
</linearGradient>
<linearGradient id="paint15_linear_512_1495" x1="68.2927" y1="27.7122" x2="71.2121" y2="27.7194" gradientUnits="userSpaceOnUse">
<stop stop-color="#02FF85"/>
<stop offset="1" stop-color="#19FF0A"/>
</linearGradient>
<linearGradient id="paint16_linear_512_1495" x1="59.3035" y1="27.7122" x2="61.9021" y2="27.7179" gradientUnits="userSpaceOnUse">
<stop stop-color="#02FF85"/>
<stop offset="1" stop-color="#19FF0A"/>
</linearGradient>
<linearGradient id="paint17_linear_512_1495" x1="47.1672" y1="19.0198" x2="55.2514" y2="19.076" gradientUnits="userSpaceOnUse">
<stop stop-color="#02FF85"/>
<stop offset="1" stop-color="#19FF0A"/>
</linearGradient>
<linearGradient id="paint18_linear_512_1495" x1="35.4675" y1="9.7063" x2="48.5631" y2="9.85453" gradientUnits="userSpaceOnUse">
<stop stop-color="#02FF85"/>
<stop offset="1" stop-color="#19FF0A"/>
</linearGradient>
<linearGradient id="paint19_linear_512_1495" x1="24.3252" y1="6.4353" x2="42.2864" y2="6.71716" gradientUnits="userSpaceOnUse">
<stop stop-color="#02FF85"/>
<stop offset="1" stop-color="#19FF0A"/>
</linearGradient>
<linearGradient id="paint20_linear_512_1495" x1="11.8501" y1="3.46704" x2="35.6283" y2="3.96159" gradientUnits="userSpaceOnUse">
<stop stop-color="#02FF85"/>
<stop offset="1" stop-color="#19FF0A"/>
</linearGradient>
<clipPath id="clip0_512_1495">
<rect width="130.051" height="101.15" fill="white"/>
</clipPath>
</defs>
</svg>
