<svg width="36" height="37" viewBox="0 0 36 37" fill="none" xmlns="http://www.w3.org/2000/svg">
<g id="Instagram - Negative">
<path id="Vector" d="M18 4.17549C22.8094 4.17549 23.3789 4.19658 25.2703 4.28096C27.0281 4.3583 27.9773 4.65361 28.6102 4.89971C29.4469 5.22315 30.0516 5.61689 30.6773 6.24268C31.3102 6.87549 31.6969 7.47315 32.0203 8.30986C32.2664 8.94268 32.5617 9.89893 32.6391 11.6497C32.7234 13.5481 32.7445 14.1177 32.7445 18.92C32.7445 23.7294 32.7234 24.2989 32.6391 26.1903C32.5617 27.9481 32.2664 28.8974 32.0203 29.5302C31.6969 30.3669 31.3031 30.9716 30.6773 31.5974C30.0445 32.2302 29.4469 32.6169 28.6102 32.9403C27.9773 33.1864 27.0211 33.4817 25.2703 33.5591C23.3719 33.6435 22.8023 33.6646 18 33.6646C13.1906 33.6646 12.6211 33.6435 10.7297 33.5591C8.97188 33.4817 8.02266 33.1864 7.38984 32.9403C6.55313 32.6169 5.94844 32.2231 5.32266 31.5974C4.68984 30.9646 4.30312 30.3669 3.97969 29.5302C3.73359 28.8974 3.43828 27.9411 3.36094 26.1903C3.27656 24.2919 3.25547 23.7224 3.25547 18.92C3.25547 14.1106 3.27656 13.5411 3.36094 11.6497C3.43828 9.89189 3.73359 8.94268 3.97969 8.30986C4.30312 7.47315 4.69688 6.86846 5.32266 6.24268C5.95547 5.60986 6.55313 5.22315 7.38984 4.89971C8.02266 4.65361 8.97891 4.3583 10.7297 4.28096C12.6211 4.19658 13.1906 4.17549 18 4.17549ZM18 0.934082C13.1133 0.934082 12.5016 0.955176 10.582 1.03955C8.66953 1.12393 7.35469 1.4333 6.21563 1.87627C5.02734 2.34033 4.02188 2.95205 3.02344 3.95752C2.01797 4.95596 1.40625 5.96143 0.942188 7.14268C0.499219 8.28877 0.189844 9.59658 0.105469 11.5091C0.0210938 13.4356 0 14.0474 0 18.9341C0 23.8208 0.0210938 24.4325 0.105469 26.3521C0.189844 28.2646 0.499219 29.5794 0.942188 30.7185C1.40625 31.9067 2.01797 32.9122 3.02344 33.9106C4.02188 34.9091 5.02734 35.5278 6.20859 35.9849C7.35469 36.4278 8.6625 36.7372 10.575 36.8216C12.4945 36.906 13.1062 36.9271 17.993 36.9271C22.8797 36.9271 23.4914 36.906 25.4109 36.8216C27.3234 36.7372 28.6383 36.4278 29.7773 35.9849C30.9586 35.5278 31.9641 34.9091 32.9625 33.9106C33.9609 32.9122 34.5797 31.9067 35.0367 30.7255C35.4797 29.5794 35.7891 28.2716 35.8734 26.3591C35.9578 24.4396 35.9789 23.8278 35.9789 18.9411C35.9789 14.0544 35.9578 13.4427 35.8734 11.5231C35.7891 9.61065 35.4797 8.2958 35.0367 7.15674C34.5938 5.96143 33.982 4.95596 32.9766 3.95752C31.9781 2.95908 30.9727 2.34033 29.7914 1.8833C28.6453 1.44033 27.3375 1.13096 25.425 1.04658C23.4984 0.955176 22.8867 0.934082 18 0.934082Z" fill="url(#paint0_linear_272_1808)"/>
<path id="Vector_2" d="M18 9.68799C12.8953 9.68799 8.75391 13.8294 8.75391 18.9341C8.75391 24.0388 12.8953 28.1802 18 28.1802C23.1047 28.1802 27.2461 24.0388 27.2461 18.9341C27.2461 13.8294 23.1047 9.68799 18 9.68799ZM18 24.9317C14.6883 24.9317 12.0023 22.2458 12.0023 18.9341C12.0023 15.6224 14.6883 12.9364 18 12.9364C21.3117 12.9364 23.9977 15.6224 23.9977 18.9341C23.9977 22.2458 21.3117 24.9317 18 24.9317Z" fill="url(#paint1_linear_272_1808)"/>
<path id="Vector_3" d="M29.7703 9.32229C29.7703 10.5176 28.8 11.4809 27.6117 11.4809C26.4164 11.4809 25.4531 10.5106 25.4531 9.32229C25.4531 8.12698 26.4234 7.1637 27.6117 7.1637C28.8 7.1637 29.7703 8.13401 29.7703 9.32229Z" fill="url(#paint2_linear_272_1808)"/>
</g>
<defs>
<linearGradient id="paint0_linear_272_1808" x1="0" y1="0.934082" x2="38.166" y2="3.42568" gradientUnits="userSpaceOnUse">
<stop stop-color="#02FF85"/>
<stop offset="1" stop-color="#19FF0A"/>
</linearGradient>
<linearGradient id="paint1_linear_272_1808" x1="8.75391" y1="9.68799" x2="28.3701" y2="10.9691" gradientUnits="userSpaceOnUse">
<stop stop-color="#02FF85"/>
<stop offset="1" stop-color="#19FF0A"/>
</linearGradient>
<linearGradient id="paint2_linear_272_1808" x1="25.4531" y1="7.1637" x2="30.0327" y2="7.46278" gradientUnits="userSpaceOnUse">
<stop stop-color="#02FF85"/>
<stop offset="1" stop-color="#19FF0A"/>
</linearGradient>
</defs>
</svg>
