<svg width="22" height="22" viewBox="0 0 22 22" fill="none" xmlns="http://www.w3.org/2000/svg">
<path d="M1.06495 6.52067C1.11418 5.44489 1.28262 4.75107 1.51042 4.16212L1.51349 4.15399C1.73922 3.55468 2.09285 3.01177 2.54976 2.56304L2.55617 2.55675L2.56246 2.55033C3.01157 2.09284 3.55467 1.73956 4.15345 1.51442L4.16378 1.51047C4.75138 1.28196 5.44384 1.11414 6.52052 1.06492M1.06495 6.52067C1.01319 7.6701 1 8.0264 1 11.0066C1 13.9875 1.01246 14.343 1.06492 15.4927M1.06495 6.52067L1.06494 6.81061M1.51442 17.8597C1.73956 18.4585 2.09284 19.0016 2.55033 19.4507L2.55674 19.457L2.56302 19.4634C3.01178 19.9203 3.5547 20.2739 4.15401 20.4997L4.16296 20.5031C4.75109 20.7312 5.4439 20.899 6.52052 20.9483M1.51442 17.8597L1.51047 17.8494C1.28196 17.2618 1.11414 16.5693 1.06492 15.4927M1.51442 17.8597L1.50092 17.7887M1.06492 15.4927L1.08255 15.5855M1.06492 15.4927L1.06492 15.202M1.50092 17.7887L1.08255 15.5855M1.50092 17.7887C1.32324 17.3192 1.14026 16.6643 1.08255 15.5855M1.50092 17.7887C1.50716 17.8051 1.51338 17.8214 1.5196 17.8374C1.74494 18.4449 2.10198 18.9949 2.56507 19.448C3.01802 19.911 3.56786 20.268 4.17515 20.4933C4.6625 20.6832 5.34922 20.8816 6.52036 20.9352C7.70224 20.989 8.06739 21 11.0066 21C13.9458 21 14.3113 20.989 15.4931 20.9352C16.6657 20.8815 17.3516 20.682 17.8373 20.4936C18.4449 20.2684 18.9951 19.9113 19.4481 19.448C19.9111 18.9951 20.268 18.4453 20.4934 17.838C20.6832 17.3507 20.8816 16.664 20.9352 15.4928C20.989 14.3109 21 13.9451 21 11.0066C21 8.06812 20.989 7.70193 20.9352 6.52005C20.8812 5.34133 20.6799 4.6544 20.4907 4.16834C20.2433 3.52971 19.9296 3.04671 19.4474 2.5645C18.9661 2.0842 18.4844 1.77031 17.8453 1.52268C17.3575 1.33197 16.6701 1.1319 15.4931 1.07796C15.3908 1.0733 15.2946 1.06897 15.2022 1.06493M1.08255 15.5855C1.08092 15.555 1.07939 15.5243 1.07796 15.4931C1.0733 15.3907 1.06896 15.2944 1.06492 15.202M6.52052 1.06492C7.67022 1.01246 8.0264 1 11.0066 1C13.9868 1 14.3428 1.01318 15.4922 1.06493M6.52052 1.06492L6.81121 1.06492M15.4922 1.06493L15.2022 1.06493M15.4922 1.06493C16.5682 1.11414 17.2621 1.28256 17.8511 1.51039L17.8592 1.51349C18.4585 1.73922 19.0014 2.09285 19.4501 2.54976L19.4564 2.5561L19.4627 2.56233C19.9197 3.01111 20.2733 3.55417 20.4988 4.15364L20.5027 4.16378C20.7312 4.75138 20.899 5.44384 20.9483 6.52052M6.81121 1.06492L15.2022 1.06493M6.81121 1.06492C7.78474 1.02235 8.32283 1.01319 11.0066 1.01319C13.6906 1.01319 14.2285 1.02235 15.2022 1.06493M6.81121 1.06492C6.71881 1.06896 6.6225 1.0733 6.52005 1.07796C5.34744 1.1317 4.66154 1.3312 4.17591 1.51956C3.566 1.74565 3.01401 2.10459 2.55995 2.57038C2.08224 3.05006 1.76955 3.53075 1.52271 4.16778C1.33199 4.65558 1.13189 5.3433 1.07795 6.52036C1.0733 6.62247 1.06897 6.7185 1.06494 6.81061M20.9483 15.4927C20.899 16.5693 20.7312 17.2621 20.5031 17.8502L20.4997 17.8592C20.274 18.4585 19.9203 19.0014 19.4634 19.4501L19.457 19.4564L19.4507 19.4629C19.0016 19.9203 18.4585 20.2736 17.8597 20.4988L17.8494 20.5027C17.2618 20.7312 16.5693 20.899 15.4927 20.9483M1.06492 15.202C1.02235 14.2284 1.01319 13.6904 1.01319 11.0066C1.01319 8.32201 1.02234 7.78467 1.06494 6.81061M1.06492 15.202L1.06494 6.81061M9.22686 15.3033C9.79111 15.537 10.3959 15.6573 11.0066 15.6573C12.24 15.6573 13.423 15.1673 14.2951 14.2951C15.1673 13.423 15.6573 12.24 15.6573 11.0066C15.6573 9.77315 15.1673 8.59023 14.2951 7.71806C13.423 6.84588 12.24 6.3559 11.0066 6.3559C10.3959 6.3559 9.7911 6.47619 9.22686 6.70991C8.66261 6.94363 8.14992 7.2862 7.71806 7.71806C7.28621 8.14991 6.94364 8.6626 6.70992 9.22685C6.4762 9.7911 6.35591 10.3959 6.35591 11.0066C6.35591 11.6173 6.4762 12.2221 6.70992 12.7863C6.94364 13.3506 7.28621 13.8633 7.71806 14.2951C8.14992 14.727 8.66261 15.0696 9.22686 15.3033ZM7.7077 7.70769C8.58262 6.83277 9.76927 6.34125 11.0066 6.34125C12.2439 6.34125 13.4306 6.83277 14.3055 7.70769C15.1804 8.58262 15.6719 9.76926 15.6719 11.0066C15.6719 12.2439 15.1804 13.4306 14.3055 14.3055C13.4306 15.1804 12.2439 15.6719 11.0066 15.6719C9.76927 15.6719 8.58262 15.1804 7.7077 14.3055C6.83278 13.4306 6.34125 12.2439 6.34125 11.0066C6.34125 9.76927 6.83278 8.58262 7.7077 7.70769ZM18.299 5.25505C18.299 5.60919 18.1583 5.94883 17.9079 6.19925C17.6575 6.44967 17.3178 6.59036 16.9637 6.59036C16.6095 6.59036 16.2699 6.44967 16.0195 6.19925C15.769 5.94883 15.6284 5.60919 15.6284 5.25505C15.6284 4.9009 15.769 4.56126 16.0195 4.31084C16.2699 4.06042 16.6095 3.91973 16.9637 3.91973C17.3178 3.91973 17.6575 4.06042 17.9079 4.31084C18.1583 4.56126 18.299 4.9009 18.299 5.25505Z" stroke="url(#paint0_linear_272_1503)" stroke-linejoin="round"/>
<defs>
<linearGradient id="paint0_linear_272_1503" x1="1" y1="1" x2="22.2157" y2="2.38557" gradientUnits="userSpaceOnUse">
<stop stop-color="#02FF85"/>
<stop offset="1" stop-color="#19FF0A"/>
</linearGradient>
</defs>
</svg>
