<svg width="1440" height="1022" viewBox="0 0 1440 1022" fill="none" xmlns="http://www.w3.org/2000/svg">
<path d="M-1156.37 279.911C-1151.28 415.608 -1033.33 528.316 -901.714 561.665C-770.097 595.014 -630.027 563.09 -504.756 510.719C-379.485 458.348 -263.351 386.044 -138.239 333.331C-13.1266 280.618 126.635 247.873 258.531 280.1C418.491 319.197 540.184 445.437 682.283 528.677C906.255 659.921 1191.8 680.239 1432.07 582.015C1555.93 531.397 1679.81 427.518 1673.78 293.794" stroke="white" stroke-opacity="0.2" stroke-width="0.85" stroke-linecap="round" stroke-linejoin="round"/>
<path d="M-1170.43 249.971C-1165.34 385.668 -1047.4 498.376 -915.779 531.725C-784.162 565.074 -644.093 533.149 -518.821 480.779C-393.55 428.408 -277.416 356.104 -152.304 303.391C-27.192 250.677 112.57 217.933 244.466 250.159C404.425 289.257 526.118 415.496 668.217 498.737C892.189 629.98 1177.74 650.298 1418.01 552.075C1541.87 501.456 1665.75 397.577 1659.72 263.854" stroke="white" stroke-opacity="0.2" stroke-width="0.85" stroke-linecap="round" stroke-linejoin="round"/>
<path d="M-1184.5 219.999C-1179.41 355.696 -1061.47 468.404 -929.85 501.753C-798.233 535.102 -658.163 503.178 -532.892 450.807C-407.621 398.436 -291.487 326.132 -166.375 273.419C-41.2626 220.706 98.499 187.961 230.395 220.188C390.354 259.285 512.048 385.524 654.146 468.765C878.118 600.009 1163.67 620.327 1403.94 522.103C1527.8 471.484 1651.68 367.606 1645.65 233.882" stroke="white" stroke-opacity="0.2" stroke-width="0.85" stroke-linecap="round" stroke-linejoin="round"/>
<path d="M-1198.54 190.02C-1193.45 325.718 -1075.51 438.426 -943.889 471.775C-812.271 505.123 -672.202 473.199 -546.931 420.828C-421.66 368.458 -305.526 296.153 -180.414 243.44C-55.3014 190.727 84.4604 157.982 216.357 190.209C376.316 229.306 498.009 355.546 640.108 438.787C864.08 570.03 1149.63 590.348 1389.9 492.125C1513.76 441.506 1637.64 337.627 1631.61 203.903" stroke="white" stroke-opacity="0.2" stroke-width="0.85" stroke-linecap="round" stroke-linejoin="round"/>
<path d="M-1212.61 160.049C-1207.52 295.746 -1089.58 408.454 -957.96 441.803C-826.342 475.152 -686.273 443.228 -561.002 390.857C-435.73 338.486 -319.597 266.182 -194.484 213.469C-69.3722 160.756 70.3896 128.011 202.286 160.237C362.245 199.335 483.938 325.574 626.037 408.815C850.009 540.058 1135.56 560.377 1375.83 462.153C1499.69 411.534 1623.57 307.656 1617.54 173.932" stroke="white" stroke-opacity="0.2" stroke-width="0.85" stroke-linecap="round" stroke-linejoin="round"/>
<path d="M-1226.68 130.108C-1221.59 265.805 -1103.64 378.514 -972.025 411.862C-840.408 445.211 -700.338 413.287 -575.067 360.916C-449.796 308.545 -333.662 236.241 -208.55 183.528C-83.4374 130.815 56.3242 98.0702 188.22 130.297C348.18 169.394 469.873 295.634 611.972 378.874C835.944 510.118 1121.49 530.436 1361.76 432.213C1485.62 381.594 1609.5 277.715 1603.47 143.991" stroke="white" stroke-opacity="0.2" stroke-width="0.85" stroke-linecap="round" stroke-linejoin="round"/>
<path d="M-1240.75 100.136C-1235.66 235.833 -1117.71 348.541 -986.096 381.89C-854.479 415.239 -714.41 383.315 -589.138 330.944C-463.867 278.573 -347.733 206.269 -222.621 153.556C-97.5087 100.843 42.2529 68.098 174.149 100.325C334.108 139.422 455.802 265.662 597.9 348.902C821.872 480.146 1107.42 500.464 1347.69 402.24C1471.55 351.622 1595.43 247.743 1589.4 114.019" stroke="white" stroke-opacity="0.2" stroke-width="0.85" stroke-linecap="round" stroke-linejoin="round"/>
<path d="M-1254.79 70.1582C-1249.7 205.855 -1131.75 318.563 -1000.13 351.912C-868.517 385.261 -728.448 353.337 -603.176 300.966C-477.905 248.595 -361.771 176.291 -236.659 123.578C-111.547 70.8649 28.2148 38.12 160.111 70.3469C320.07 109.444 441.763 235.684 583.862 318.924C807.834 450.168 1093.38 470.486 1333.65 372.262C1457.51 321.644 1581.39 217.765 1575.36 84.0411" stroke="white" stroke-opacity="0.2" stroke-width="0.85" stroke-linecap="round" stroke-linejoin="round"/>
<path d="M-1268.86 40.1855C-1263.77 175.883 -1145.82 288.591 -1014.21 321.94C-882.588 355.288 -742.519 323.364 -617.248 270.993C-491.976 218.623 -375.843 146.318 -250.73 93.6053C-125.618 40.8922 14.1435 8.14737 146.04 40.3742C305.999 79.4714 427.692 205.711 569.791 288.952C793.763 420.195 1079.31 440.513 1319.58 342.29C1443.44 291.671 1567.32 187.792 1561.29 54.0685" stroke="white" stroke-opacity="0.2" stroke-width="0.85" stroke-linecap="round" stroke-linejoin="round"/>
<path d="M-1282.93 10.2133C-1277.84 145.91 -1159.89 258.619 -1028.28 291.967C-896.659 325.316 -756.59 293.392 -631.319 241.021C-506.047 188.651 -389.913 116.346 -264.801 63.6331C-139.689 10.9201 0.0727207 -21.8248 131.969 10.402C291.928 49.4992 413.621 175.739 555.72 258.979C779.692 390.223 1065.24 410.541 1305.51 312.318C1429.37 261.699 1553.25 157.82 1547.22 24.0963" stroke="white" stroke-opacity="0.2" stroke-width="0.85" stroke-linecap="round" stroke-linejoin="round"/>
</svg>
