<svg width="22" height="22" viewBox="0 0 22 22" fill="none" xmlns="http://www.w3.org/2000/svg">
<path d="M21 2.47059V19.5294C21 19.9194 20.8451 20.2935 20.5693 20.5693C20.2935 20.8451 19.9194 21 19.5294 21H2.47059C2.08056 21 1.70651 20.8451 1.43073 20.5693C1.15494 20.2935 1 19.9194 1 19.5294V2.47059C1 2.08056 1.15494 1.70651 1.43073 1.43073C1.70651 1.15494 2.08056 1 2.47059 1L19.5294 1C19.9194 1 20.2935 1.15494 20.5693 1.43073C20.8451 1.70651 21 2.08056 21 2.47059V2.47059ZM6.88235 8.64706H3.94118V18.0588H6.88235V8.64706ZM7.14706 5.41176C7.14861 5.18929 7.10632 4.96869 7.02262 4.76255C6.93891 4.55642 6.81542 4.36879 6.65919 4.21039C6.50297 4.05198 6.31708 3.92589 6.11213 3.83933C5.90718 3.75277 5.68718 3.70742 5.46471 3.70588H5.41176C4.95934 3.70588 4.52544 3.88561 4.20552 4.20552C3.88561 4.52544 3.70588 4.95934 3.70588 5.41176C3.70588 5.86419 3.88561 6.29809 4.20552 6.61801C4.52544 6.93792 4.95934 7.11765 5.41176 7.11765V7.11765C5.63426 7.12312 5.85565 7.0847 6.06328 7.00458C6.27092 6.92447 6.46074 6.80422 6.62189 6.65072C6.78304 6.49722 6.91237 6.31346 7.00248 6.10996C7.09259 5.90646 7.14172 5.6872 7.14706 5.46471V5.41176ZM18.0588 12.3412C18.0588 9.51177 16.2588 8.41177 14.4706 8.41177C13.8851 8.38245 13.3021 8.50715 12.7799 8.77345C12.2576 9.03974 11.8143 9.43832 11.4941 9.92941H11.4118V8.64706H8.64706V18.0588H11.5882V13.0529C11.5457 12.5403 11.7072 12.0315 12.0376 11.6372C12.3681 11.2429 12.8407 10.9949 13.3529 10.9471H13.4647C14.4 10.9471 15.0941 11.5353 15.0941 13.0176V18.0588H18.0353L18.0588 12.3412Z" stroke="url(#paint0_linear_272_1505)" stroke-linejoin="round"/>
<defs>
<linearGradient id="paint0_linear_272_1505" x1="1" y1="1" x2="22.2157" y2="2.38557" gradientUnits="userSpaceOnUse">
<stop stop-color="#02FF85"/>
<stop offset="1" stop-color="#19FF0A"/>
</linearGradient>
</defs>
</svg>
