<svg width="36" height="37" viewBox="0 0 36 37" fill="none" xmlns="http://www.w3.org/2000/svg">
<g id="LinkedIn - Negative">
<path id="Vector" d="M33.3352 0.934082H2.65781C1.18828 0.934082 0 2.09424 0 3.52861V34.3325C0 35.7669 1.18828 36.9341 2.65781 36.9341H33.3352C34.8047 36.9341 36 35.7669 36 34.3396V3.52861C36 2.09424 34.8047 0.934082 33.3352 0.934082ZM10.6805 31.6114H5.33672V14.427H10.6805V31.6114ZM8.00859 12.0856C6.29297 12.0856 4.90781 10.7005 4.90781 8.99189C4.90781 7.2833 6.29297 5.89814 8.00859 5.89814C9.71719 5.89814 11.1023 7.2833 11.1023 8.99189C11.1023 10.6935 9.71719 12.0856 8.00859 12.0856ZM30.6773 31.6114H25.3406V23.2583C25.3406 21.2685 25.3055 18.702 22.5633 18.702C19.7859 18.702 19.3641 20.8747 19.3641 23.1177V31.6114H14.0344V14.427H19.1531V16.7755H19.2234C19.9336 15.4255 21.6773 13.9981 24.2719 13.9981C29.6789 13.9981 30.6773 17.556 30.6773 22.1825V31.6114Z" fill="url(#paint0_linear_272_1807)"/>
</g>
<defs>
<linearGradient id="paint0_linear_272_1807" x1="0" y1="0.934082" x2="38.1882" y2="3.4281" gradientUnits="userSpaceOnUse">
<stop stop-color="#02FF85"/>
<stop offset="1" stop-color="#19FF0A"/>
</linearGradient>
</defs>
</svg>
