<svg width="148" height="38" viewBox="0 0 148 38" fill="none" xmlns="http://www.w3.org/2000/svg">
<g clip-path="url(#clip0_272_1773)">
<mask id="mask0_272_1773" style="mask-type:luminance" maskUnits="userSpaceOnUse" x="0" y="0" width="148" height="38">
<path d="M148 0H0V37.9701H148V0Z" fill="white"/>
</mask>
<g mask="url(#mask0_272_1773)">
<path d="M50.4445 10.2529C51.8475 12.0453 52.771 14.017 53.1144 16.1082C47.0641 17.4466 42.6241 19.3586 41.6236 19.8306C40.4041 18.7491 33.2113 12.4218 31.4176 11.0475C30.4881 10.3246 29.8784 10.0019 29.3752 9.85258C28.9075 9.70918 28.1912 9.56578 27.1197 9.92427C26.0837 10.2469 25.0773 11.0834 24.0413 11.9139C23.1118 12.6727 22.1054 13.4674 21.3536 13.6466C20.063 13.9334 18.8139 13.6466 18.3817 13.1029C18.2041 12.8878 18.4883 12.6309 18.4883 12.595L20.7793 10.0318C22.5672 8.22742 24.2544 6.52459 28.1912 6.41704C30.8019 6.34534 33.4896 7.64786 33.5251 7.64786C38.4505 10.0975 43.4885 9.20729 47.6325 7.44471C42.8491 3.56109 35.4609 1.06958 27.1729 1.06958C12.7459 1.06958 1.03613 8.62176 1.03613 17.9425C1.03613 27.2633 12.7459 34.8214 27.1729 34.8214C41.6 34.8214 53.3097 27.2334 53.3097 17.9485C53.3097 15.1762 52.2737 12.5592 50.4445 10.2529ZM25.172 29.5218C23.9525 29.5218 22.9165 28.5479 22.8809 27.2812C22.8809 27.0661 22.8454 27.0303 22.6678 27.1736C22.3126 27.5321 21.7384 27.9325 20.7675 27.5321C19.4769 27.0243 19.4059 26.1221 19.4769 25.6919C19.5125 25.5485 19.4769 25.5126 19.3349 25.6202C18.8672 25.9787 18.2633 26.1639 17.5825 25.907C15.8657 25.2199 16.0078 23.5589 16.0789 23.1227V23.051C15.7592 23.3736 15.327 23.5589 14.8238 23.5589C13.8233 23.5589 13.0005 22.7284 13.0005 21.7186C13.0005 20.7089 13.8233 19.8784 14.8238 19.8784C15.7533 19.8784 16.5051 20.5655 16.6117 21.4677C16.8603 21.0674 17.8667 19.9859 19.4414 20.4579C20.5485 20.8164 20.6965 21.8321 20.732 22.1906C20.732 22.2982 20.7675 22.2982 20.8385 22.2265C21.1227 21.9397 21.8745 21.3243 23.1651 21.868C24.8109 22.5909 24.1301 24.6881 24.0945 24.7957C24.059 24.9032 23.988 25.1183 24.0235 25.1542C24.0945 25.19 24.6688 24.9032 25.172 24.9032C26.427 24.9032 27.463 25.913 27.463 27.2155C27.463 28.4702 26.427 29.5218 25.172 29.5218ZM41.2329 23.1586C40.0134 23.9532 39.0129 23.2303 38.9774 23.1944C38.9774 23.1944 36.1121 20.5177 35.0406 19.6155C34.8985 19.5079 34.6854 19.2928 34.5729 19.4362C34.4309 19.6155 34.7861 19.9082 34.7861 19.9082L38.1131 23.3019C38.1131 23.3019 38.5808 23.7381 38.6163 24.3475C38.6518 24.8196 38.5097 25.3931 37.7579 25.901C36.5384 26.6957 35.6089 26.1161 35.3958 25.9727C34.3243 24.9271 33.2469 23.8038 32.3174 23.1884C32.1398 23.0809 31.9208 22.9016 31.8142 23.0092C31.6721 23.1526 32.0273 23.4812 32.0273 23.4812L34.4605 26.2655C34.4605 26.2655 35.0702 26.9884 34.5315 27.6755L34.567 27.6397C34.4605 27.7472 34.3539 27.8906 34.2118 27.9982C33.7086 28.4343 32.9923 28.4702 32.5661 28.3985C32.0984 28.2909 32.0273 28.1117 31.9918 28.1117C31.9918 28.1117 30.7013 26.7733 29.6297 25.8711C29.4877 25.7636 29.2745 25.5485 29.1621 25.6919C29.02 25.8353 29.3752 26.1639 29.3752 26.1639L31.4886 28.512C31.5597 28.6196 31.4886 28.7271 31.4176 28.8347C31.311 29.0139 31.0209 29.2708 30.2336 29.3784C29.2686 29.5218 28.1201 28.9422 27.6939 28.6913C27.907 28.2551 28.0491 27.7891 28.0491 27.2812C28.0491 25.656 26.723 24.3177 25.1128 24.3177H24.8286C24.9352 23.3079 24.7221 21.9337 23.3605 21.3541C22.9638 21.1749 22.5376 21.0674 22.1409 21.0674C21.7443 21.0674 21.3891 21.1391 21.1049 21.2825C20.8918 20.7746 20.4241 20.201 19.6013 19.9082C19.2461 19.8007 18.8849 19.729 18.5297 19.729C17.7779 19.729 17.2037 20.0158 16.7774 20.3444C16.3453 19.729 15.5934 19.2988 14.7705 19.2988C14.0542 19.2988 13.4089 19.6214 12.9472 20.1293C12.515 19.7708 10.224 18.0321 2.77661 16.3711C2.45693 16.2994 1.70509 16.0843 1.23741 15.935C1.88269 12.5413 4.06717 9.42836 7.35869 6.9727C10.0819 8.23937 11.9408 8.81295 14.0187 9.39251C14.3739 9.50006 16.1677 9.79283 16.5229 9.79283C17.3457 9.79283 18.1686 9.57773 18.9915 9.32081C19.6723 9.14157 20.3531 8.96232 21.1049 8.8488C20.8208 9.09975 20.5662 9.35666 20.2821 9.64346L17.9969 12.1768C17.9259 12.2843 17.4582 12.7205 17.7128 13.2941C17.7838 13.5092 17.9969 13.7302 18.2515 13.9095C18.8968 14.3815 20.3649 14.6683 21.543 14.4174C22.4369 14.2023 23.4433 13.4076 24.5149 12.5413C25.5153 11.7108 26.6638 10.9519 27.5577 10.701C27.8774 10.6293 28.3451 10.5576 28.6648 10.5935C29.3101 10.6652 29.9198 10.8802 31.0269 11.7108C32.9272 13.1208 41.304 20.5296 41.375 20.6013C41.375 20.6013 41.9848 21.1092 41.9848 21.9755C41.9493 22.4356 41.6651 22.8718 41.2329 23.1586Z" fill="#808080"/>
<path d="M27.1728 0.0239258C12.1715 0.0239258 0 8.08397 0 17.9484V18.994C0 29.4739 10.6323 37.9642 27.1728 37.9642C43.8198 37.9642 54.3456 29.4739 54.3456 18.994V17.9484C54.3515 8.04812 42.1741 0.0239258 27.1728 0.0239258ZM25.1718 29.5217C23.9523 29.5217 22.9163 28.5478 22.8808 27.2811C22.8808 27.066 22.8453 27.0302 22.6677 27.1736C22.3125 27.5321 21.7382 27.9324 20.7674 27.5321C19.4768 27.0242 19.4058 26.122 19.4768 25.6918C19.5123 25.5484 19.4768 25.5126 19.3347 25.6201C18.867 25.9786 18.2632 26.1638 17.5824 25.9069C15.8656 25.2198 16.0077 23.5588 16.0787 23.1226V23.0509C15.759 23.3736 15.3269 23.5588 14.8237 23.5588C13.8232 23.5588 13.0003 22.7283 13.0003 21.7186C13.0003 20.7088 13.8232 19.8783 14.8237 19.8783C15.7531 19.8783 16.505 20.5654 16.6115 21.4676C16.8602 21.0673 17.8666 19.9859 19.4413 20.4579C20.5483 20.8164 20.6963 21.8321 20.7318 22.1906C20.7318 22.2981 20.7674 22.2981 20.8384 22.2264C21.1226 21.9396 21.8744 21.3242 23.165 21.8679C24.8107 22.5909 24.1299 24.6881 24.0944 24.7956C24.0589 24.9031 23.9878 25.1182 24.0234 25.1541C24.0944 25.1899 24.6686 24.9031 25.1718 24.9031C26.4269 24.9031 27.4629 25.9129 27.4629 27.2154C27.4629 28.4701 26.4269 29.5217 25.1718 29.5217ZM41.2328 23.1585C40.0133 23.9531 39.0128 23.2302 38.9773 23.1943C38.9773 23.1943 36.112 20.5176 35.0405 19.6154C34.8984 19.5079 34.6853 19.2928 34.5728 19.4362C34.4307 19.6154 34.7859 19.9082 34.7859 19.9082L38.113 23.3019C38.113 23.3019 38.5806 23.7381 38.6162 24.3475C38.6517 24.8195 38.5096 25.3931 37.7578 25.9009C36.5382 26.6956 35.6088 26.116 35.3957 25.9726C34.3242 24.927 33.2467 23.8038 32.3173 23.1884C32.1397 23.0808 31.9206 22.9016 31.8141 23.0091C31.672 23.1525 32.0272 23.4811 32.0272 23.4811L34.4603 26.2654C34.4603 26.2654 35.0701 26.9884 34.5314 27.6755L34.5669 27.6396C34.4603 27.7472 34.3538 27.8906 34.2117 27.9981C33.7085 28.4343 32.9922 28.4701 32.5659 28.3984C32.0982 28.2909 32.0272 28.1116 31.9917 28.1116C31.9917 28.1116 30.7011 26.7733 29.6296 25.8711C29.4875 25.7635 29.2744 25.5484 29.1619 25.6918C29.0198 25.8352 29.375 26.1638 29.375 26.1638L31.4885 28.512C31.5595 28.6195 31.4885 28.727 31.4174 28.8346C31.3109 29.0138 31.0208 29.2708 30.2334 29.3783C29.2685 29.5217 28.12 28.9421 27.6938 28.6912C27.9069 28.255 28.049 27.789 28.049 27.2811C28.049 25.656 26.7229 24.3176 25.1126 24.3176H24.8285C24.935 23.3079 24.7219 21.9337 23.3603 21.3541C22.9637 21.1748 22.5374 21.0673 22.1408 21.0673C21.7442 21.0673 21.389 21.139 21.1048 21.2824C20.8917 20.7745 20.424 20.2009 19.6011 19.9082C19.2459 19.8006 18.8848 19.7289 18.5296 19.7289C17.7778 19.7289 17.2035 20.0157 16.7773 20.3443C16.3451 19.7289 15.5933 19.2987 14.7704 19.2987C14.0541 19.2987 13.4088 19.6214 12.947 20.1292C12.5149 19.7708 10.2238 18.0321 2.77648 16.3711C2.4568 16.2994 1.70496 16.0843 1.23728 15.9349C1.88256 12.5412 4.06704 9.4283 7.35856 6.97264C10.0818 8.23931 11.9406 8.8129 14.0186 9.39246C14.3738 9.5 16.1675 9.79277 16.5227 9.79277C17.3456 9.79277 18.1685 9.57768 18.9914 9.32076C19.6722 9.14151 20.353 8.96227 21.1048 8.84875C20.8206 9.09969 20.5661 9.35661 20.2819 9.6434L17.9968 12.1767C17.9258 12.2843 17.4581 12.7204 17.7126 13.294C17.7837 13.5091 17.9968 13.7302 18.2514 13.9094C18.8966 14.3815 20.3648 14.6682 21.5429 14.4173C22.4368 14.2022 23.4432 13.4076 24.5147 12.5412C25.5152 11.7107 26.6637 10.9519 27.5576 10.7009C27.8773 10.6292 28.345 10.5576 28.6646 10.5934C29.3099 10.6651 29.9197 10.8802 31.0267 11.7107C32.927 13.1208 41.3038 20.5296 41.3749 20.6013C41.3749 20.6013 41.9846 21.1091 41.9846 21.9755C41.9491 22.4355 41.665 22.8717 41.2328 23.1585ZM41.6235 19.8305C40.404 18.7491 33.2112 12.4217 31.4174 11.0475C30.488 10.3245 29.8782 10.0019 29.375 9.85252C28.9074 9.70912 28.191 9.56573 27.1195 9.92422C26.0835 10.2469 25.0771 11.0833 24.0411 11.9138C23.1117 12.6726 22.1053 13.4673 21.3534 13.6465C20.0629 13.9333 18.8138 13.6465 18.3816 13.1028C18.204 12.8877 18.4882 12.6308 18.4882 12.595L20.7792 10.0318C22.567 8.22736 24.2542 6.52453 28.191 6.41698C30.8018 6.34529 33.4894 7.6478 33.525 7.6478C38.4682 10.1035 43.512 9.20126 47.6678 7.43271C50.6397 9.88837 52.5755 12.8519 53.1083 16.1022C47.064 17.4465 42.624 19.3585 41.6235 19.8305Z" fill="#808080"/>
<path d="M25.1739 29.3475C24.0282 29.3475 23.0972 28.4442 23.0615 27.2878C23.0615 27.1795 23.0615 26.9265 22.8466 26.9265C22.7393 26.9265 22.6676 26.9988 22.596 27.0711C22.3454 27.324 22.0232 27.5408 21.5577 27.5408C21.3429 27.5408 21.1281 27.5047 20.8775 27.3963C19.6601 26.8904 19.6601 26.0593 19.696 25.7341C19.696 25.6256 19.696 25.5534 19.6601 25.4811L19.5886 25.4089H19.4453C19.3737 25.4089 19.3021 25.445 19.2305 25.4811C18.8725 25.7341 18.5503 25.8425 18.1922 25.8425C18.0132 25.8425 17.7984 25.8063 17.6193 25.7341C16.0082 25.1197 16.1514 23.6021 16.2231 23.1323C16.2231 23.024 16.2231 22.9517 16.1514 22.9156L16.044 22.8071L15.9366 22.9156C15.6144 23.2046 15.2206 23.3853 14.7909 23.3853C13.86 23.3853 13.1439 22.6264 13.1439 21.7231C13.1439 20.7836 13.8958 20.0609 14.7909 20.0609C15.6144 20.0609 16.3304 20.6752 16.4379 21.5063L16.5095 21.9399L16.7601 21.5424C16.7959 21.5063 17.4404 20.4584 18.6935 20.4945C18.9441 20.4945 19.1589 20.5306 19.4096 20.6029C20.3762 20.892 20.5553 21.7953 20.591 22.1929C20.6268 22.4097 20.77 22.4097 20.8058 22.4097C20.8775 22.4097 20.9491 22.3374 20.9849 22.3012C21.1639 22.1206 21.5577 21.7953 22.2022 21.7953C22.4886 21.7953 22.8108 21.8676 23.1331 22.0122C24.7084 22.6987 23.9923 24.6861 23.9923 24.7223C23.8491 25.0475 23.8491 25.192 23.9923 25.3004L24.064 25.3366H24.0997C24.1714 25.3366 24.2429 25.3004 24.3862 25.2643C24.601 25.192 24.9232 25.0837 25.2097 25.0837C26.3911 25.0837 27.3579 26.0593 27.3579 27.2517C27.322 28.3719 26.3554 29.3475 25.1739 29.3475ZM41.7149 19.6995C39.1371 17.423 33.1937 12.1835 31.5826 10.991C30.6518 10.3045 30.0431 9.90696 29.4702 9.76243C29.2196 9.69019 28.8616 9.6179 28.4319 9.6179C28.0381 9.6179 27.5726 9.69019 27.1072 9.83472C26.0689 10.1599 25.0307 10.991 24.0282 11.8221L23.9923 11.8583C23.0615 12.6171 22.0947 13.376 21.3429 13.5566C21.0207 13.6289 20.6985 13.665 20.3762 13.665C19.5528 13.665 18.8367 13.412 18.5503 13.0868C18.5145 13.0146 18.5503 12.9423 18.6577 12.7978V12.7616L20.9133 10.3045C22.7034 8.49773 24.3504 6.83553 28.2171 6.72709H28.3961C30.795 6.72709 33.1937 7.81116 33.4802 7.95569C35.7358 9.07586 38.063 9.6179 40.3902 9.6179C42.8248 9.6179 45.331 9.00362 47.9805 7.77502C47.6941 7.5221 47.3718 7.26913 47.0496 7.0523C44.7224 8.06408 42.5026 8.56997 40.3902 8.56997C38.2062 8.56997 36.0222 8.02799 33.9098 7.01621C33.8024 6.94391 31.153 5.71533 28.3961 5.71533H28.1813C24.9232 5.7876 23.0972 6.94391 21.88 7.95569C20.6985 7.99184 19.6601 8.28091 18.7293 8.53388C17.9058 8.75065 17.1897 8.96747 16.5095 8.96747C16.2231 8.96747 15.7218 8.93133 15.686 8.93133C14.8983 8.89518 10.8884 7.91955 7.73768 6.691C7.41546 6.90777 7.09323 7.16074 6.80682 7.41366C10.1365 8.7868 14.1823 9.83472 15.4354 9.94311C15.7934 9.97925 16.1514 10.0154 16.5453 10.0154C17.4046 10.0154 18.228 9.76243 19.0515 9.5456C19.5169 9.40107 20.054 9.25654 20.6268 9.14815C20.4836 9.29269 20.3404 9.43722 20.1614 9.58175L17.87 12.1112C17.691 12.2919 17.2971 12.7978 17.5478 13.412C17.6552 13.665 17.87 13.8818 18.1564 14.0986C18.6935 14.46 19.696 14.7129 20.591 14.7129C20.949 14.7129 21.2713 14.6768 21.5577 14.6045C22.5244 14.3877 23.5269 13.5566 24.601 12.7255C25.4603 12.039 26.6776 11.1717 27.6085 10.9187C27.8591 10.8465 28.1813 10.8104 28.4319 10.8104H28.6468C29.2554 10.8826 29.8641 11.0994 30.9023 11.8944C32.7999 13.3398 41.1779 20.7113 41.2495 20.7836C41.2495 20.7836 41.7866 21.2534 41.7507 22.0122C41.7149 22.4458 41.5001 22.8433 41.0705 23.0962C40.7124 23.313 40.3544 23.4575 39.9606 23.4575C39.3877 23.4575 39.0297 23.2046 38.9939 23.1685C38.9581 23.1323 36.0938 20.4945 35.0555 19.5911C34.8765 19.4466 34.7333 19.3382 34.5543 19.3382C34.4827 19.3382 34.3753 19.3743 34.3395 19.4466C34.1605 19.6634 34.3753 19.9525 34.5901 20.1331L37.9556 23.5298C37.9556 23.5298 38.3852 23.9273 38.421 24.4332C38.4569 25.0114 38.1704 25.4811 37.6334 25.8425C37.2395 26.0954 36.8457 26.24 36.4519 26.24C35.9506 26.24 35.5926 25.987 35.4852 25.9508L35.0197 25.4811C34.1247 24.6139 33.2296 23.7105 32.5851 23.1323C32.4061 22.9878 32.2629 22.8794 32.0839 22.8794C32.0123 22.8794 31.9407 22.9156 31.869 22.9517C31.7975 23.024 31.7258 23.2046 31.9407 23.4575C32.0123 23.566 32.1197 23.6382 32.1197 23.6382L34.5543 26.4206C34.5901 26.4567 35.0555 27.0349 34.6259 27.6131H34.4827L34.2679 27.8299C33.8383 28.1912 33.3012 28.2274 33.0864 28.2274C32.979 28.2274 32.8715 28.2274 32.7641 28.1912C32.5135 28.1551 32.3703 28.0828 32.2987 27.9744L32.2629 27.9383C32.1197 27.7937 30.9023 26.529 29.8641 25.6618C29.7208 25.5534 29.5776 25.4089 29.3986 25.4089C29.327 25.4089 29.2554 25.445 29.1838 25.5173C28.969 25.7341 29.2912 26.0593 29.3986 26.2038L31.4752 28.5164C31.4752 28.5526 31.4394 28.5887 31.4036 28.661C31.332 28.7694 31.0814 29.0223 30.3295 29.1307H30.0431C29.2554 29.1307 28.4319 28.7333 28.0023 28.5164C28.1813 28.0828 28.2887 27.6492 28.2887 27.1795C28.2887 25.445 26.8924 24.0357 25.1739 24.0357H25.0664C25.138 23.2408 24.9948 21.7593 23.4911 21.0727C23.0615 20.892 22.6318 20.7836 22.2022 20.7836C21.88 20.7836 21.5577 20.8559 21.2355 20.9642C20.9133 20.35 20.412 19.8802 19.696 19.6634C19.3021 19.5189 18.9441 19.4827 18.5861 19.4827C17.9416 19.4827 17.3688 19.6634 16.8317 20.0609C16.3304 19.4466 15.5786 19.0491 14.7909 19.0491C14.1107 19.0491 13.4304 19.3382 12.9292 19.8079C12.2847 19.302 9.70685 17.6398 2.79684 16.086C2.47461 16.0138 1.68694 15.797 1.2215 15.6524C1.14989 16.0138 1.07828 16.4112 1.04248 16.8087C1.04248 16.8087 2.2956 17.1339 2.54622 17.1701C9.59946 18.76 11.9267 20.3861 12.3205 20.7113C12.1773 21.0365 12.1057 21.3979 12.1057 21.7231C12.1057 23.2046 13.2872 24.3971 14.7551 24.3971C14.9342 24.3971 15.0774 24.3971 15.2206 24.3609C15.4354 25.445 16.1514 26.2761 17.2255 26.6736C17.5478 26.7819 17.87 26.8542 18.1564 26.8542C18.3712 26.8542 18.5503 26.8181 18.7651 26.7819C18.9799 27.2878 19.4096 27.9383 20.412 28.3358C20.77 28.4803 21.0923 28.5526 21.4503 28.5526C21.7368 28.5526 21.9874 28.5164 22.238 28.4081C22.7034 29.5644 23.8491 30.3593 25.1022 30.3593C25.9257 30.3593 26.7492 30.0341 27.322 29.4198C27.8233 29.7089 28.8974 30.2148 29.9715 30.2148C30.1147 30.2148 30.2579 30.2148 30.3653 30.1786C31.4394 30.0341 31.9407 29.6366 32.1555 29.3114C32.1913 29.2392 32.2271 29.203 32.2629 29.1307C32.5135 29.203 32.7999 29.2753 33.1222 29.2753C33.695 29.2753 34.2679 29.0585 34.8407 28.661C35.3777 28.2635 35.7716 27.6853 35.8432 27.1795V27.1433C36.058 27.1433 36.2729 27.1795 36.4519 27.1795C37.0605 27.1795 37.6334 26.9988 38.2062 26.6374C39.2803 25.9148 39.4951 24.9752 39.4594 24.3609C39.6384 24.3971 39.8531 24.4332 40.0322 24.4332C40.605 24.4332 41.1421 24.2526 41.6791 23.9273C42.3594 23.4937 42.7532 22.8433 42.8248 22.0483C42.8606 21.5063 42.7532 21.0004 42.4668 20.5306C44.2928 19.7357 48.4459 18.218 53.3152 17.0978C53.2794 16.7004 53.2435 16.339 53.172 15.9776C47.2286 17.2785 42.8248 19.1937 41.7149 19.6995Z" fill="#808080"/>
<path d="M144.123 13.6141C143.662 14.2584 142.988 14.5448 142.101 14.5448C141.215 14.5448 140.541 14.2226 140.08 13.6141C139.619 12.9697 139.371 12.0747 139.371 10.9292C139.371 9.78361 139.619 8.85291 140.08 8.24431C140.541 7.59993 141.25 7.31355 142.101 7.31355C142.988 7.31355 143.662 7.63572 144.123 8.24431C144.584 8.8887 144.832 9.78361 144.832 10.9292C144.832 12.1105 144.62 13.0055 144.123 13.6141ZM146.535 6.5618C145.578 5.34466 144.088 4.73608 142.101 4.73608C140.115 4.73608 138.661 5.34466 137.668 6.5618C136.71 7.77893 136.213 9.24665 136.213 10.9292C136.213 12.6475 136.71 14.0794 137.668 15.2966C138.625 16.5137 140.115 17.1223 142.101 17.1223C144.088 17.1223 145.542 16.5137 146.535 15.2966C147.493 14.0794 147.989 12.6117 147.989 10.9292C147.989 9.24665 147.528 7.81472 146.535 6.5618Z" fill="#808080"/>
<path d="M120.174 12.1779C120.138 13.2161 119.854 13.8963 119.322 14.29C118.755 14.6838 118.152 14.8628 117.514 14.8628C117.088 14.8628 116.733 14.7554 116.449 14.5048C116.166 14.29 116.024 13.8963 116.024 13.3592C116.024 12.7865 116.272 12.3569 116.733 12.0705C117.017 11.8915 117.478 11.7841 118.116 11.6409L118.791 11.4978C119.145 11.4261 119.393 11.3546 119.606 11.283C119.819 11.2113 119.997 11.104 120.174 10.9965V12.1779ZM121.699 5.55523C120.706 5.05405 119.571 4.80347 118.329 4.80347C116.379 4.80347 114.995 5.30464 114.215 6.3428C113.718 6.98718 113.435 7.84631 113.364 8.84864H116.272C116.343 8.38326 116.485 8.02531 116.698 7.77473C116.981 7.41671 117.514 7.23777 118.223 7.23777C118.862 7.23777 119.358 7.30935 119.677 7.52414C119.997 7.70315 120.174 8.02531 120.174 8.52648C120.174 8.92028 119.961 9.20666 119.535 9.38566C119.287 9.49303 118.897 9.56461 118.329 9.63625L117.301 9.77941C116.13 9.92262 115.243 10.1732 114.641 10.5312C113.541 11.1755 112.974 12.2137 112.974 13.6457C112.974 14.7554 113.328 15.6146 114.002 16.2231C114.676 16.8317 115.562 17.0823 116.591 17.1181C123.189 17.4044 123.118 13.6098 123.189 12.8223V8.4549C123.189 7.02297 122.692 6.05642 121.699 5.55523Z" fill="#808080"/>
<path d="M106.678 7.41327C107.423 7.41327 107.991 7.66386 108.345 8.12924C108.593 8.48719 108.736 8.88099 108.807 9.31059H112.07C111.892 7.66386 111.325 6.48251 110.332 5.83813C109.374 5.19376 108.132 4.87158 106.607 4.87158C104.798 4.87158 103.415 5.40855 102.386 6.5183C101.358 7.62807 100.861 9.16737 100.861 11.172C100.861 12.9262 101.322 14.3939 102.245 15.4678C103.167 16.5776 104.621 17.1146 106.572 17.1146C108.523 17.1146 110.012 16.4345 111.006 15.1099C111.644 14.2866 111.963 13.4274 112.07 12.4966H108.842C108.771 13.1052 108.593 13.6064 108.274 14.0001C107.955 14.3939 107.423 14.5729 106.678 14.5729C105.614 14.5729 104.905 14.1075 104.55 13.1052C104.338 12.604 104.231 11.888 104.231 11.0647C104.231 10.1697 104.338 9.45374 104.55 8.91678C104.869 7.91444 105.614 7.41327 106.678 7.41327Z" fill="#808080"/>
<path d="M99.9621 4.8396C93.2938 4.8396 93.684 10.8179 93.684 10.8179V16.8678H96.6984V11.1759C96.6984 10.2452 96.805 9.56498 97.0536 9.0996C97.4793 8.31205 98.2951 7.91825 99.501 7.91825H99.8556C99.9976 7.91825 100.175 7.95404 100.352 7.95404V4.8396H99.9621Z" fill="#808080"/>
<path d="M84.7514 8.00862C85.177 7.57908 85.7803 7.3285 86.5605 7.3285C87.2697 7.3285 87.873 7.5433 88.3342 7.97283C88.7953 8.40242 89.0789 9.01102 89.1499 9.79856H83.9711C84.0777 9.0468 84.3257 8.43821 84.7514 8.00862ZM88.8308 13.7006C88.6888 13.8796 88.5822 14.0586 88.4052 14.1659C87.9795 14.5239 87.4118 14.6313 86.7026 14.6313C86.0638 14.6313 85.5316 14.5239 85.0711 14.2376C84.3257 13.7722 83.9001 12.9846 83.8296 11.8032H92.2005C92.2005 10.8009 92.165 10.0134 92.0939 9.51219C91.9519 8.61721 91.6328 7.79388 91.1716 7.1137C90.6394 6.3261 89.9657 5.75335 89.1855 5.39537C88.3697 5.03739 87.4829 4.8584 86.4895 4.8584C84.7869 4.8584 83.4395 5.39537 82.3751 6.46932C81.3113 7.5433 80.7791 9.08259 80.7791 11.0873C80.7791 13.2352 81.3817 14.7745 82.5527 15.7411C83.7231 16.7076 85.0711 17.173 86.596 17.173C88.4407 17.173 89.8947 16.6002 90.9236 15.4905C91.4907 14.8819 91.8098 14.3091 91.9874 13.7363L88.8308 13.7006Z" fill="#808080"/>
<path d="M79.6423 16.8728H76.8753V9.8206C76.8753 9.17621 76.6627 7.63691 74.8536 7.63691C73.6477 7.63691 72.7609 8.53188 72.7609 9.8206V16.8728H69.9944V9.8206C69.9944 9.17621 69.8168 7.63691 67.9728 7.63691C66.7313 7.63691 65.88 8.53188 65.88 9.8206V16.8728H63.113V9.89217C63.113 6.99252 65.0287 4.80884 67.9728 4.80884C69.4267 4.80884 70.6326 5.41741 71.4129 6.41977C72.2292 5.41741 73.4352 4.80884 74.8536 4.80884C77.8686 4.80884 79.6423 6.92094 79.6423 9.89217V16.8728Z" fill="#808080"/>
<path d="M131.702 13.6568C131.277 14.3012 130.602 14.6234 129.751 14.6234C128.9 14.6234 128.262 14.3012 127.836 13.6568C127.41 13.0124 127.197 12.0817 127.197 11.0077C127.197 10.0054 127.41 9.18201 127.8 8.50183C128.226 7.82171 128.864 7.49949 129.751 7.49949C130.319 7.49949 130.851 7.6785 131.277 8.03645C131.986 8.64505 132.34 9.75481 132.34 11.1509C132.376 12.1891 132.128 13.0124 131.702 13.6568ZM135.32 1.16321C135.32 1.16321 132.269 0.841024 132.269 3.3111V6.60452C131.915 6.06756 131.489 5.63799 130.957 5.3158C130.425 4.99362 129.787 4.85042 129.113 4.85042C127.587 4.85042 126.381 5.4232 125.495 6.56873C124.573 7.71429 124.147 9.36101 124.147 11.3299C124.147 13.0482 124.608 14.4443 125.53 15.5541C126.452 16.6639 128.262 17.1293 129.858 17.1293C135.427 17.1293 135.391 12.2965 135.391 12.2965L135.32 1.16321Z" fill="#808080"/>
<path d="M117.478 25.8394C117.903 25.4098 118.506 25.195 119.251 25.195C119.96 25.195 120.528 25.4098 121.025 25.8036C121.485 26.2331 121.77 26.8417 121.805 27.6293H116.662C116.804 26.8775 117.052 26.269 117.478 25.8394ZM121.521 31.4955C121.379 31.6745 121.273 31.8177 121.095 31.9609C120.67 32.3189 120.067 32.4263 119.393 32.4263C118.755 32.4263 118.258 32.3189 117.797 32.0325C117.052 31.5671 116.662 30.7437 116.591 29.5982H124.891C124.891 28.5958 124.855 27.8441 124.785 27.3071C124.643 26.4122 124.359 25.6246 123.862 24.9086C123.33 24.1211 122.692 23.5483 121.876 23.1903C121.095 22.8323 120.174 22.6533 119.18 22.6533C117.513 22.6533 116.13 23.1903 115.101 24.2643C114.072 25.3382 113.541 26.8417 113.541 28.8464C113.541 30.9943 114.108 32.4979 115.278 33.4644C116.449 34.3952 117.797 34.8964 119.287 34.8964C121.131 34.8964 122.55 34.3236 123.578 33.2139C124.146 32.641 124.465 32.0325 124.607 31.4597H121.521V31.4955Z" fill="#808080"/>
<path d="M113.016 22.7166H112.874C106.206 22.7166 106.596 28.6949 106.596 28.6949V34.6374H109.611V29.0528C109.611 28.1221 109.717 27.4419 109.966 26.9766C110.391 26.189 111.207 25.7952 112.413 25.7952H112.768C112.91 25.7952 113.087 25.831 113.264 25.831V22.7166H113.016Z" fill="#808080"/>
<path d="M86.1277 21.1405V34.6007H88.9651V18.9568C89.0007 18.9568 86.1277 18.8494 86.1277 21.1405Z" fill="#808080"/>
<path d="M94.3588 21.9814H91.3159V18.9402H94.3588V21.9814Z" fill="#808080"/>
<path d="M91.3101 34.6362H94.3589V23.0151H91.3101V34.6362Z" fill="#808080"/>
<path d="M102.521 34.6069H99.4714L95.4653 23.0125H98.6562L100.961 31.1715L102.982 24.0502C103.23 23.3345 103.691 23.0125 104.365 23.0125H106.598L102.521 34.6069Z" fill="#808080"/>
</g>
</g>
<defs>
<clipPath id="clip0_272_1773">
<rect width="148" height="38" fill="white"/>
</clipPath>
</defs>
</svg>
