<svg width="128" height="135" viewBox="0 0 128 135" fill="none" xmlns="http://www.w3.org/2000/svg">
<g id="Group">
<g id="Group_2">
<path id="Vector" d="M8.17021 131.061V132.856H7.125V127.424H9.32925C10.6916 127.424 11.3627 128.039 11.3627 129.254C11.3627 130.289 10.6591 131.065 9.36584 131.065H8.16614L8.17021 131.061ZM8.17021 128.301V130.212H9.25196C10.0206 130.212 10.3419 129.914 10.3419 129.263C10.3419 128.611 10.0572 128.301 9.24381 128.301H8.17423H8.17021Z" fill="white"/>
<path id="Vector_2" d="M12.1232 132.853V128.595H13.0545V129.871L13.1359 129.879C13.3839 128.845 13.7866 128.547 14.4088 128.547H14.5633V129.641H14.3274C13.4205 129.641 13.0993 129.959 13.0993 130.828V132.849H12.1191L12.1232 132.853Z" fill="white"/>
<path id="Vector_3" d="M15.0879 130.78C15.0879 129.339 15.9135 128.49 17.2556 128.49C18.5976 128.49 19.1873 129.271 19.1873 130.438C19.1873 130.603 19.1873 130.792 19.171 131.009H16.068C16.1412 131.778 16.5357 132.168 17.2678 132.168C17.9551 132.168 18.1909 131.842 18.3129 131.436L19.1547 131.669C18.9514 132.438 18.4146 132.965 17.2596 132.965C15.942 132.965 15.092 132.204 15.092 130.784L15.0879 130.78ZM16.0762 130.353H18.2804C18.2438 129.621 17.9144 129.238 17.2271 129.238C16.5398 129.238 16.1656 129.593 16.0721 130.353H16.0762Z" fill="white"/>
<path id="Vector_4" d="M21.0661 132.852H20.0859V128.594H21.0457V129.717H21.1271C21.363 128.92 21.9038 128.486 22.6359 128.486C23.4411 128.486 23.8437 128.973 23.9088 129.761H24.0105C24.2219 128.945 24.7221 128.486 25.5192 128.486C26.4262 128.486 26.8654 129.085 26.8654 130.007V132.852H25.8771V130.26C25.8771 129.745 25.6413 129.363 25.0638 129.363C24.3846 129.363 23.9657 129.798 23.9657 130.442V132.852H22.9856V130.26C22.9856 129.745 22.7375 129.363 22.16 129.363C21.5012 129.363 21.062 129.798 21.062 130.442V132.852H21.0661Z" fill="white"/>
<path id="Vector_5" d="M27.9766 127.875V127.086H29.0461V127.875H27.9766ZM28.0132 132.857V128.599H29.0014V132.857H28.0132Z" fill="white"/>
<path id="Vector_6" d="M33.0805 131.729H32.991C32.7551 132.518 32.2021 132.969 31.4904 132.969C30.5834 132.969 30.1523 132.361 30.1523 131.44V128.595H31.1406V131.186C31.1406 131.701 31.3684 132.084 31.954 132.084C32.6209 132.084 33.052 131.649 33.052 131.005V128.595H34.0403V132.852H33.0805V131.729Z" fill="white"/>
<path id="Vector_7" d="M36.1461 132.852H35.166V128.594H36.1258V129.717H36.2071C36.443 128.92 36.9839 128.486 37.7159 128.486C38.5211 128.486 38.9237 128.973 38.9888 129.761H39.0905C39.302 128.945 39.8022 128.486 40.5993 128.486C41.5062 128.486 41.9454 129.085 41.9454 130.007V132.852H40.9572V130.26C40.9572 129.745 40.7213 129.363 40.1438 129.363C39.4647 129.363 39.0458 129.798 39.0458 130.442V132.852H38.0656V130.26C38.0656 129.745 37.8176 129.363 37.2401 129.363C36.5813 129.363 36.142 129.798 36.142 130.442V132.852H36.1461Z" fill="white"/>
<path id="Vector_8" d="M44.9062 127.419H47.1389C49.0341 127.419 49.9044 128.369 49.9044 130.091C49.9044 131.814 48.8592 132.852 47.1389 132.852H44.9062V127.419ZM45.9514 128.281V132.003H47.0576C48.3468 132.003 48.8592 131.315 48.8592 130.091C48.8592 128.868 48.3183 128.281 47.0007 128.281H45.9473H45.9514Z" fill="white"/>
<path id="Vector_9" d="M50.7871 127.875V127.086H51.8567V127.875H50.7871ZM50.8237 132.857V128.599H51.812V132.857H50.8237Z" fill="white"/>
<path id="Vector_10" d="M54.6867 134.414C53.0559 134.414 52.5801 134.072 52.5801 133.524C52.5801 133.154 52.9827 132.88 53.5683 132.756V132.719C53.182 132.647 52.9827 132.446 52.9827 132.148C52.9827 131.923 53.1657 131.721 53.4667 131.577L53.7961 131.396C53.1535 131.186 52.8159 130.724 52.8159 130.084C52.8159 129.122 53.5195 128.599 54.7111 128.599H56.8421V129.351H56.3501C56.1223 129.351 55.8458 129.335 55.4797 129.307L55.4716 129.388C56.041 129.496 56.5168 129.734 56.5168 130.293C56.5168 131.054 55.8661 131.516 54.6664 131.516C54.3939 131.516 54.1539 131.488 53.9425 131.436L53.8408 131.589C53.7757 131.697 53.731 131.77 53.731 131.858C53.731 132.031 53.8693 132.092 54.1539 132.092C54.6379 132.092 55.1341 132.084 55.6018 132.084C56.5087 132.084 56.9479 132.474 56.9479 133.134C56.9479 133.995 56.3907 134.41 54.6867 134.41V134.414ZM56.1589 133.162C56.1589 132.917 55.984 132.744 55.5651 132.744H54.0563C53.5887 132.744 53.3528 132.977 53.3528 133.214C53.3528 133.56 53.6293 133.705 54.7436 133.705C55.8579 133.705 56.1629 133.524 56.1629 133.162H56.1589ZM53.7066 130.1C53.7066 130.551 53.9628 130.844 54.6786 130.844C55.3944 130.844 55.6749 130.555 55.6749 130.1C55.6749 129.645 55.3455 129.355 54.6664 129.355C53.9872 129.355 53.7066 129.653 53.7066 130.1Z" fill="white"/>
<path id="Vector_11" d="M57.7051 127.875V127.086H58.7747V127.875H57.7051ZM57.7417 132.857V128.599H58.7299V132.857H57.7417Z" fill="white"/>
<path id="Vector_12" d="M60.1685 129.384H59.5625V128.595H60.1685V127.444H61.1567V128.595H62.4215V129.384H61.1567V131.42C61.1567 131.838 61.3112 132.056 61.7423 132.056C61.9619 132.056 62.153 132.011 62.3645 131.947L62.4825 132.816C62.1612 132.917 61.9416 132.969 61.5105 132.969C60.567 132.969 60.1644 132.353 60.1644 131.557V129.384H60.1685Z" fill="white"/>
<path id="Vector_13" d="M65.9068 131.838H65.8052C65.5855 132.526 65.0894 132.945 64.333 132.945C63.5765 132.945 63.0234 132.583 63.0234 131.75C63.0234 130.989 63.4911 130.438 64.581 130.438H65.8621V130.148C65.8621 129.597 65.6343 129.279 65.0284 129.279C64.5241 129.279 64.2313 129.532 64.1215 130.031L63.1861 129.822C63.3528 129.017 63.9628 128.498 65.0609 128.498C66.3053 128.498 66.8381 129.078 66.8381 130.136V132.852H65.9028V131.838H65.9068ZM65.8621 131.251V131.078H64.7437C64.2516 131.078 63.9669 131.259 63.9669 131.613C63.9669 131.919 64.1581 132.184 64.7193 132.184C65.4066 132.184 65.8621 131.786 65.8621 131.251Z" fill="white"/>
<path id="Vector_14" d="M68.9531 132.852H67.9648V127.038H68.9531V132.852Z" fill="white"/>
<path id="Vector_15" d="M71.6914 130.128C71.6914 128.37 72.7162 127.303 74.3633 127.303C75.7826 127.303 76.6408 128.072 76.836 129.376L75.8396 129.565C75.6728 128.687 75.2174 128.205 74.3471 128.205C73.2287 128.205 72.7366 129.009 72.7366 130.124C72.7366 131.319 73.2287 132.072 74.3389 132.072C75.2621 132.072 75.6851 131.585 75.8681 130.675L76.8563 130.856C76.6733 132.168 75.7949 132.965 74.3389 132.965C72.6553 132.965 71.6955 131.878 71.6955 130.12L71.6914 130.128Z" fill="white"/>
<path id="Vector_16" d="M77.4902 130.715C77.4902 129.311 78.3402 128.486 79.6782 128.486C81.0162 128.486 81.8458 129.311 81.8458 130.715C81.8458 132.12 81.0406 132.969 79.6782 132.969C78.3158 132.969 77.4902 132.107 77.4902 130.715ZM78.4785 130.707C78.4785 131.584 78.8445 132.128 79.6701 132.128C80.4956 132.128 80.8698 131.584 80.8698 130.707C80.8698 129.83 80.4672 129.311 79.6701 129.311C78.873 129.311 78.4785 129.826 78.4785 130.707Z" fill="white"/>
<path id="Vector_17" d="M83.7047 132.852H82.7246V128.594H83.6844V129.717H83.7657C84.0016 128.928 84.5547 128.486 85.2745 128.486C86.1733 128.486 86.6003 129.085 86.6003 130.007V132.852H85.6202V130.26C85.6202 129.745 85.3925 129.363 84.7946 129.363C84.1358 129.363 83.6966 129.798 83.6966 130.442V132.852H83.7047Z" fill="white"/>
<path id="Vector_18" d="M87.3848 131.597L88.2714 131.415C88.4096 131.93 88.7106 132.256 89.406 132.256C89.9266 132.256 90.2031 132.075 90.2031 131.713C90.2031 131.379 89.9632 131.214 89.1132 131.061C87.9704 130.836 87.5678 130.454 87.5678 129.75C87.5678 128.981 88.1371 128.49 89.2799 128.49C90.4227 128.49 90.8619 128.969 91.0368 129.721L90.1502 129.91C90.0323 129.383 89.7761 129.186 89.2636 129.186C88.7512 129.186 88.5031 129.375 88.5031 129.693C88.5031 129.991 88.6862 130.2 89.4996 130.345C90.7725 130.578 91.1547 131.005 91.1547 131.677C91.1547 132.466 90.6261 132.973 89.3897 132.973C87.9989 132.973 87.5393 132.409 87.3848 131.597Z" fill="white"/>
<path id="Vector_19" d="M94.9047 131.729H94.8152C94.5793 132.518 94.0263 132.969 93.3146 132.969C92.4077 132.969 91.9766 132.361 91.9766 131.44V128.595H92.9648V131.186C92.9648 131.701 93.1926 132.084 93.7782 132.084C94.4452 132.084 94.8762 131.649 94.8762 131.005V128.595H95.8645V132.852H94.9047V131.729Z" fill="white"/>
<path id="Vector_20" d="M98.0077 132.852H97.0195V127.038H98.0077V132.852Z" fill="white"/>
<path id="Vector_21" d="M99.4067 129.384H98.8008V128.595H99.4067V127.444H100.395V128.595H101.66V129.384H100.395V131.42C100.395 131.838 100.55 132.056 100.981 132.056C101.2 132.056 101.391 132.011 101.603 131.947L101.721 132.816C101.399 132.917 101.18 132.969 100.749 132.969C99.8053 132.969 99.4027 132.353 99.4027 131.557V129.384H99.4067Z" fill="white"/>
<path id="Vector_22" d="M105.145 131.838H105.043C104.824 132.526 104.328 132.945 103.571 132.945C102.815 132.945 102.262 132.583 102.262 131.75C102.262 130.989 102.729 130.438 103.819 130.438H105.1V130.148C105.1 129.597 104.873 129.279 104.267 129.279C103.762 129.279 103.47 129.532 103.36 130.031L102.424 129.822C102.591 129.017 103.201 128.498 104.299 128.498C105.544 128.498 106.076 129.078 106.076 130.136V132.852H105.141V131.838H105.145ZM105.1 131.251V131.078H103.982C103.49 131.078 103.205 131.259 103.205 131.613C103.205 131.919 103.396 132.184 103.958 132.184C104.645 132.184 105.1 131.786 105.1 131.251Z" fill="white"/>
<path id="Vector_23" d="M108.158 132.852H107.178V128.594H108.138V129.717H108.219C108.455 128.928 109.008 128.486 109.728 128.486C110.626 128.486 111.053 129.085 111.053 130.007V132.852H110.073V130.26C110.073 129.745 109.846 129.363 109.248 129.363C108.589 129.363 108.15 129.798 108.15 130.442V132.852H108.158Z" fill="white"/>
<path id="Vector_24" d="M114.038 129.347C113.335 129.347 112.895 129.79 112.895 130.723C112.895 131.584 113.298 132.107 114.067 132.107C114.762 132.107 114.998 131.681 115.128 131.166L116.035 131.383C115.86 132.369 115.258 132.969 114.075 132.969C112.72 132.969 111.887 132.188 111.887 130.759C111.887 129.331 112.737 128.486 114.054 128.486C115.291 128.486 115.848 129.065 116.023 130.079L115.1 130.252C114.969 129.709 114.713 129.347 114.038 129.347Z" fill="white"/>
<path id="Vector_25" d="M116.455 134.385L116.61 133.508C116.793 133.544 116.976 133.573 117.159 133.573C117.643 133.573 117.899 133.456 118.183 132.812L116.455 128.599H117.537L118.041 130.14C118.216 130.675 118.452 131.379 118.635 131.995H118.781C118.972 131.359 119.184 130.683 119.351 130.156L119.818 128.599H120.872L119.095 132.909C118.655 133.967 118.123 134.438 117.134 134.438C116.85 134.438 116.658 134.41 116.455 134.385Z" fill="white"/>
</g>
<g id="Group_3">
<path id="Vector_26" d="M5.06324 102.667V102.796C5.06324 104.551 6.05962 105.408 6.79572 105.838C7.96291 106.522 10.0004 106.696 11.1676 106.696C13.8964 106.696 15.1083 106.18 15.454 106.011C16.4911 105.496 17.0564 104.684 17.0564 103.356C17.0564 102.112 16.365 101.384 15.3686 100.913C14.5471 100.527 13.506 100.313 11.3424 99.9272L8.57293 99.4563C5.88881 98.9855 4.11564 98.6837 2.72884 97.8709C1.17124 96.9293 0.349743 95.5571 0.349743 93.5451C0.349743 91.4043 1.21598 89.4326 3.55443 88.0644C5.93353 86.652 8.87793 86.5635 11.0008 86.5635C14.8521 86.5635 16.9303 87.0785 18.4025 87.8914C21.1313 89.3923 21.5177 91.5733 21.5177 93.1588H16.4097C16.4097 92.346 16.2348 91.2756 14.8928 90.5472C13.9411 90.0322 12.164 89.8189 10.9114 89.8189C10.3054 89.8189 8.48753 89.8631 7.10073 90.6317C5.67327 91.4446 5.49837 92.5592 5.49837 93.1588C5.49837 93.7584 5.75867 94.5712 6.79572 95.1306C7.22681 95.3881 8.00762 95.6456 12.2087 96.374L15.1937 96.889C16.7107 97.1466 18.8742 97.4886 20.4766 98.6878C22.0342 99.8869 22.4693 101.299 22.4693 102.969C22.4693 104.639 22.1237 106.398 20.6067 107.85C18.4838 109.862 15.1531 110.035 11.3872 110.035C6.14906 110.035 4.02618 109.307 2.81425 108.534C0.345675 106.949 0 104.595 0 102.796V102.667H5.06324Z" fill="white"/>
<path id="Vector_27" d="M48.9965 117.102H43.9739V106.265C43.063 107.637 41.8104 108.579 40.6839 109.094C39.8176 109.48 38.26 109.951 35.4457 109.951C32.8064 109.951 29.557 109.694 26.9176 107.082C24.2782 104.471 23.7129 100.785 23.7129 98.0443C23.7129 95.988 23.9731 92.2175 26.7874 89.5215C28.2596 88.109 30.899 86.6523 35.3156 86.6523C35.8769 86.6523 38.7806 86.6966 40.8547 87.6382C42.0666 88.1935 43.1931 89.0949 44.0146 90.5073H44.1448V87.4249H48.9925V117.11L48.9965 117.102ZM31.0739 92.0445C30.0775 93.0706 28.9957 94.9579 28.9957 98.2133C28.9957 100.141 29.3007 102.624 31.0739 104.511C32.7169 106.265 34.7097 106.611 36.5275 106.611C38.5203 106.611 40.3382 106.141 41.8958 104.599C43.8885 102.587 44.1041 100.016 44.1041 98.3461C44.1041 95.3482 43.067 93.2477 41.7657 91.964C40.2935 90.5073 38.5203 89.9923 36.5275 89.9923C33.758 89.9923 32.0255 91.0626 31.0739 92.0485V92.0445Z" fill="white"/>
<path id="Vector_28" d="M69.213 109.186V106.233H69.0828C68.001 107.947 66.5736 108.76 65.7073 109.146C64.7557 109.572 63.1533 109.959 60.5139 109.959C58.5212 109.959 55.6663 109.701 53.7589 107.903C51.5953 105.846 51.5059 102.804 51.5059 101.178V87.4285H56.5284V100.321C56.5284 103.319 57.3946 104.647 58.0453 105.291C59.2125 106.406 60.9043 106.534 62.0715 106.534C63.6739 106.534 65.7073 106.277 67.1795 104.607C68.3914 103.235 68.9527 101.009 68.9527 98.6514V87.4285H73.9752V109.186H69.213Z" fill="white"/>
<path id="Vector_29" d="M77.0902 93.9314C77.0454 91.6176 78.0418 90.0764 78.9934 89.1348C81.2465 86.9055 84.9676 86.5635 88.3025 86.5635C90.9866 86.5635 95.2731 86.99 97.4366 89.2193C99.3399 91.1468 99.1243 93.4163 99.1243 95.046V103.44C99.1243 104.555 99.2545 105.195 99.5555 105.541C99.6856 105.714 100.031 106.011 100.682 106.011C101.028 106.011 101.288 105.967 101.463 105.883V109.094C100.641 109.267 99.8605 109.351 98.9536 109.351C98.1321 109.351 96.7453 109.307 95.8383 108.623C95.1876 108.152 94.6264 107.211 94.4963 106.14C93.63 107.295 92.3327 108.41 90.8605 108.969C89.734 109.396 88.091 109.697 85.4069 109.697C83.6744 109.697 81.035 109.613 79.087 108.285C77.7897 107.384 76.4883 105.714 76.4883 103.187C76.4883 101.215 77.3098 99.8869 78.0906 99.1183C78.6112 98.563 79.8637 97.5771 82.2469 97.0621C83.6337 96.7603 85.1913 96.6758 87.0092 96.5068L89.4778 96.2935C91.5112 96.1205 92.7679 95.9072 93.4592 95.2674C93.8497 94.9253 94.1506 94.366 94.1506 93.5974C94.1506 92.6558 93.7602 91.5854 92.3774 90.8128C91.0801 90.1287 89.3029 90 88.3065 90C86.8791 90 85.0612 90.173 83.8493 90.9013C82.3771 91.7584 82.1168 93.0019 82.1168 93.9435H77.0942L77.0902 93.9314ZM94.0611 98.3417C92.9346 99.3678 91.8081 99.4121 89.5144 99.5851L87.1353 99.7581C85.1018 99.8869 84.0201 100.1 83.1945 100.571C82.5032 100.998 81.767 101.77 81.767 103.054C81.767 104.124 82.2876 104.981 82.979 105.496C83.9753 106.269 85.3581 106.353 86.3992 106.353C87.9161 106.353 89.9496 106.096 91.3323 105.154C93.8863 103.4 94.0611 99.7581 94.0611 98.728V98.3417Z" fill="white"/>
<path id="Vector_30" d="M128 109.178H123.153V106.181H123.022C122.286 107.38 121.205 108.366 120.037 108.965C118.35 109.822 116.271 109.951 114.323 109.951C112.07 109.951 108.479 109.907 105.75 107.122C103.587 104.893 102.721 101.34 102.721 98.1286C102.721 93.4607 104.364 90.7606 106.011 89.2637C108.479 87.0344 111.68 86.6521 114.234 86.6521C116.052 86.6521 117.784 86.8252 119.557 87.5938C121.2 88.3221 122.242 89.308 122.978 90.4226V79.1997H128V109.182V109.178ZM110.122 91.9598C108.996 93.1147 107.999 95.0864 107.999 98.3418C107.999 101.597 108.951 103.525 110.122 104.68C111.68 106.265 113.713 106.607 115.576 106.607C117.308 106.607 119.387 106.265 121.03 104.595C122.848 102.752 123.153 100.269 123.153 98.3418C123.153 96.9294 122.978 93.9718 120.944 91.9598C119.777 90.8049 118.045 89.988 115.576 89.988C114.234 89.988 111.855 90.2013 110.122 91.9598Z" fill="white"/>
</g>
<path id="Vector_31" d="M92.8219 30.2153C92.2567 28.8351 91.4474 27.5796 90.4103 26.4891L89.7962 25.8815C88.6941 24.8674 87.4334 24.0666 86.0425 23.5113C84.5663 22.9198 83.0087 22.618 81.4063 22.618C80.3123 22.618 79.2387 22.7589 78.1976 23.0365C77.7136 23.1612 77.2378 23.3222 76.7701 23.5113C75.3386 24.0868 74.0412 24.9117 72.9188 25.974C72.8456 26.0505 72.7764 26.1229 72.7032 26.1953C72.63 26.2678 72.5569 26.3402 72.4796 26.4086C72.4755 26.4126 72.4714 26.4167 72.4674 26.4207C72.4348 26.4529 72.4023 26.481 72.3698 26.5132L72.5894 26.2959L72.6992 26.1873L73.0123 25.8774C74.0412 24.7869 74.8465 23.5395 75.4077 22.1633C75.5988 21.7005 75.7574 21.2297 75.8876 20.7509C76.1682 19.7207 76.3105 18.6584 76.3105 17.576C76.3105 15.9945 76.0096 14.4533 75.4077 12.9886C74.8424 11.6124 74.0412 10.365 73.0123 9.27446L72.3982 8.66684L63.9961 0.353271L37.6023 26.469C36.5611 27.5675 35.7437 28.827 35.1743 30.2193C34.5765 31.68 34.2715 33.2212 34.2715 34.8067C34.2715 36.3921 34.5724 37.9293 35.1743 39.394C35.7925 40.907 36.7035 42.2631 37.8829 43.422C39.0582 44.585 40.4287 45.4863 41.9538 46.102C43.43 46.6935 44.9877 46.9953 46.59 46.9953C47.6799 46.9953 48.7576 46.8545 49.7947 46.5809C50.2786 46.4521 50.7545 46.2911 51.2221 46.106C52.6049 45.5507 53.8615 44.758 54.9596 43.748L55.289 43.422L55.3785 43.3335L55.6184 43.0921C55.5818 43.1283 55.5492 43.1685 55.5126 43.2047C55.5004 43.2168 55.4842 43.2329 55.4679 43.249C55.411 43.3094 55.3541 43.3697 55.2931 43.4261C55.2199 43.4985 55.1466 43.5709 55.0694 43.6393C53.9957 44.75 53.162 46.0296 52.5805 47.4501C52.3893 47.9128 52.2307 48.3836 52.1006 48.8625C51.8199 49.8926 51.6776 50.9509 51.6776 52.0334C51.6776 53.6148 51.9786 55.16 52.5805 56.6207C53.1986 58.1338 54.1096 59.4898 55.2849 60.6528L63.992 69.2681L72.5894 60.7614C72.626 60.7252 72.6626 60.689 72.6992 60.6528C72.7358 60.6166 72.7724 60.5803 72.809 60.5441L81.4063 52.0374L90.1094 43.4261C91.2847 42.2631 92.1956 40.907 92.8179 39.398C93.4157 37.9373 93.7208 36.3962 93.7208 34.8107C93.7208 33.2252 93.4198 31.6841 92.8179 30.2234L92.8219 30.2153ZM69.1041 35.2453C68.0467 35.6195 67.0829 36.2231 66.2614 37.0319C66.2614 37.0319 66.26 37.0319 66.2573 37.0319C65.4398 37.8408 64.8298 38.7985 64.4476 39.8447C64.1507 40.6616 63.9961 41.5348 63.9961 42.4281C63.9961 41.5348 63.8416 40.6616 63.5447 39.8447C63.1665 38.7985 62.5565 37.8408 61.739 37.0319H61.735C60.9175 36.2191 59.9496 35.6155 58.8922 35.2413C58.0667 34.9475 57.1841 34.7946 56.2813 34.7946C57.1841 34.7946 58.0667 34.6417 58.8922 34.3479C59.9496 33.9737 60.9175 33.3661 61.739 32.5573C62.5565 31.7444 63.1665 30.7867 63.5447 29.7405C63.8416 28.9236 63.9961 28.0544 63.9961 27.1571C63.9961 28.0504 64.1507 28.9196 64.4476 29.7405C64.8258 30.7867 65.4358 31.7444 66.2532 32.5492C66.2532 32.5492 66.2532 32.5506 66.2532 32.5532C67.0707 33.3621 68.0426 33.9697 69.1 34.3439C69.9256 34.6377 70.8081 34.7906 71.7109 34.7906C70.8081 34.7906 69.9256 34.9435 69.1 35.2372L69.1041 35.2453Z" fill="white"/>
</g>
</svg>
