<svg width="263" height="73" viewBox="0 0 263 73" fill="none" xmlns="http://www.w3.org/2000/svg">
<path d="M61.1066 31.4889C60.5167 30.0335 59.672 28.7096 58.5897 27.5597L57.9488 26.919C56.7986 25.8497 55.4828 25.0053 54.0312 24.4197C52.4905 23.796 50.8649 23.4777 49.1926 23.4777C48.0509 23.4777 46.9303 23.6262 45.8438 23.919C45.3387 24.0506 44.8421 24.2203 44.354 24.4197C42.86 25.0265 41.506 25.8964 40.3345 27.0166C40.2581 27.0972 40.186 27.1736 40.1096 27.25C40.0332 27.3263 39.9568 27.4027 39.8761 27.4748C39.8719 27.4791 39.8676 27.4833 39.8634 27.4876C39.8295 27.5215 39.7955 27.5512 39.7615 27.5852L39.9907 27.356L40.1053 27.2415L40.4322 26.9147C41.506 25.7648 42.3464 24.4494 42.9321 22.9982C43.1316 22.5103 43.2971 22.0138 43.4329 21.5089C43.7258 20.4226 43.8744 19.3024 43.8744 18.161C43.8744 16.4934 43.5603 14.8682 42.9321 13.3237C42.3421 11.8725 41.506 10.5571 40.4322 9.40722L39.7913 8.76649L31.0223 0L3.47616 27.5385C2.3896 28.6969 1.53647 30.025 0.942257 31.4932C0.31833 33.0335 0 34.6586 0 36.3304C0 38.0023 0.314086 39.6232 0.942257 41.1677C1.58741 42.7632 2.53815 44.1931 3.76903 45.4152C4.99566 46.6415 6.42602 47.5919 8.01767 48.2412C9.55839 48.8649 11.184 49.1831 12.8563 49.1831C13.9938 49.1831 15.1186 49.0346 16.2009 48.7461C16.706 48.6103 17.2026 48.4406 17.6907 48.2454C19.1338 47.6598 20.4453 46.8239 21.5913 45.7589L21.9351 45.4152L22.0284 45.3218L22.2789 45.0672C22.2407 45.1054 22.2067 45.1479 22.1685 45.186C22.1558 45.1988 22.1388 45.2157 22.1218 45.2327C22.0624 45.2964 22.003 45.36 21.9393 45.4194C21.8629 45.4958 21.7865 45.5722 21.7059 45.6443C20.5853 46.8154 19.7152 48.1648 19.1083 49.6626C18.9088 50.1506 18.7433 50.6471 18.6075 51.152C18.3146 52.2383 18.166 53.3542 18.166 54.4957C18.166 56.1632 18.4801 57.7926 19.1083 59.3329C19.7534 60.9284 20.7042 62.3583 21.9308 63.5846L31.0181 72.6694L39.9907 63.6992C40.0289 63.661 40.0671 63.6228 40.1053 63.5846C40.1435 63.5464 40.1817 63.5083 40.2199 63.4701L49.1926 54.4999L58.2756 45.4194C59.5022 44.1931 60.453 42.7632 61.1024 41.172C61.7263 39.6317 62.0446 38.0065 62.0446 36.3347C62.0446 34.6629 61.7306 33.0377 61.1024 31.4974L61.1066 31.4889ZM36.3533 36.7929C35.2497 37.1876 34.2438 37.8241 33.3865 38.6769C33.3865 38.6769 33.385 38.6769 33.3822 38.6769C32.5291 39.5298 31.8924 40.5397 31.4934 41.643C31.1836 42.5043 31.0223 43.4251 31.0223 44.3671C31.0223 43.4251 30.861 42.5043 30.5512 41.643C30.1565 40.5397 29.5198 39.5298 28.6667 38.6769H28.6624C27.8093 37.8198 26.7991 37.1833 25.6956 36.7887C24.834 36.479 23.913 36.3177 22.9707 36.3177C23.913 36.3177 24.834 36.1565 25.6956 35.8467C26.7991 35.4521 27.8093 34.8114 28.6667 33.9585C29.5198 33.1014 30.1565 32.0915 30.5512 30.9882C30.861 30.1269 31.0223 29.2103 31.0223 28.2641C31.0223 29.2061 31.1836 30.1226 31.4934 30.9882C31.8882 32.0915 32.5248 33.1014 33.378 33.95C33.378 33.95 33.378 33.9514 33.378 33.9542C34.2311 34.8071 35.2455 35.4479 36.349 35.8425C37.2107 36.1522 38.1317 36.3135 39.0739 36.3135C38.1317 36.3135 37.2107 36.4747 36.349 36.7845L36.3533 36.7929Z" fill="#DBDBDB"/>
<path d="M213.057 26.8338V28.7263H211.966V22.9979H214.266C215.688 22.9979 216.388 23.6471 216.388 24.9286C216.388 26.0191 215.654 26.838 214.304 26.838H213.052L213.057 26.8338ZM213.057 23.9229V25.9385H214.186C214.988 25.9385 215.323 25.6245 215.323 24.9371C215.323 24.2497 215.026 23.9229 214.177 23.9229H213.061H213.057Z" fill="#DBDBDB"/>
<path d="M217.182 28.7221V24.2328H218.154V25.5779L218.239 25.5864C218.498 24.4959 218.918 24.1819 219.567 24.1819H219.729V25.336H219.482C218.536 25.336 218.201 25.6713 218.201 26.5878V28.7179H217.178L217.182 28.7221Z" fill="#DBDBDB"/>
<path d="M220.276 26.537C220.276 25.0179 221.138 24.1226 222.539 24.1226C223.939 24.1226 224.555 24.9457 224.555 26.1763C224.555 26.3502 224.555 26.5497 224.538 26.7788H221.299C221.376 27.5893 221.787 28.0009 222.551 28.0009C223.269 28.0009 223.515 27.6572 223.642 27.2286L224.521 27.4789C224.309 28.2894 223.748 28.8453 222.543 28.8453C221.168 28.8453 220.281 28.0433 220.281 26.5454L220.276 26.537ZM221.308 26.0872H223.608C223.57 25.3149 223.226 24.9118 222.509 24.9118C221.792 24.9118 221.401 25.2852 221.304 26.0872H221.308Z" fill="#DBDBDB"/>
<path d="M226.511 28.7221H225.488V24.2327H226.49V25.4166H226.575C226.821 24.5764 227.386 24.1182 228.15 24.1182C228.99 24.1182 229.41 24.6358 229.478 25.4633H229.584C229.805 24.6019 230.327 24.1182 231.159 24.1182C232.105 24.1182 232.564 24.7504 232.564 25.7221V28.7221H231.532V25.9894C231.532 25.4463 231.286 25.0432 230.683 25.0432C229.975 25.0432 229.537 25.5015 229.537 26.1804V28.7221H228.515V25.9894C228.515 25.4463 228.256 25.0432 227.653 25.0432C226.965 25.0432 226.507 25.5015 226.507 26.1804V28.7221H226.511Z" fill="#DBDBDB"/>
<path d="M233.723 23.4733V22.6416H234.839V23.4733H233.723ZM233.761 28.7264V24.237H234.792V28.7264H233.761Z" fill="#DBDBDB"/>
<path d="M239.054 27.5384H238.96C238.714 28.37 238.137 28.8453 237.394 28.8453C236.447 28.8453 235.998 28.2046 235.998 27.2329V24.2329H237.029V26.9655C237.029 27.5087 237.267 27.9118 237.878 27.9118C238.574 27.9118 239.024 27.4535 239.024 26.7746V24.2329H240.055V28.7222H239.054V27.5384Z" fill="#DBDBDB"/>
<path d="M242.254 28.7221H241.231V24.2327H242.233V25.4166H242.318C242.564 24.5764 243.128 24.1182 243.892 24.1182C244.733 24.1182 245.153 24.6358 245.221 25.4633H245.327C245.548 24.6019 246.07 24.1182 246.901 24.1182C247.848 24.1182 248.306 24.7504 248.306 25.7221V28.7221H247.275V25.9894C247.275 25.4463 247.029 25.0432 246.426 25.0432C245.717 25.0432 245.28 25.5015 245.28 26.1804V28.7221H244.257V25.9894C244.257 25.4463 243.998 25.0432 243.396 25.0432C242.708 25.0432 242.25 25.5015 242.25 26.1804V28.7221H242.254Z" fill="#DBDBDB"/>
<path d="M211.966 32.541H214.296C216.274 32.541 217.182 33.5424 217.182 35.3585C217.182 37.1746 216.091 38.2736 214.296 38.2736H211.966V32.5453V32.541ZM213.057 33.4491V37.374H214.211C215.557 37.374 216.091 36.6485 216.091 35.3585C216.091 34.0686 215.527 33.4491 214.152 33.4491H213.052H213.057Z" fill="#DBDBDB"/>
<path d="M218.107 33.0205V32.1888H219.224V33.0205H218.107ZM218.146 38.2736V33.7843H219.177V38.2736H218.146Z" fill="#DBDBDB"/>
<path d="M222.178 39.9158C220.476 39.9158 219.979 39.5508 219.979 38.978C219.979 38.5876 220.399 38.2991 221.01 38.1675V38.1294C220.607 38.053 220.399 37.8451 220.399 37.5268C220.399 37.2892 220.59 37.077 220.904 36.9243L221.248 36.7333C220.577 36.5127 220.225 36.0247 220.225 35.3501C220.225 34.3359 220.959 33.7843 222.203 33.7843H224.427V34.5778H223.914C223.676 34.5778 223.387 34.5608 223.005 34.5311L222.997 34.616C223.591 34.7305 224.088 34.9809 224.088 35.5707C224.088 36.3727 223.408 36.8606 222.156 36.8606C221.872 36.8606 221.622 36.8309 221.401 36.7758L221.295 36.937C221.227 37.0516 221.18 37.128 221.18 37.2256C221.18 37.408 221.324 37.4717 221.622 37.4717C222.127 37.4717 222.644 37.4632 223.133 37.4632C224.079 37.4632 224.537 37.8748 224.537 38.5707C224.537 39.4787 223.956 39.9158 222.178 39.9158ZM223.714 38.5961C223.714 38.3373 223.532 38.1548 223.094 38.1548H221.52C221.032 38.1548 220.785 38.4009 220.785 38.6513C220.785 39.0119 221.074 39.1647 222.237 39.1647C223.4 39.1647 223.718 38.9738 223.718 38.5919L223.714 38.5961ZM221.155 35.367C221.155 35.8423 221.422 36.1478 222.169 36.1478C222.916 36.1478 223.209 35.8423 223.209 35.367C223.209 34.8918 222.865 34.582 222.156 34.582C221.448 34.582 221.155 34.896 221.155 35.367Z" fill="#DBDBDB"/>
<path d="M225.327 33.0205V32.1888H226.443V33.0205H225.327ZM225.365 38.2736V33.7843H226.397V38.2736H225.365Z" fill="#DBDBDB"/>
<path d="M227.899 34.6159H227.267V33.7842H227.899V32.5707H228.93V33.7842H230.25V34.6159H228.93V36.763C228.93 37.2043 229.092 37.4334 229.542 37.4334C229.771 37.4334 229.97 37.3867 230.191 37.3188L230.314 38.2354C229.979 38.3415 229.75 38.3966 229.3 38.3966C228.315 38.3966 227.895 37.7474 227.895 36.9072V34.6159H227.899Z" fill="#DBDBDB"/>
<path d="M233.888 37.2042H233.782C233.553 37.9298 233.035 38.3711 232.246 38.3711C231.456 38.3711 230.879 37.9892 230.879 37.1109C230.879 36.3089 231.367 35.7276 232.504 35.7276H233.841V35.4221C233.841 34.8408 233.604 34.5056 232.971 34.5056C232.445 34.5056 232.139 34.7729 232.025 35.299L231.049 35.0784C231.223 34.2298 231.859 33.6824 233.005 33.6824C234.304 33.6824 234.86 34.2934 234.86 35.4094V38.2735H233.884V37.2042H233.888ZM233.841 36.5847V36.4023H232.674C232.161 36.4023 231.864 36.5932 231.864 36.9666C231.864 37.2934 232.063 37.5692 232.649 37.5692C233.366 37.5692 233.841 37.1491 233.841 36.5847Z" fill="#DBDBDB"/>
<path d="M237.067 38.2737H236.036V32.1422H237.067V38.2737Z" fill="#DBDBDB"/>
<path d="M211.673 44.944C211.673 43.0897 212.742 41.9652 214.461 41.9652C215.943 41.9652 216.838 42.7757 217.042 44.1505L216.002 44.3499C215.828 43.4249 215.353 42.9157 214.444 42.9157C213.277 42.9157 212.764 43.7643 212.764 44.9397C212.764 46.1999 213.277 46.9934 214.436 46.9934C215.399 46.9934 215.841 46.4758 216.032 45.521L217.063 45.712C216.872 47.0953 215.955 47.9354 214.436 47.9354C212.679 47.9354 211.677 46.7898 211.677 44.9355L211.673 44.944Z" fill="#DBDBDB"/>
<path d="M217.726 45.5677C217.726 44.0868 218.613 43.2169 220.009 43.2169C221.405 43.2169 222.271 44.0868 222.271 45.5677C222.271 47.0485 221.431 47.9439 220.009 47.9439C218.587 47.9439 217.726 47.0358 217.726 45.5677ZM218.757 45.5592C218.757 46.4842 219.139 47.057 220.001 47.057C220.862 47.057 221.253 46.4842 221.253 45.5592C221.253 44.6342 220.833 44.0868 220.001 44.0868C219.169 44.0868 218.757 44.6299 218.757 45.5592Z" fill="#DBDBDB"/>
<path d="M224.211 47.8208H223.188V43.3315H224.19V44.5153H224.275C224.521 43.6837 225.098 43.2169 225.849 43.2169C226.787 43.2169 227.233 43.8492 227.233 44.8209V47.8208H226.21V45.0882C226.21 44.545 225.972 44.1419 225.348 44.1419C224.661 44.1419 224.202 44.6002 224.202 45.2791V47.8208H224.211Z" fill="#DBDBDB"/>
<path d="M228.052 46.4927L228.978 46.3017C229.122 46.8449 229.436 47.1886 230.162 47.1886C230.705 47.1886 230.994 46.9976 230.994 46.6157C230.994 46.2636 230.743 46.0896 229.856 45.9283C228.663 45.6907 228.243 45.2876 228.243 44.545C228.243 43.7346 228.837 43.2169 230.03 43.2169C231.223 43.2169 231.681 43.7219 231.864 44.5153L230.938 44.7148C230.815 44.1589 230.548 43.951 230.013 43.951C229.478 43.951 229.219 44.1504 229.219 44.4856C229.219 44.7996 229.41 45.0203 230.259 45.173C231.588 45.4191 231.987 45.8689 231.987 46.5775C231.987 47.4092 231.435 47.9439 230.145 47.9439C228.693 47.9439 228.214 47.3498 228.052 46.4927Z" fill="#DBDBDB"/>
<path d="M235.9 46.637H235.806C235.56 47.4687 234.983 47.9439 234.24 47.9439C233.294 47.9439 232.844 47.3032 232.844 46.3315V43.3315H233.875V46.0642C233.875 46.6073 234.113 47.0104 234.724 47.0104C235.42 47.0104 235.87 46.5521 235.87 45.8732V43.3315H236.901V47.8209H235.9V46.637Z" fill="#DBDBDB"/>
<path d="M239.138 47.8209H238.107V41.6895H239.138V47.8209Z" fill="#DBDBDB"/>
<path d="M240.598 44.1633H239.966V43.3316H240.598V42.118H241.63V43.3316H242.95V44.1633H241.63V46.3103C241.63 46.7516 241.791 46.9808 242.241 46.9808C242.47 46.9808 242.67 46.9341 242.89 46.8662L243.013 47.7827C242.678 47.8888 242.449 47.944 241.999 47.944C241.014 47.944 240.594 47.2948 240.594 46.4546V44.1633H240.598Z" fill="#DBDBDB"/>
<path d="M246.587 46.7515H246.481C246.252 47.4771 245.734 47.9184 244.945 47.9184C244.155 47.9184 243.578 47.5365 243.578 46.6581C243.578 45.8562 244.066 45.2748 245.204 45.2748H246.541V44.9693C246.541 44.388 246.303 44.0528 245.671 44.0528C245.144 44.0528 244.839 44.3201 244.724 44.8463L243.748 44.6256C243.922 43.777 244.559 43.2296 245.705 43.2296C247.003 43.2296 247.559 43.8406 247.559 44.9566V47.8208H246.583V46.7515H246.587ZM246.541 46.132V45.9495H245.373C244.86 45.9495 244.563 46.1405 244.563 46.5139C244.563 46.8364 244.762 47.1164 245.348 47.1164C246.065 47.1164 246.541 46.6963 246.541 46.132Z" fill="#DBDBDB"/>
<path d="M249.732 47.8208H248.709V43.3315H249.711V44.5153H249.796C250.042 43.6837 250.619 43.2169 251.371 43.2169C252.309 43.2169 252.754 43.8492 252.754 44.8209V47.8208H251.732V45.0882C251.732 44.545 251.494 44.1419 250.87 44.1419C250.182 44.1419 249.724 44.6002 249.724 45.2791V47.8208H249.732Z" fill="#DBDBDB"/>
<path d="M255.87 44.125C255.136 44.125 254.677 44.5917 254.677 45.5761C254.677 46.4842 255.097 47.0358 255.9 47.0358C256.625 47.0358 256.871 46.586 257.007 46.0429L257.954 46.272C257.771 47.3116 257.143 47.9439 255.908 47.9439C254.495 47.9439 253.625 47.1207 253.625 45.6143C253.625 44.108 254.512 43.2169 255.887 43.2169C257.177 43.2169 257.759 43.8279 257.941 44.8972L256.978 45.0797C256.842 44.5069 256.574 44.125 255.87 44.125Z" fill="#DBDBDB"/>
<path d="M258.391 49.4333L258.552 48.5083C258.743 48.5465 258.934 48.5762 259.125 48.5762C259.63 48.5762 259.898 48.4531 260.195 47.7742L258.391 43.3315H259.52L260.046 44.9567C260.229 45.521 260.475 46.2636 260.666 46.9128H260.819C261.018 46.2424 261.239 45.5295 261.413 44.9737L261.901 43.3315H263.001L261.146 47.876C260.687 48.992 260.131 49.4885 259.1 49.4885C258.803 49.4885 258.603 49.4588 258.391 49.4333Z" fill="#DBDBDB"/>
<path d="M77.8468 41.0954V41.2312C77.8468 43.0812 78.8867 43.985 79.6549 44.439C80.873 45.1604 82.9995 45.3428 84.2176 45.3428C87.0656 45.3428 88.3304 44.7997 88.6912 44.6215C89.7735 44.0784 90.3635 43.2212 90.3635 41.821C90.3635 40.5098 89.642 39.7418 88.6021 39.2453C87.7447 38.838 86.6582 38.6131 84.4001 38.2057L81.5097 37.7093C78.7084 37.2128 76.8578 36.8946 75.4105 36.0375C73.7849 35.0445 72.9275 33.5976 72.9275 31.476C72.9275 29.2186 73.8316 27.1394 76.2721 25.6967C78.7551 24.2074 81.828 24.114 84.0436 24.114C88.063 24.114 90.2319 24.6571 91.7684 25.5143C94.6164 27.097 95.0196 29.3968 95.0196 31.0687H89.6887C89.6887 30.2115 89.5061 29.0828 88.1055 28.3148C87.1123 27.7717 85.2575 27.5468 83.9502 27.5468C83.3178 27.5468 81.4206 27.5934 79.9732 28.4039C78.4834 29.261 78.3009 30.4364 78.3009 31.0687C78.3009 31.7009 78.5726 32.558 79.6549 33.1478C80.1048 33.4194 80.9197 33.691 85.3042 34.459L88.4196 35.0021C90.0027 35.2737 92.2608 35.6343 93.9331 36.8988C95.5587 38.1633 96.0128 39.6527 96.0128 41.4136C96.0128 43.1746 95.652 45.0288 94.0689 46.5606C91.8533 48.6823 88.3771 48.8647 84.4468 48.8647C78.98 48.8647 76.7645 48.0967 75.4996 47.282C72.9233 45.6102 72.5625 43.1279 72.5625 41.2312V41.0954H77.8468Z" fill="#DBDBDB"/>
<path d="M123.699 56.3158H118.457V44.8888C117.506 46.3358 116.199 47.3287 115.023 47.8718C114.119 48.2792 112.494 48.7756 109.557 48.7756C106.802 48.7756 103.411 48.5041 100.656 45.7502C97.9015 42.9964 97.3115 39.1096 97.3115 36.22C97.3115 34.0517 97.5832 30.0758 100.52 27.2328C102.057 25.7434 104.811 24.2074 109.421 24.2074C110.007 24.2074 113.037 24.2541 115.202 25.247C116.467 25.8326 117.642 26.783 118.5 28.2724H118.635V25.0221H123.695V56.3243L123.699 56.3158ZM104.994 29.8933C103.954 30.9753 102.825 32.9654 102.825 36.3982C102.825 38.4307 103.143 41.0487 104.994 43.0388C106.709 44.8888 108.788 45.2538 110.686 45.2538C112.765 45.2538 114.663 44.7573 116.288 43.1322C118.368 41.0105 118.593 38.2991 118.593 36.5382C118.593 33.377 117.511 31.162 116.152 29.8085C114.616 28.2724 112.765 27.7293 110.686 27.7293C107.795 27.7293 105.987 28.858 104.994 29.8976V29.8933Z" fill="#DBDBDB"/>
<path d="M144.798 47.9695V44.8549H144.662C143.533 46.6625 142.043 47.5197 141.139 47.927C140.146 48.3768 138.474 48.7842 135.719 48.7842C133.639 48.7842 130.66 48.5126 128.669 46.6159C126.411 44.4476 126.318 41.2397 126.318 39.5254V25.0264H131.56V38.6216C131.56 41.7828 132.464 43.1831 133.143 43.862C134.361 45.0374 136.127 45.1732 137.345 45.1732C139.017 45.1732 141.139 44.9016 142.676 43.1407C143.941 41.6937 144.526 39.3472 144.526 36.8607V25.0264H149.768V47.9695H144.798Z" fill="#DBDBDB"/>
<path d="M153.019 31.8833C152.973 29.4435 154.012 27.8183 155.006 26.8254C157.357 24.4747 161.241 24.114 164.721 24.114C167.522 24.114 171.996 24.5638 174.254 26.9145C176.24 28.947 176.015 31.3402 176.015 33.0587V41.9101C176.015 43.0854 176.151 43.7601 176.465 44.125C176.601 44.3075 176.962 44.6215 177.641 44.6215C178.002 44.6215 178.273 44.5748 178.456 44.4857V47.8718C177.599 48.0543 176.784 48.1434 175.837 48.1434C174.98 48.1434 173.532 48.0967 172.586 47.3753C171.907 46.8789 171.321 45.886 171.185 44.7573C170.281 45.9751 168.927 47.1504 167.391 47.7403C166.215 48.19 164.5 48.5083 161.699 48.5083C159.891 48.5083 157.136 48.4192 155.103 47.0189C153.749 46.0684 152.391 44.3075 152.391 41.6428C152.391 39.5636 153.248 38.1633 154.063 37.3529C154.607 36.7673 155.914 35.7277 158.401 35.1846C159.849 34.8663 161.474 34.7772 163.371 34.599L165.948 34.3741C168.07 34.1917 169.381 33.9668 170.103 33.2921C170.51 32.9314 170.825 32.3416 170.825 31.5312C170.825 30.5382 170.417 29.4096 168.974 28.5949C167.62 27.8735 165.765 27.7377 164.725 27.7377C163.236 27.7377 161.338 27.9202 160.073 28.6882C158.537 29.592 158.265 30.9032 158.265 31.8961H153.024L153.019 31.8833ZM170.731 36.5339C169.555 37.6159 168.38 37.6626 165.986 37.8451L163.503 38.0275C161.381 38.1633 160.252 38.3882 159.39 38.8847C158.669 39.3344 157.9 40.1491 157.9 41.5027C157.9 42.6314 158.444 43.5352 159.165 44.0784C160.205 44.8931 161.648 44.9822 162.735 44.9822C164.318 44.9822 166.44 44.7106 167.883 43.7177C170.549 41.8676 170.731 38.0275 170.731 36.9413V36.5339Z" fill="#DBDBDB"/>
<path d="M206.155 47.9609H201.096V44.7997H200.96C200.192 46.0641 199.063 47.1037 197.845 47.736C196.083 48.6398 193.914 48.7756 191.881 48.7756C189.53 48.7756 185.782 48.7289 182.934 45.7926C180.676 43.4418 179.772 39.6951 179.772 36.309C179.772 31.3868 181.487 28.5396 183.206 26.9612C185.782 24.6104 189.122 24.2073 191.788 24.2073C193.685 24.2073 195.493 24.3898 197.344 25.2002C199.059 25.9683 200.145 27.0078 200.913 28.1832V16.3489H206.155V47.9651V47.9609ZM187.497 29.8041C186.321 31.0219 185.281 33.1011 185.281 36.5339C185.281 39.9666 186.274 41.9991 187.497 43.2169C189.122 44.8888 191.245 45.2494 193.189 45.2494C194.997 45.2494 197.166 44.8888 198.88 43.1278C200.778 41.1844 201.096 38.5664 201.096 36.5339C201.096 35.0445 200.913 31.9257 198.791 29.8041C197.573 28.5863 195.765 27.725 193.189 27.725C191.788 27.725 189.305 27.9498 187.497 29.8041Z" fill="#DBDBDB"/>
</svg>
