<svg width="31" height="36" viewBox="0 0 31 36" fill="none" xmlns="http://www.w3.org/2000/svg">
<g id="Group">
<path id="Vector" d="M30.2754 15.6013C29.9831 14.8802 29.5646 14.2242 29.0284 13.6545L28.7109 13.3371C28.1431 12.8052 27.4891 12.3889 26.7699 12.0967C26.0086 11.7877 25.2011 11.63 24.3747 11.63C23.809 11.63 23.2538 11.7036 22.7155 11.8486C22.4653 11.9159 22.2192 12 21.9774 12.0967C21.2372 12.3973 20.5663 12.8304 19.9859 13.3833C19.9502 13.4212 19.9123 13.4611 19.8745 13.4989C19.8366 13.5368 19.7967 13.5746 19.7588 13.6104C19.7567 13.6125 19.7546 13.6146 19.7525 13.6167C19.7357 13.6335 19.7189 13.6482 19.6999 13.665L19.8135 13.5515L19.8724 13.4947L20.0322 13.3329C20.5642 12.7631 20.9806 12.1114 21.2729 11.3924C21.3696 11.1507 21.4537 10.9047 21.5189 10.6545C21.6661 10.1163 21.7376 9.56132 21.7376 8.99579C21.7376 8.16959 21.582 7.3644 21.2729 6.60126C20.9806 5.88227 20.5642 5.22845 20.0322 4.66083L15.37 0L1.72226 13.644C1.18392 14.2179 0.761243 14.876 0.466837 15.6013C0.157711 16.3644 0 17.1696 0 17.9979C0 18.8262 0.157711 19.6293 0.466837 20.3924C0.786478 21.1829 1.25753 21.8914 1.86527 22.4989C2.47301 23.1065 3.18166 23.5774 3.97235 23.897C4.7336 24.206 5.54114 24.3637 6.36758 24.3637C6.93326 24.3637 7.4884 24.2901 8.02674 24.1451C8.27489 24.0778 8.52303 23.9958 8.76486 23.897C9.47985 23.6069 10.1296 23.1927 10.6974 22.665L10.8678 22.4947L10.914 22.4506L11.0381 22.3245C11.0192 22.3434 11.0024 22.3644 10.9834 22.3833C10.975 22.3896 10.9687 22.398 10.9603 22.4064C10.9308 22.438 10.9014 22.4674 10.8699 22.4989C10.832 22.5368 10.7942 22.5725 10.7563 22.6104C10.2011 23.1906 9.77007 23.8612 9.46935 24.6013C9.37262 24.843 9.28847 25.089 9.22328 25.3392C9.07608 25.8774 9.00462 26.4324 9.00462 26.9958C9.00462 27.8241 9.16023 28.6293 9.46935 29.3924C9.7911 30.1829 10.26 30.8914 10.8678 31.4989L15.37 36L19.8156 31.5557C19.8366 31.5368 19.8556 31.5179 19.8745 31.4989C19.8934 31.48 19.9123 31.4611 19.9292 31.4422L24.3768 26.9958L28.877 22.4989C29.4847 21.8914 29.9558 21.1829 30.2754 20.3924C30.5845 19.6293 30.7422 18.8241 30.7422 17.9979C30.7422 17.1717 30.5845 16.3644 30.2754 15.6013ZM18.0113 18.2291C17.4645 18.4268 16.9641 18.7421 16.5414 19.1647H16.5393C16.1166 19.5893 15.8012 20.0897 15.6035 20.6363C15.45 21.0631 15.37 21.5193 15.37 21.986C15.37 21.5193 15.2902 21.0631 15.1367 20.6363C14.9411 20.0897 14.6257 19.5893 14.203 19.1647C14.203 19.1647 14.2023 19.164 14.2009 19.1626C13.7782 18.7421 13.2777 18.4268 12.7309 18.2291C12.3041 18.0778 11.8477 17.9979 11.3809 17.9979C11.8477 17.9979 12.3041 17.918 12.7309 17.7645C13.2777 17.569 13.7803 17.2516 14.203 16.829C14.6257 16.4043 14.9432 15.904 15.1367 15.3574C15.2902 14.9306 15.37 14.4765 15.37 14.0077C15.37 14.4765 15.45 14.9306 15.6035 15.3574C15.7991 15.904 16.1145 16.4043 16.5372 16.8269H16.5393C16.962 17.2516 17.4645 17.569 18.0113 17.7645C18.4382 17.918 18.8945 17.9979 19.3614 17.9979C18.8945 17.9979 18.4382 18.0778 18.0113 18.2291Z" fill="url(#paint0_linear_956_1615)"/>
</g>
<defs>
<linearGradient id="paint0_linear_956_1615" x1="0" y1="0" x2="32.6484" y2="1.82082" gradientUnits="userSpaceOnUse">
<stop stop-color="#02FF85"/>
<stop offset="1" stop-color="#19FF0A"/>
</linearGradient>
</defs>
</svg>
