<svg width="86" height="27" viewBox="0 0 86 27" fill="none" xmlns="http://www.w3.org/2000/svg">
<g id="Logo 3" clip-path="url(#clip0_272_1610)">
<path id="path8" d="M52.7412 20.8156C47.8057 24.5561 40.652 26.5519 34.4927 26.5519C25.8565 26.5519 18.0817 23.2675 12.1997 17.8049C11.7376 17.3753 12.1516 16.7899 12.7062 17.1244C19.054 20.922 26.9028 23.2066 35.0103 23.2066C40.4782 23.2066 46.4933 22.0434 52.024 19.6295C52.8596 19.2646 53.5583 20.1921 52.7412 20.8156Z" fill="white"/>
<path id="path10" d="M54.7931 18.4019C54.1646 17.5732 50.6229 18.0103 49.0332 18.2042C48.5488 18.265 48.4749 17.8317 48.9111 17.5199C51.732 15.4786 56.3606 16.0678 56.9004 16.7521C57.4402 17.4401 56.7599 22.2109 54.1092 24.4879C53.7025 24.8376 53.3143 24.6514 53.4955 24.1876C54.0907 22.6594 55.4253 19.2344 54.7931 18.4019Z" fill="white"/>
<path id="path12" d="M49.144 3.10867V1.12434C49.144 0.824032 49.3659 0.622559 49.6321 0.622559H58.272C58.5493 0.622559 58.7711 0.827834 58.7711 1.12434V2.82356C58.7674 3.10867 58.5345 3.4812 58.1204 4.07042L53.6433 10.643C55.307 10.6012 57.0631 10.8559 58.5715 11.7302C58.9116 11.9279 59.004 12.2168 59.0299 12.5019V14.6193C59.0299 14.9082 58.7193 15.2465 58.394 15.0716C55.7358 13.6385 52.2052 13.4827 49.266 15.0868C48.9666 15.2541 48.6523 14.9196 48.6523 14.6307V12.6197C48.6523 12.2966 48.656 11.7454 48.9703 11.255L54.1572 3.60665H49.6431C49.3659 3.60665 49.144 3.40518 49.144 3.10867Z" fill="white"/>
<path id="path14" d="M17.6269 15.4899H14.9983C14.7469 15.4708 14.5473 15.277 14.5288 15.0299V1.15861C14.5288 0.88111 14.7543 0.660627 15.0353 0.660627H17.4864C17.7415 0.672024 17.9449 0.873505 17.9633 1.1244V2.93766H18.0114C18.651 1.18522 19.8525 0.36792 21.4718 0.36792C23.117 0.36792 24.1448 1.18522 24.8842 2.93766C25.5201 1.18522 26.9656 0.36792 28.5146 0.36792C29.6164 0.36792 30.8216 0.835491 31.5573 1.88467C32.3891 3.0517 32.2191 4.74712 32.2191 6.23347L32.2154 14.9881C32.2154 15.2656 31.9898 15.4899 31.7089 15.4899H29.084C28.8215 15.4708 28.6108 15.2542 28.6108 14.9881V7.63618C28.6108 7.05077 28.6625 5.59103 28.5368 5.03603C28.3409 4.10469 27.7531 3.84239 26.9915 3.84239C26.3556 3.84239 25.6901 4.27955 25.4202 4.97901C25.1504 5.67846 25.1762 6.84929 25.1762 7.63618V14.9881C25.1762 15.2656 24.9507 15.4899 24.6697 15.4899H22.0449C21.7787 15.4708 21.5716 15.2542 21.5716 14.9881L21.5679 7.63618C21.5679 6.08901 21.8156 3.81198 19.9486 3.81198C18.0595 3.81198 18.1334 6.03199 18.1334 7.63618V14.9881C18.1334 15.2656 17.9079 15.4899 17.6269 15.4899Z" fill="white"/>
<path id="path16" d="M66.2097 0.36792C70.11 0.36792 72.221 3.81198 72.221 8.19118C72.221 12.4221 69.8882 15.7788 66.2097 15.7788C62.3796 15.7788 60.2944 12.3347 60.2944 8.04293C60.2944 3.72455 62.4054 0.36792 66.2097 0.36792ZM66.2319 3.19996C64.2946 3.19996 64.1726 5.91415 64.1726 7.60577C64.1726 9.30119 64.1467 12.9201 66.2097 12.9201C68.2467 12.9201 68.3429 10.0006 68.3429 8.22159C68.3429 7.05077 68.2948 5.65185 67.951 4.54185C67.6552 3.5763 67.0674 3.19996 66.2319 3.19996Z" fill="white"/>
<path id="path18" d="M77.2785 15.4899H74.661C74.3985 15.4708 74.1878 15.2542 74.1878 14.9881L74.1841 1.11299C74.2063 0.858299 74.4244 0.660627 74.6906 0.660627H77.1269C77.3561 0.672024 77.5447 0.83169 77.5964 1.04837V3.16954H77.6445C78.3802 1.27265 79.4117 0.36792 81.2269 0.36792C82.4063 0.36792 83.556 0.80508 84.2954 2.00252C84.9831 3.11252 84.9831 4.97901 84.9831 6.3209V15.0527C84.9535 15.296 84.7354 15.4899 84.4766 15.4899H81.8406C81.6003 15.4708 81.4007 15.2884 81.3748 15.0527V7.51834C81.3748 6.00158 81.5449 3.78157 79.7296 3.78157C79.09 3.78157 78.5022 4.22253 78.2101 4.89157C77.8404 5.73929 77.7924 6.5832 77.7924 7.51834V14.9881C77.7887 15.2656 77.5595 15.4899 77.2785 15.4899Z" fill="white"/>
<path id="use28" d="M42.2565 8.86402V8.27861C40.3562 8.27861 38.3487 8.69676 38.3487 11.0004C38.3487 12.1674 38.9366 12.9581 39.9459 12.9581C40.6853 12.9581 41.347 12.4906 41.7648 11.7303C42.2824 10.7951 42.2565 9.91701 42.2565 8.86402ZM44.9073 15.4518C44.7335 15.6115 44.4821 15.6229 44.2862 15.5165C43.4137 14.7714 43.2584 14.4255 42.7778 13.7146C41.3359 15.2276 40.3156 15.6799 38.4449 15.6799C36.234 15.6799 34.5112 14.2772 34.5112 11.468C34.5112 9.27457 35.6684 7.78063 37.3136 7.05076C38.7406 6.40452 40.7333 6.29048 42.2565 6.11182V5.76209C42.2565 5.11965 42.3046 4.35937 41.9385 3.80437C41.6169 3.30639 41.0032 3.10111 40.4634 3.10111C39.4615 3.10111 38.5669 3.62951 38.3487 4.72431C38.3044 4.9676 38.1306 5.20708 37.894 5.21849L35.3431 4.93718C35.1286 4.88777 34.892 4.7091 34.9512 4.37078C35.539 1.19282 38.3303 0.234863 40.8294 0.234863C42.1086 0.234863 43.7797 0.584591 44.789 1.58056C46.0681 2.8084 45.9461 4.4468 45.9461 6.22966V10.4416C45.9461 11.7075 46.4563 12.2625 46.9369 12.9467C47.107 13.19 47.144 13.4827 46.9295 13.6652C46.3935 14.1251 45.4396 14.9805 44.9146 15.4594L44.9073 15.4518Z" fill="white"/>
<path id="path30" d="M7.79653 8.86427V8.27885C5.89626 8.27885 3.88878 8.69701 3.88878 11.0006C3.88878 12.1677 4.4766 12.9584 5.48589 12.9584C6.2253 12.9584 6.88706 12.4908 7.30483 11.7305C7.82241 10.7954 7.79653 9.91725 7.79653 8.86427ZM10.4473 15.4521C10.2735 15.6117 10.0221 15.6231 9.82619 15.5167C8.9537 14.7716 8.79842 14.4257 8.31781 13.7148C6.87597 15.2278 5.8556 15.6802 3.9849 15.6802C1.77408 15.6802 0.0512695 14.2774 0.0512695 11.4682C0.0512695 9.27482 1.20844 7.78087 2.85361 7.051C4.28066 6.40476 6.27336 6.29072 7.79653 6.11206V5.76233C7.79653 5.11989 7.84459 4.35962 7.47859 3.80462C7.15694 3.30663 6.54324 3.10136 6.00347 3.10136C5.00158 3.10136 4.1069 3.62975 3.88878 4.72455C3.84441 4.96784 3.67065 5.20733 3.43404 5.21873L0.8831 4.93743C0.668672 4.88801 0.432062 4.70934 0.491215 4.37102C1.07904 1.19306 3.87029 0.235107 6.36948 0.235107C7.64865 0.235107 9.3197 0.584835 10.329 1.5808C11.6082 2.80865 11.4862 4.44705 11.4862 6.2299V10.4418C11.4862 11.7077 11.9963 12.2627 12.477 12.947C12.647 13.1902 12.684 13.483 12.4696 13.6654C11.9335 14.1254 10.9797 14.9807 10.4547 15.4597L10.4473 15.4521Z" fill="white"/>
</g>
<defs>
<clipPath id="clip0_272_1610">
<rect width="85.0333" height="26.3896" fill="white" transform="translate(0 0.199219)"/>
</clipPath>
</defs>
</svg>
