<svg width="64" height="35" viewBox="0 0 64 35" fill="none" xmlns="http://www.w3.org/2000/svg">
<g clip-path="url(#clip0_272_1794)">
<path d="M1.26246 9.33416C2.2025 7.53161 3.61762 6.01948 5.35521 4.96084C7.09279 3.90222 9.08692 3.33727 11.1225 3.32694C11.2716 3.32694 11.4174 3.32694 11.5631 3.3355C9.65806 5.32306 8.63776 7.75404 8.48857 11.4706C8.456 12.2548 8.48857 16.0775 8.48857 20.3728C8.48857 26.7464 8.48857 34.1591 8.48857 34.1591H0.0381063V19.1111C0.0381063 17.5583 -0.0476329 15.9646 0.0381063 14.3963C0.134135 12.6468 0.439367 10.9297 1.26246 9.33416ZM19.4152 0.000622058C17.9422 -0.0152819 16.482 0.273932 15.1266 0.849997C13.7713 1.42606 12.5503 2.27646 11.5409 3.34748C17.8375 3.34748 21.9137 7.62735 22.1417 14.4443C22.1931 16.0073 22.2103 24.3736 22.2103 24.3736V34.1523H30.6591V20.936C30.6591 16.9403 30.6916 13.4805 30.4121 11.0991C29.6336 4.45168 25.5593 0.000622058 19.4152 0.000622058ZM63.9619 20.5714C64.0476 19.0033 63.9619 17.4111 63.9619 15.8584V0.810373H55.5149C55.5149 0.810373 55.5149 8.2231 55.5149 14.595C55.5149 18.8852 55.5474 22.7097 55.5149 23.4971C55.3657 27.2155 54.3454 29.6447 52.4402 31.6323C52.5861 31.6323 52.7335 31.6425 52.8809 31.6425C54.9165 31.6323 56.9106 31.0672 58.6482 30.0086C60.3859 28.95 61.801 27.4379 62.741 25.6354C63.564 24.0346 63.8693 22.3193 63.9619 20.5714ZM44.5849 34.9654C46.0578 34.9814 47.518 34.6921 48.8734 34.1161C50.2288 33.54 51.4497 32.6896 52.4591 31.6186C46.1625 31.6186 42.0863 27.3387 41.8583 20.5218C41.8069 18.957 41.7846 15.0761 41.7846 10.5805V0.801814L33.3409 0.810373V14.0386C33.3409 18.0343 33.3084 21.4941 33.5879 23.8755C34.3699 30.5229 38.4441 34.9654 44.5849 34.9654Z" fill="#808080"/>
</g>
<defs>
<clipPath id="clip0_272_1794">
<rect width="64" height="35" fill="white"/>
</clipPath>
</defs>
</svg>
