<svg width="162" height="27" viewBox="0 0 162 27" fill="none" xmlns="http://www.w3.org/2000/svg">
<g id="Logo 1">
<path id="polygon16" d="M133.482 20.3284L133.166 0.981934H138.871V25.366H130.669L124.976 5.35446H124.853L125.169 25.366H119.501V0.981934H128.058L133.355 20.3284H133.482Z" fill="#BBBBBB"/>
<path id="polygon18" d="M29.781 3.26507L26.6249 25.6226H20.4033L24.6759 0.981934H34.9253L39.1784 25.6226H32.9812L29.9108 3.26507H29.781Z" fill="#BBBBBB"/>
<path id="polygon20" d="M53.6688 25.6226L49.8148 3.4693H49.69L49.5455 25.6226H43.7744L44.2837 0.981934H53.6859L56.5311 19.8178H56.6535L59.5011 0.981934H68.8984L69.3979 25.6226H63.639L63.4872 3.4693H63.3673L59.5158 25.6226H53.6688Z" fill="#BBBBBB"/>
<path id="path22" d="M10.6999 18.6712C10.9252 19.2682 10.8566 20.0353 10.7513 20.4987C10.5579 21.3183 10.0388 22.1535 8.50607 22.1535C7.06146 22.1535 6.1849 21.2685 6.1849 19.9149V17.5296H0.00490397L0 19.4383C0 24.9315 4.04492 26.5889 8.37875 26.5889C12.5461 26.5889 15.9789 25.065 16.5249 20.9596C16.804 18.8309 16.5959 17.438 16.5004 16.9117C15.5283 11.7537 6.78233 10.2141 6.13103 7.32879C6.02085 6.83394 6.05268 6.31028 6.10654 6.03013C6.2657 5.24464 6.77009 4.37799 8.21225 4.37799C9.55892 4.37799 10.3547 5.26821 10.3547 6.614C10.3547 7.06697 10.3547 8.13523 10.3547 8.13523H16.1013V6.40454C16.1013 1.03707 11.5961 0.199219 8.33223 0.199219C4.23345 0.199219 0.883909 1.64713 0.271786 5.65833C0.105289 6.76586 0.0808034 7.75296 0.323203 8.98878C1.32954 14.0237 9.51486 15.4821 10.6999 18.6712Z" fill="#BBBBBB"/>
<path id="path24" d="M85.6288 18.6265C85.8565 19.2182 85.7831 19.9644 85.6803 20.4279C85.4917 21.2448 84.9775 22.0669 83.4546 22.0669C82.0296 22.0669 81.1603 21.1819 81.1603 19.8597L81.1554 17.4954H75.0391L75.0317 19.378C75.0317 24.8161 79.0399 26.4578 83.3297 26.4578C87.4529 26.4578 90.8539 24.9549 91.3901 20.8861C91.6693 18.7731 91.4709 17.3985 91.3705 16.8827C90.4034 11.7719 81.7455 10.248 81.1016 7.39147C80.9914 6.89923 81.0232 6.38081 81.0795 6.11637C81.2436 5.32565 81.7382 4.47994 83.1656 4.47994C84.5001 4.47994 85.2787 5.34921 85.2787 6.68453C85.2787 7.13226 85.2787 8.19004 85.2787 8.19004H90.9812V6.47769C90.9812 1.16782 86.5127 0.335205 83.2807 0.335205C79.2285 0.335205 75.9058 1.76479 75.306 5.74719C75.1395 6.83901 75.1223 7.80778 75.3598 9.03837C76.3515 14.021 84.456 15.4689 85.6288 18.6265Z" fill="#BBBBBB"/>
<path id="path26" d="M104.984 21.936C106.583 21.936 107.083 20.7525 107.193 20.1477C107.239 19.8807 107.251 19.5246 107.247 19.2051V0.971436H113.074V18.6474C113.086 19.1004 113.045 20.0325 113.025 20.2655C112.616 24.8659 109.215 26.3583 104.982 26.3583C100.743 26.3583 97.3399 24.8659 96.9359 20.2655C96.9163 20.0325 96.8747 19.1004 96.887 18.6474V0.971436H102.709V19.2051C102.709 19.5246 102.719 19.8833 102.763 20.1477C102.888 20.7525 103.373 21.936 104.984 21.936Z" fill="#BBBBBB"/>
<path id="path28" d="M153.053 21.677C154.723 21.677 155.306 20.5486 155.413 19.8914C155.455 19.6086 155.467 19.2656 155.465 18.954V15.3775H153.099V11.7799H161.27V18.3937C161.265 18.8545 161.255 19.1949 161.187 20.0171C160.802 24.4995 157.166 26.0993 153.082 26.0993C148.991 26.0993 145.36 24.4995 144.97 20.0171C144.904 19.1949 144.895 18.8545 144.887 18.3937L144.892 8.01747C144.892 7.58022 144.944 6.80521 144.988 6.39414C145.499 1.78859 148.991 0.306641 153.082 0.306641C157.169 0.306641 160.746 1.78073 161.17 6.39414C161.246 7.17963 161.221 8.01747 161.221 8.01747V8.83961H155.411V7.45978C155.416 7.4624 155.403 6.87329 155.335 6.52244C155.237 5.97784 154.794 4.7263 153.038 4.7263C151.359 4.7263 150.866 5.90976 150.744 6.52244C150.673 6.8471 150.646 7.28697 150.646 7.68495V18.954C150.641 19.2656 150.658 19.6086 150.705 19.8914C150.805 20.5512 151.386 21.677 153.053 21.677Z" fill="#BBBBBB"/>
</g>
</svg>
