<svg width="83" height="83" viewBox="0 0 83 83" fill="none" xmlns="http://www.w3.org/2000/svg">
<g id="Union">
<mask id="path-1-inside-1_272_3107" fill="white">
<path fill-rule="evenodd" clip-rule="evenodd" d="M32.4706 19.0208L83 19.0208V3.62805e-06H19.0208H7.25609e-06L0 0V19.0208V83H19.0208L19.0208 32.4706L64.4073 77.8571L77.8571 64.4073L32.4706 19.0208Z"/>
</mask>
<path d="M32.4706 19.0208V15.0208L22.8137 15.0208L29.6422 21.8493L32.4706 19.0208ZM83 19.0208V23.0208H87V19.0208H83ZM83 3.62805e-06H87V-4H83V3.62805e-06ZM7.25609e-06 3.62805e-06L-1.78885 3.57771L-0.944265 4H7.25609e-06V3.62805e-06ZM0 0L1.78885 -3.57771L-4 -6.47214V0H0ZM0 83H-4V87H0V83ZM19.0208 83V87H23.0208V83L19.0208 83ZM19.0208 32.4706L21.8493 29.6422L15.0208 22.8138L15.0208 32.4706H19.0208ZM64.4073 77.8571L61.5789 80.6855L64.4073 83.5139L67.2357 80.6855L64.4073 77.8571ZM77.8571 64.4073L80.6855 67.2357L83.5139 64.4073L80.6855 61.5789L77.8571 64.4073ZM32.4706 23.0208L83 23.0208V15.0208L32.4706 15.0208V23.0208ZM87 19.0208V3.62805e-06H79V19.0208H87ZM83 -4H19.0208V4H83V-4ZM19.0208 -4H7.25609e-06V4H19.0208V-4ZM1.78886 -3.57771L1.78885 -3.57771L-1.78885 3.57771L-1.78885 3.57771L1.78886 -3.57771ZM-4 0V19.0208H4V0H-4ZM-4 19.0208V83H4V19.0208H-4ZM0 87H19.0208V79H0V87ZM23.0208 83L23.0208 32.4706H15.0208L15.0208 83L23.0208 83ZM67.2357 75.0287L21.8493 29.6422L16.1924 35.299L61.5789 80.6855L67.2357 75.0287ZM75.0286 61.5789L61.5789 75.0287L67.2357 80.6855L80.6855 67.2357L75.0286 61.5789ZM29.6422 21.8493L75.0286 67.2357L80.6855 61.5789L35.299 16.1924L29.6422 21.8493Z" fill="url(#paint0_linear_272_3107)" mask="url(#path-1-inside-1_272_3107)"/>
</g>
<defs>
<linearGradient id="paint0_linear_272_3107" x1="0" y1="0" x2="83.8875" y2="82.0931" gradientUnits="userSpaceOnUse">
<stop stop-color="white"/>
<stop offset="1" stop-color="#2B2B2B" stop-opacity="0.1"/>
</linearGradient>
</defs>
</svg>
