<svg width="149" height="27" viewBox="0 0 149 27" fill="none" xmlns="http://www.w3.org/2000/svg">
<g id="Logo 5" clip-path="url(#clip0_272_1632)">
<g id="layer1">
<path id="path3256" d="M113.187 1.67467V4.6073H116.028C117.269 4.6073 118.085 5.39601 118.549 5.90581C118.921 6.32564 127.106 15.6761 127.302 15.922C127.499 16.1679 127.499 16.1708 127.499 16.3267V20.9603C127.498 21.1727 127.477 21.3845 127.436 21.5928C127.378 21.7273 127.291 21.8475 127.182 21.9449C127.074 22.0423 126.945 22.1146 126.805 22.1569C126.537 22.1909 126.266 22.2079 125.996 22.2079L123.151 22.2043V25.137H139.109V22.2043H136.106C135.837 22.2057 135.568 22.1884 135.302 22.1528C135.163 22.1109 135.034 22.0388 134.926 21.9414C134.817 21.8441 134.731 21.7239 134.674 21.5893C134.632 21.3811 134.611 21.1692 134.609 20.9567V16.3261C134.591 16.1739 134.629 16.0204 134.716 15.8945L143.57 5.71663C144.383 4.80498 144.805 4.60671 145.871 4.60671H148.808V1.67407H135.657V4.60085H137.642C137.748 4.5944 137.854 4.61888 137.947 4.67133C138.04 4.72379 138.116 4.80203 138.166 4.89677C138.216 4.99151 138.238 5.09877 138.23 5.20579C138.221 5.31281 138.182 5.4151 138.118 5.5005C138.076 5.56046 132.612 12.0349 132.543 12.0979C132.475 12.1609 132.431 12.1457 132.38 12.0768C132.329 12.0078 126.93 5.50051 126.93 5.50051C126.549 5.02969 126.847 4.60086 127.294 4.60086H129.228V1.67409L113.187 1.67467Z" fill="white"/>
<path id="path3254" d="M74.0474 1.67456V4.6072H76.5945C78.4338 4.6072 78.5593 5.63923 78.5593 6.53887V20.2643C78.5593 21.086 78.6065 22.2136 77.4339 22.2136H74.2909V25.1433H87.711V22.2136H84.4372C83.1306 22.2136 83.0709 21.611 83.0561 20.3305V8.57186L101.487 25.1433H106.175L105.928 6.42758C105.952 5.06012 106.035 4.60427 107.44 4.60427H110.377V1.67456H96.6866V4.60427H99.693C101.074 4.60427 101.306 5.14109 101.323 6.42758L101.487 16.2218L85.4876 1.67456H74.0474Z" fill="white"/>
<path id="path3252" d="M13.616 0.199219C10.7321 0.199219 7.4553 0.745 4.68747 1.99851C2.10415 3.16205 1.87588e-05 5.03016 1.87588e-05 8.12795C-0.00390673 9.75023 0.60839 11.3125 1.71131 12.4944C2.45833 13.1901 3.66386 14.3717 6.81264 15.0674C8.22037 15.3673 11.2293 15.8501 14.2263 16.168C17.2233 16.4858 20.1281 16.7678 21.3185 17.0887C22.265 17.3316 23.857 17.6615 23.857 19.4608C23.857 21.2601 22.1816 21.7997 21.8899 21.9167C21.5983 22.0336 19.5861 22.9633 15.9731 22.9633C13.5792 22.8963 11.2071 22.4853 8.92849 21.7427C7.58029 21.2569 6.16693 20.6181 4.84848 18.9958C4.31626 18.2318 4.02091 17.326 3.99981 16.3929H0.726023V25.6295H4.3631V24.379C4.3625 24.2862 4.38649 24.1949 4.43256 24.1146C4.47862 24.0343 4.5451 23.9678 4.62517 23.9219C4.70524 23.8761 4.79599 23.8526 4.88807 23.8539C4.98014 23.8552 5.07022 23.8811 5.14901 23.9292C6.86236 24.6803 8.64454 25.2608 10.4701 25.6623C12.3808 26.0641 13.6161 26.3552 15.9911 26.3552C18.4971 26.4032 20.9947 26.0479 23.3896 25.3027C24.9799 24.8633 26.4721 24.1211 27.7853 23.1162C28.5239 22.5445 29.1209 21.8081 29.5294 20.9646C29.9379 20.1212 30.1467 19.1939 30.1395 18.2554C30.1521 16.4724 29.4693 14.7556 28.2381 13.4749C27.5534 12.8055 26.7601 12.259 25.8926 11.8589C24.9601 11.4343 23.9919 11.094 22.9996 10.8421C21.1127 10.3773 16.875 9.79554 14.8483 9.59163C12.7233 9.36971 9.0357 9.06061 7.56249 8.60179C7.11607 8.46085 6.20521 8.02638 6.20521 6.9618C6.20521 6.20309 6.62191 5.56124 7.44334 5.04244C8.74987 4.21775 11.3868 3.70467 14.1368 3.70467C16.7986 3.67226 19.4387 4.19181 21.8928 5.23103C22.5521 5.52058 23.1721 5.89356 23.7378 6.34095C24.6601 7.13468 25.2987 8.21109 25.5561 9.40538H28.4939V1.36595H25.2201V2.2984C25.2201 2.59828 24.9225 2.99426 24.3273 2.66739C22.8511 1.8937 18.7022 0.220209 13.616 0.199219Z" fill="white"/>
<path id="path3237" d="M53.0147 0.199219C47.857 0.199219 42.3806 1.99829 39.2854 4.83218C38.1054 5.91469 37.1635 7.23414 36.5202 8.70561C35.8768 10.1771 35.5464 11.768 35.5501 13.3759C35.5316 14.9904 35.8553 16.5904 36.4995 18.0689C37.1436 19.5473 38.0934 20.8703 39.2854 21.9495C42.6187 24.9693 47.6189 26.5889 53.0147 26.5889C58.4194 26.5889 63.5265 24.9873 66.7795 21.9495C67.9361 20.845 68.8589 19.5159 69.492 18.0424C70.1252 16.569 70.4557 14.9815 70.4636 13.3759C70.4796 11.7719 70.1597 10.1825 69.5249 8.71145C68.8901 7.2404 67.9546 5.92076 66.7795 4.83861C63.2884 1.64786 58.72 0.199219 53.0147 0.199219ZM53.0147 3.62971C55.8361 3.62971 58.5533 4.6526 60.3836 6.46689C62.1544 8.22419 63.0796 10.7072 63.0796 13.3642C63.0796 16.1471 62.2378 18.4022 60.3836 20.2615C58.5295 22.1207 55.8748 23.1162 53.0147 23.1162C50.1754 23.1162 47.4639 22.0998 45.6336 20.2615C44.7582 19.3463 44.0709 18.2658 43.6112 17.0821C43.1515 15.8985 42.9285 14.635 42.955 13.3642C42.955 10.7192 43.8687 8.22718 45.6336 6.46689C47.4639 4.6436 50.1933 3.62971 53.0147 3.62971Z" fill="white"/>
</g>
</g>
<defs>
<clipPath id="clip0_272_1632">
<rect width="148.808" height="26.3896" fill="white" transform="translate(0 0.199219)"/>
</clipPath>
</defs>
</svg>
