<svg width="13" height="13" viewBox="0 0 13 13" fill="none" xmlns="http://www.w3.org/2000/svg">
<path d="M2.39474 7.18421C2.01842 7.18421 1.71053 7.49211 1.71053 7.86842C1.71053 8.24474 2.01842 8.55263 2.39474 8.55263C2.77105 8.55263 3.07895 8.24474 3.07895 7.86842C3.07895 7.49211 2.77105 7.18421 2.39474 7.18421ZM2.39474 9.92105C2.01842 9.92105 1.71053 10.2289 1.71053 10.6053C1.71053 10.9816 2.01842 11.2895 2.39474 11.2895C2.77105 11.2895 3.07895 10.9816 3.07895 10.6053C3.07895 10.2289 2.77105 9.92105 2.39474 9.92105ZM2.39474 4.44737C2.01842 4.44737 1.71053 4.75526 1.71053 5.13158C1.71053 5.50789 2.01842 5.81579 2.39474 5.81579C2.77105 5.81579 3.07895 5.50789 3.07895 5.13158C3.07895 4.75526 2.77105 4.44737 2.39474 4.44737ZM0.342105 4.78947C0.150526 4.78947 0 4.94 0 5.13158C0 5.32316 0.150526 5.47368 0.342105 5.47368C0.533684 5.47368 0.684211 5.32316 0.684211 5.13158C0.684211 4.94 0.533684 4.78947 0.342105 4.78947ZM2.39474 1.71053C2.01842 1.71053 1.71053 2.01842 1.71053 2.39474C1.71053 2.77105 2.01842 3.07895 2.39474 3.07895C2.77105 3.07895 3.07895 2.77105 3.07895 2.39474C3.07895 2.01842 2.77105 1.71053 2.39474 1.71053ZM12.6579 5.47368C12.8495 5.47368 13 5.32316 13 5.13158C13 4.94 12.8495 4.78947 12.6579 4.78947C12.4663 4.78947 12.3158 4.94 12.3158 5.13158C12.3158 5.32316 12.4663 5.47368 12.6579 5.47368ZM7.86842 3.07895C8.24474 3.07895 8.55263 2.77105 8.55263 2.39474C8.55263 2.01842 8.24474 1.71053 7.86842 1.71053C7.49211 1.71053 7.18421 2.01842 7.18421 2.39474C7.18421 2.77105 7.49211 3.07895 7.86842 3.07895ZM7.86842 0.684211C8.06 0.684211 8.21053 0.533684 8.21053 0.342105C8.21053 0.150526 8.06 0 7.86842 0C7.67684 0 7.52632 0.150526 7.52632 0.342105C7.52632 0.533684 7.67684 0.684211 7.86842 0.684211ZM0.342105 7.52632C0.150526 7.52632 0 7.67684 0 7.86842C0 8.06 0.150526 8.21053 0.342105 8.21053C0.533684 8.21053 0.684211 8.06 0.684211 7.86842C0.684211 7.67684 0.533684 7.52632 0.342105 7.52632ZM5.13158 12.3158C4.94 12.3158 4.78947 12.4663 4.78947 12.6579C4.78947 12.8495 4.94 13 5.13158 13C5.32316 13 5.47368 12.8495 5.47368 12.6579C5.47368 12.4663 5.32316 12.3158 5.13158 12.3158ZM5.13158 0.684211C5.32316 0.684211 5.47368 0.533684 5.47368 0.342105C5.47368 0.150526 5.32316 0 5.13158 0C4.94 0 4.78947 0.150526 4.78947 0.342105C4.78947 0.533684 4.94 0.684211 5.13158 0.684211ZM5.13158 3.07895C5.50789 3.07895 5.81579 2.77105 5.81579 2.39474C5.81579 2.01842 5.50789 1.71053 5.13158 1.71053C4.75526 1.71053 4.44737 2.01842 4.44737 2.39474C4.44737 2.77105 4.75526 3.07895 5.13158 3.07895ZM5.13158 6.84211C4.56368 6.84211 4.10526 7.30053 4.10526 7.86842C4.10526 8.43632 4.56368 8.89474 5.13158 8.89474C5.69947 8.89474 6.1579 8.43632 6.1579 7.86842C6.1579 7.30053 5.69947 6.84211 5.13158 6.84211ZM10.6053 7.18421C10.2289 7.18421 9.92105 7.49211 9.92105 7.86842C9.92105 8.24474 10.2289 8.55263 10.6053 8.55263C10.9816 8.55263 11.2895 8.24474 11.2895 7.86842C11.2895 7.49211 10.9816 7.18421 10.6053 7.18421ZM10.6053 9.92105C10.2289 9.92105 9.92105 10.2289 9.92105 10.6053C9.92105 10.9816 10.2289 11.2895 10.6053 11.2895C10.9816 11.2895 11.2895 10.9816 11.2895 10.6053C11.2895 10.2289 10.9816 9.92105 10.6053 9.92105ZM10.6053 4.44737C10.2289 4.44737 9.92105 4.75526 9.92105 5.13158C9.92105 5.50789 10.2289 5.81579 10.6053 5.81579C10.9816 5.81579 11.2895 5.50789 11.2895 5.13158C11.2895 4.75526 10.9816 4.44737 10.6053 4.44737ZM10.6053 1.71053C10.2289 1.71053 9.92105 2.01842 9.92105 2.39474C9.92105 2.77105 10.2289 3.07895 10.6053 3.07895C10.9816 3.07895 11.2895 2.77105 11.2895 2.39474C11.2895 2.01842 10.9816 1.71053 10.6053 1.71053ZM12.6579 7.52632C12.4663 7.52632 12.3158 7.67684 12.3158 7.86842C12.3158 8.06 12.4663 8.21053 12.6579 8.21053C12.8495 8.21053 13 8.06 13 7.86842C13 7.67684 12.8495 7.52632 12.6579 7.52632ZM7.86842 9.92105C7.49211 9.92105 7.18421 10.2289 7.18421 10.6053C7.18421 10.9816 7.49211 11.2895 7.86842 11.2895C8.24474 11.2895 8.55263 10.9816 8.55263 10.6053C8.55263 10.2289 8.24474 9.92105 7.86842 9.92105ZM7.86842 12.3158C7.67684 12.3158 7.52632 12.4663 7.52632 12.6579C7.52632 12.8495 7.67684 13 7.86842 13C8.06 13 8.21053 12.8495 8.21053 12.6579C8.21053 12.4663 8.06 12.3158 7.86842 12.3158ZM5.13158 4.10526C4.56368 4.10526 4.10526 4.56368 4.10526 5.13158C4.10526 5.69947 4.56368 6.1579 5.13158 6.1579C5.69947 6.1579 6.1579 5.69947 6.1579 5.13158C6.1579 4.56368 5.69947 4.10526 5.13158 4.10526ZM5.13158 9.92105C4.75526 9.92105 4.44737 10.2289 4.44737 10.6053C4.44737 10.9816 4.75526 11.2895 5.13158 11.2895C5.50789 11.2895 5.81579 10.9816 5.81579 10.6053C5.81579 10.2289 5.50789 9.92105 5.13158 9.92105ZM7.86842 6.84211C7.30053 6.84211 6.84211 7.30053 6.84211 7.86842C6.84211 8.43632 7.30053 8.89474 7.86842 8.89474C8.43632 8.89474 8.89474 8.43632 8.89474 7.86842C8.89474 7.30053 8.43632 6.84211 7.86842 6.84211ZM7.86842 4.10526C7.30053 4.10526 6.84211 4.56368 6.84211 5.13158C6.84211 5.69947 7.30053 6.1579 7.86842 6.1579C8.43632 6.1579 8.89474 5.69947 8.89474 5.13158C8.89474 4.56368 8.43632 4.10526 7.86842 4.10526Z" fill="url(#paint0_linear_272_3457)"/>
<defs>
<linearGradient id="paint0_linear_272_3457" x1="0" y1="0" x2="13.7902" y2="0.900619" gradientUnits="userSpaceOnUse">
<stop stop-color="#02FF85"/>
<stop offset="1" stop-color="#19FF0A"/>
</linearGradient>
</defs>
</svg>
