<svg width="27" height="27" viewBox="0 0 27 27" fill="none" xmlns="http://www.w3.org/2000/svg">
<path id="Vector" d="M4.97368 14.9211C4.19211 14.9211 3.55263 15.5605 3.55263 16.3421C3.55263 17.1237 4.19211 17.7632 4.97368 17.7632C5.75526 17.7632 6.39474 17.1237 6.39474 16.3421C6.39474 15.5605 5.75526 14.9211 4.97368 14.9211ZM4.97368 20.6053C4.19211 20.6053 3.55263 21.2447 3.55263 22.0263C3.55263 22.8079 4.19211 23.4474 4.97368 23.4474C5.75526 23.4474 6.39474 22.8079 6.39474 22.0263C6.39474 21.2447 5.75526 20.6053 4.97368 20.6053ZM4.97368 9.23684C4.19211 9.23684 3.55263 9.87632 3.55263 10.6579C3.55263 11.4395 4.19211 12.0789 4.97368 12.0789C5.75526 12.0789 6.39474 11.4395 6.39474 10.6579C6.39474 9.87632 5.75526 9.23684 4.97368 9.23684ZM0.710526 9.94737C0.312632 9.94737 0 10.26 0 10.6579C0 11.0558 0.312632 11.3684 0.710526 11.3684C1.10842 11.3684 1.42105 11.0558 1.42105 10.6579C1.42105 10.26 1.10842 9.94737 0.710526 9.94737ZM4.97368 3.55263C4.19211 3.55263 3.55263 4.19211 3.55263 4.97368C3.55263 5.75526 4.19211 6.39474 4.97368 6.39474C5.75526 6.39474 6.39474 5.75526 6.39474 4.97368C6.39474 4.19211 5.75526 3.55263 4.97368 3.55263ZM26.2895 11.3684C26.6874 11.3684 27 11.0558 27 10.6579C27 10.26 26.6874 9.94737 26.2895 9.94737C25.8916 9.94737 25.5789 10.26 25.5789 10.6579C25.5789 11.0558 25.8916 11.3684 26.2895 11.3684ZM16.3421 6.39474C17.1237 6.39474 17.7632 5.75526 17.7632 4.97368C17.7632 4.19211 17.1237 3.55263 16.3421 3.55263C15.5605 3.55263 14.9211 4.19211 14.9211 4.97368C14.9211 5.75526 15.5605 6.39474 16.3421 6.39474ZM16.3421 1.42105C16.74 1.42105 17.0526 1.10842 17.0526 0.710526C17.0526 0.312632 16.74 0 16.3421 0C15.9442 0 15.6316 0.312632 15.6316 0.710526C15.6316 1.10842 15.9442 1.42105 16.3421 1.42105ZM0.710526 15.6316C0.312632 15.6316 0 15.9442 0 16.3421C0 16.74 0.312632 17.0526 0.710526 17.0526C1.10842 17.0526 1.42105 16.74 1.42105 16.3421C1.42105 15.9442 1.10842 15.6316 0.710526 15.6316ZM10.6579 25.5789C10.26 25.5789 9.94737 25.8916 9.94737 26.2895C9.94737 26.6874 10.26 27 10.6579 27C11.0558 27 11.3684 26.6874 11.3684 26.2895C11.3684 25.8916 11.0558 25.5789 10.6579 25.5789ZM10.6579 1.42105C11.0558 1.42105 11.3684 1.10842 11.3684 0.710526C11.3684 0.312632 11.0558 0 10.6579 0C10.26 0 9.94737 0.312632 9.94737 0.710526C9.94737 1.10842 10.26 1.42105 10.6579 1.42105ZM10.6579 6.39474C11.4395 6.39474 12.0789 5.75526 12.0789 4.97368C12.0789 4.19211 11.4395 3.55263 10.6579 3.55263C9.87632 3.55263 9.23684 4.19211 9.23684 4.97368C9.23684 5.75526 9.87632 6.39474 10.6579 6.39474ZM10.6579 14.2105C9.47842 14.2105 8.52632 15.1626 8.52632 16.3421C8.52632 17.5216 9.47842 18.4737 10.6579 18.4737C11.8374 18.4737 12.7895 17.5216 12.7895 16.3421C12.7895 15.1626 11.8374 14.2105 10.6579 14.2105ZM22.0263 14.9211C21.2447 14.9211 20.6053 15.5605 20.6053 16.3421C20.6053 17.1237 21.2447 17.7632 22.0263 17.7632C22.8079 17.7632 23.4474 17.1237 23.4474 16.3421C23.4474 15.5605 22.8079 14.9211 22.0263 14.9211ZM22.0263 20.6053C21.2447 20.6053 20.6053 21.2447 20.6053 22.0263C20.6053 22.8079 21.2447 23.4474 22.0263 23.4474C22.8079 23.4474 23.4474 22.8079 23.4474 22.0263C23.4474 21.2447 22.8079 20.6053 22.0263 20.6053ZM22.0263 9.23684C21.2447 9.23684 20.6053 9.87632 20.6053 10.6579C20.6053 11.4395 21.2447 12.0789 22.0263 12.0789C22.8079 12.0789 23.4474 11.4395 23.4474 10.6579C23.4474 9.87632 22.8079 9.23684 22.0263 9.23684ZM22.0263 3.55263C21.2447 3.55263 20.6053 4.19211 20.6053 4.97368C20.6053 5.75526 21.2447 6.39474 22.0263 6.39474C22.8079 6.39474 23.4474 5.75526 23.4474 4.97368C23.4474 4.19211 22.8079 3.55263 22.0263 3.55263ZM26.2895 15.6316C25.8916 15.6316 25.5789 15.9442 25.5789 16.3421C25.5789 16.74 25.8916 17.0526 26.2895 17.0526C26.6874 17.0526 27 16.74 27 16.3421C27 15.9442 26.6874 15.6316 26.2895 15.6316ZM16.3421 20.6053C15.5605 20.6053 14.9211 21.2447 14.9211 22.0263C14.9211 22.8079 15.5605 23.4474 16.3421 23.4474C17.1237 23.4474 17.7632 22.8079 17.7632 22.0263C17.7632 21.2447 17.1237 20.6053 16.3421 20.6053ZM16.3421 25.5789C15.9442 25.5789 15.6316 25.8916 15.6316 26.2895C15.6316 26.6874 15.9442 27 16.3421 27C16.74 27 17.0526 26.6874 17.0526 26.2895C17.0526 25.8916 16.74 25.5789 16.3421 25.5789ZM10.6579 8.52632C9.47842 8.52632 8.52632 9.47842 8.52632 10.6579C8.52632 11.8374 9.47842 12.7895 10.6579 12.7895C11.8374 12.7895 12.7895 11.8374 12.7895 10.6579C12.7895 9.47842 11.8374 8.52632 10.6579 8.52632ZM10.6579 20.6053C9.87632 20.6053 9.23684 21.2447 9.23684 22.0263C9.23684 22.8079 9.87632 23.4474 10.6579 23.4474C11.4395 23.4474 12.0789 22.8079 12.0789 22.0263C12.0789 21.2447 11.4395 20.6053 10.6579 20.6053ZM16.3421 14.2105C15.1626 14.2105 14.2105 15.1626 14.2105 16.3421C14.2105 17.5216 15.1626 18.4737 16.3421 18.4737C17.5216 18.4737 18.4737 17.5216 18.4737 16.3421C18.4737 15.1626 17.5216 14.2105 16.3421 14.2105ZM16.3421 8.52632C15.1626 8.52632 14.2105 9.47842 14.2105 10.6579C14.2105 11.8374 15.1626 12.7895 16.3421 12.7895C17.5216 12.7895 18.4737 11.8374 18.4737 10.6579C18.4737 9.47842 17.5216 8.52632 16.3421 8.52632Z" fill="url(#paint0_linear_272_3492)"/>
<defs>
<linearGradient id="paint0_linear_272_3492" x1="0" y1="0" x2="28.6412" y2="1.87052" gradientUnits="userSpaceOnUse">
<stop stop-color="#02FF85"/>
<stop offset="1" stop-color="#19FF0A"/>
</linearGradient>
</defs>
</svg>
