<svg width="36" height="37" viewBox="0 0 36 37" fill="none" xmlns="http://www.w3.org/2000/svg">
<g id="Twitter - Negative">
<path id="Vector" d="M11.3252 33.5592C24.9068 33.5592 32.3374 22.3043 32.3374 12.547C32.3374 12.2306 32.3304 11.9072 32.3163 11.5907C33.7618 10.5454 35.0092 9.25059 36 7.76715C34.6538 8.3661 33.2245 8.75728 31.7609 8.92731C33.3019 8.00357 34.4558 6.55241 35.0086 4.84285C33.5588 5.70204 31.9734 6.30812 30.3202 6.63512C29.2063 5.45155 27.7335 4.66788 26.1295 4.40528C24.5256 4.14268 22.8798 4.41578 21.4466 5.18235C20.0134 5.94892 18.8727 7.16626 18.2008 8.64617C17.5288 10.1261 17.3631 11.7861 17.7293 13.3697C14.7937 13.2223 11.9219 12.4598 9.29997 11.1314C6.67804 9.80294 4.36454 7.93836 2.50945 5.65848C1.5666 7.28407 1.27808 9.20767 1.70255 11.0383C2.12701 12.869 3.23259 14.4694 4.79461 15.5142C3.62194 15.477 2.47496 15.1612 1.44844 14.5931V14.6845C1.44739 16.3904 2.03715 18.0441 3.11746 19.3644C4.19778 20.6846 5.70199 21.59 7.37437 21.9267C6.28808 22.2239 5.14797 22.2672 4.04227 22.0532C4.51418 23.5204 5.43236 24.8035 6.66866 25.7237C7.90495 26.6439 9.39768 27.1551 10.9385 27.1861C8.32264 29.2409 5.09126 30.3554 1.76484 30.3501C1.17493 30.3492 0.585599 30.3131 0 30.2418C3.37928 32.4098 7.3103 33.5613 11.3252 33.5592Z" fill="url(#paint0_linear_272_1809)"/>
</g>
<defs>
<linearGradient id="paint0_linear_272_1809" x1="0" y1="4.30811" x2="38.1049" y2="7.37086" gradientUnits="userSpaceOnUse">
<stop stop-color="#02FF85"/>
<stop offset="1" stop-color="#19FF0A"/>
</linearGradient>
</defs>
</svg>
