<svg width="72" height="72" viewBox="0 0 72 72" fill="none" xmlns="http://www.w3.org/2000/svg">
<circle cx="36" cy="36" r="35.5" fill="#111111" stroke="url(#paint0_linear_272_1579)"/>
<path d="M36.0712 20.2573L30.2571 26.0714C30.0911 26.2373 30 26.4585 30 26.6944C30 26.9305 30.0912 27.1516 30.2571 27.3176L30.7851 27.8454C30.9508 28.0113 31.1721 28.1026 31.4081 28.1026C31.644 28.1026 31.8727 28.0113 32.0385 27.8454L35.4377 24.4536V35.2296C35.4377 35.7155 35.8181 36.0994 36.3041 36.0994H37.0506C37.5365 36.0994 37.9553 35.7155 37.9553 35.2296V24.4151L41.3735 27.8453C41.5395 28.0111 41.7548 28.1025 41.9908 28.1025C42.2265 28.1025 42.445 28.0111 42.6108 27.8453L43.1371 27.3174C43.3031 27.1515 43.3935 26.9304 43.3935 26.6943C43.3935 26.4584 43.3019 26.2372 43.1359 26.0712L37.3219 20.2572C37.1554 20.0908 36.9331 19.9993 36.6969 20C36.4599 19.9995 36.2375 20.0908 36.0712 20.2573Z" fill="white"/>
<path d="M22.4705 43.2097V41.6257H28.3505V43.2097H26.2745V48.8257H24.5465V43.2097H22.4705ZM32.2505 48.9937C29.9225 48.9937 28.6145 47.5297 28.6145 45.2017C28.6145 42.8857 30.0065 41.4577 32.2505 41.4577C34.5305 41.4577 35.8865 42.8857 35.8865 45.2017C35.8865 47.5297 34.5905 48.9937 32.2505 48.9937ZM32.2505 47.5057C33.6065 47.5057 34.1705 46.6177 34.1705 45.2017C34.1705 43.8577 33.6065 42.9697 32.2505 42.9697C30.9065 42.9697 30.3425 43.8577 30.3425 45.2017C30.3425 46.6177 30.9065 47.5057 32.2505 47.5057ZM39.6692 43.0897H38.5532V45.3097H39.6932C40.5812 45.3097 40.9412 44.9497 40.9412 44.1937C40.9412 43.4377 40.6052 43.0897 39.6692 43.0897ZM39.8852 46.7137H38.5532V48.8257H36.8252V41.6257H39.8252C41.7332 41.6257 42.6452 42.5017 42.6452 44.1937C42.6452 45.5977 41.6612 46.7137 39.8852 46.7137ZM46.7348 48.9937C44.4068 48.9937 43.0988 47.5297 43.0988 45.2017C43.0988 42.8857 44.4908 41.4577 46.7348 41.4577C49.0148 41.4577 50.3708 42.8857 50.3708 45.2017C50.3708 47.5297 49.0748 48.9937 46.7348 48.9937ZM46.7348 47.5057C48.0908 47.5057 48.6548 46.6177 48.6548 45.2017C48.6548 43.8577 48.0908 42.9697 46.7348 42.9697C45.3908 42.9697 44.8268 43.8577 44.8268 45.2017C44.8268 46.6177 45.3908 47.5057 46.7348 47.5057Z" fill="white"/>
<defs>
<linearGradient id="paint0_linear_272_1579" x1="0" y1="0" x2="76.3765" y2="4.98804" gradientUnits="userSpaceOnUse">
<stop stop-color="#02FF85"/>
<stop offset="1" stop-color="#19FF0A"/>
</linearGradient>
</defs>
</svg>
