<svg width="122" height="27" viewBox="0 0 122 27" fill="none" xmlns="http://www.w3.org/2000/svg">
<g id="Logo 2" clip-path="url(#clip0_272_1619)">
<g id="g887">
<path id="path2" d="M50.4067 21.2501H47.2332L44.1387 9.16268L41.0102 21.2501H37.7665L33.5117 5.53882H36.3901L39.4584 18.0361L42.8081 5.53882H45.7155L48.864 18.1103L51.778 5.53882H54.5574L50.4067 21.2501Z" fill="white"/>
<path id="path4" d="M58.6259 6.68813C58.6259 7.11288 58.4734 7.46682 58.1685 7.75C57.8707 8.03317 57.5077 8.17475 57.0792 8.17475C56.6508 8.17475 56.2877 8.03315 55.99 7.75C55.6923 7.46683 55.5435 7.11288 55.5435 6.68813C55.5435 6.25594 55.6923 5.89455 55.99 5.60389C56.295 5.31328 56.6581 5.16797 57.0792 5.16797C57.5222 5.16797 57.8889 5.31703 58.1794 5.61507C58.4771 5.91315 58.6259 6.27085 58.6259 6.68813ZM55.7551 21.2496V9.92708H58.3273V21.2496H55.7551Z" fill="white"/>
<path id="path6" d="M68.2269 21.2501V14.9459C68.2269 13.2942 67.7276 11.8693 66.1061 11.8693C64.4931 11.8693 63.4702 13.3599 63.4702 14.8677V21.2498H60.9541V9.92727H63.4702V11.5288H63.5138C64.3488 10.2022 65.5543 9.73633 67.13 9.73633C68.3136 9.73633 69.2286 10.0353 69.8748 10.8103C70.5283 11.5852 70.8152 12.7626 70.8152 14.3424V21.2496L68.2269 21.2501Z" fill="white"/>
<path id="path8" d="M80.8616 21.2502V19.7927H80.818C80.0193 21.1712 78.3888 21.4891 77.2521 21.4891C73.8736 21.4891 72.6338 18.7958 72.6338 15.9298C72.6338 14.0297 73.0949 12.5095 74.0171 11.3694C74.9466 10.2219 76.1883 9.72515 77.7422 9.72515C80.1613 9.72515 80.8181 11.1063 80.8181 11.1063H80.8617V4.55371H83.4716V21.2503L80.8616 21.2502ZM80.8834 14.7983C80.8834 13.4305 80.0269 11.8766 78.2191 11.8766C76.1511 11.8766 75.3475 13.7233 75.3475 15.8518C75.3475 17.71 76.1058 19.3966 78.0751 19.4246C80.0061 19.4246 80.8677 17.5359 80.8834 15.9747V14.7983Z" fill="white"/>
<path id="path10" d="M96.6381 15.5388C96.6381 19.4608 94.354 21.5853 90.9238 21.5853C87.1937 21.5853 85.2817 19.2938 85.2817 15.7846C85.2817 11.7701 87.5728 9.68188 91.196 9.68188C94.5159 9.68188 96.6381 11.8597 96.6381 15.5388ZM93.9585 15.6282C93.9585 13.8834 93.3558 11.9438 91.0544 11.9438C88.847 11.9438 87.9895 13.6295 87.9895 15.6953C87.9895 17.9396 89.0195 19.367 91.0387 19.367C93.2018 19.367 93.9428 17.6633 93.9585 15.6282Z" fill="white"/>
<path id="path12" d="M110.444 21.25H107.606L105.436 13.0555L103.108 21.25H100.352L97.1426 9.96216H99.8363L101.933 18.7316L104.382 9.96216H106.909L109.094 18.7089L111.137 9.96216H113.606L110.444 21.25Z" fill="white"/>
<path id="path14" d="M121.686 18.0983C121.686 20.6191 119.458 21.6016 117.225 21.6016C115.771 21.6016 114.323 21.0268 114.323 21.0268V18.3455C114.323 18.3455 115.581 19.4711 117.34 19.4851C118.545 19.4851 119.088 19.095 119.088 18.3524C119.118 17.7566 118.764 17.428 118.342 17.1817C118.051 17.0029 117.597 16.783 116.98 16.5222C116.254 16.2018 115.713 15.8926 115.357 15.5945C115.009 15.2964 114.747 14.9462 114.573 14.5438C114.406 14.1414 114.283 13.6992 114.283 13.1627C114.283 11.1272 115.937 9.68896 118.581 9.68896C120.329 9.68896 121.087 10.1288 121.087 10.1288V12.676C121.087 12.676 119.844 11.7951 118.554 11.7871C117.629 11.7871 116.93 12.1325 116.918 12.9144C116.911 13.9222 118.114 14.4135 118.832 14.7116C119.878 15.1438 120.643 15.6052 121.071 16.1342C121.5 16.6633 121.686 17.1959 121.686 18.0983Z" fill="white"/>
<path id="rect18" d="M12.1889 0.199219H0V12.7073H12.1889V0.199219Z" fill="white"/>
<path id="rect20" d="M25.7152 0.199219H13.5264V12.7073H25.7152V0.199219Z" fill="white"/>
<path id="rect22" d="M12.1889 14.0808H0V26.5889H12.1889V14.0808Z" fill="white"/>
<path id="rect24" d="M25.7152 14.0808H13.5264V26.5889H25.7152V14.0808Z" fill="white"/>
</g>
</g>
<defs>
<clipPath id="clip0_272_1619">
<rect width="121.686" height="26.3896" fill="white" transform="translate(0 0.199219)"/>
</clipPath>
</defs>
</svg>
