<svg width="36" height="37" viewBox="0 0 36 37" fill="none" xmlns="http://www.w3.org/2000/svg">
<g id="YouTube - Negative">
<path id="Vector" d="M35.6414 11.7342C35.6414 11.7342 35.2898 9.25212 34.207 8.16228C32.8359 6.72791 31.3031 6.72087 30.6 6.6365C25.5656 6.27087 18.007 6.27087 18.007 6.27087H17.993C17.993 6.27087 10.4344 6.27087 5.4 6.6365C4.69688 6.72087 3.16406 6.72791 1.79297 8.16228C0.710156 9.25212 0.365625 11.7342 0.365625 11.7342C0.365625 11.7342 0 14.6521 0 17.5631V20.2912C0 23.2021 0.358594 26.1201 0.358594 26.1201C0.358594 26.1201 0.710156 28.6021 1.78594 29.692C3.15703 31.1263 4.95703 31.0771 5.75859 31.2318C8.64141 31.506 18 31.5904 18 31.5904C18 31.5904 25.5656 31.5763 30.6 31.2178C31.3031 31.1334 32.8359 31.1263 34.207 29.692C35.2898 28.6021 35.6414 26.1201 35.6414 26.1201C35.6414 26.1201 36 23.2092 36 20.2912V17.5631C36 14.6521 35.6414 11.7342 35.6414 11.7342ZM14.2805 23.6029V13.4849L24.0047 18.5615L14.2805 23.6029Z" fill="url(#paint0_linear_272_1806)"/>
</g>
<defs>
<linearGradient id="paint0_linear_272_1806" x1="0" y1="6.27087" x2="38.0233" y2="9.80162" gradientUnits="userSpaceOnUse">
<stop stop-color="#02FF85"/>
<stop offset="1" stop-color="#19FF0A"/>
</linearGradient>
</defs>
</svg>
